<svg width="87" height="74" viewBox="0 0 87 74" fill="none" xmlns="http://www.w3.org/2000/svg">
<path fill-rule="evenodd" clip-rule="evenodd" d="M22.3542 24.7577H65.0904L43.7223 71.8716L22.3542 24.7577Z" fill="#9DE7FF"/>
<path fill-rule="evenodd" clip-rule="evenodd" d="M22.3542 24.7577H65.0904L43.7223 71.8716L22.3542 24.7577Z" fill="black" fill-opacity="0.2"/>
<path fill-rule="evenodd" clip-rule="evenodd" d="M22.3542 24.7577L19.1755 1.87158H43.7223L22.3542 24.7577Z" fill="#9DE7FF"/>
<path fill-rule="evenodd" clip-rule="evenodd" d="M22.3542 24.7577L19.1755 1.87158H43.7223L22.3542 24.7577Z" fill="black" fill-opacity="0.2"/>
<path fill-rule="evenodd" clip-rule="evenodd" d="M68.2691 1.87158L65.0904 24.7577L43.7223 1.87158H68.2691Z" fill="#9DE7FF"/>
<path fill-rule="evenodd" clip-rule="evenodd" d="M68.2691 1.87158L65.0904 24.7577L43.7223 1.87158H68.2691Z" fill="black" fill-opacity="0.2"/>
<path fill-rule="evenodd" clip-rule="evenodd" d="M43.7223 1.87158L65.0904 24.7577H22.3542L43.7223 1.87158Z" fill="#9DE7FF"/>
<path fill-rule="evenodd" clip-rule="evenodd" d="M43.7223 71.8716L65.0904 24.7577H84.8691C68.7313 43.5954 43.7223 71.8716 43.7223 71.8716Z" fill="#9DE7FF"/>
<path fill-rule="evenodd" clip-rule="evenodd" d="M43.7223 71.8716L65.0904 24.7577H84.8691C68.7313 43.5954 43.7223 71.8716 43.7223 71.8716Z" fill="black" fill-opacity="0.5"/>
<path fill-rule="evenodd" clip-rule="evenodd" d="M65.0904 24.7577L68.2691 1.87158L84.8691 24.7577H65.0904Z" fill="#9DE7FF"/>
<path fill-rule="evenodd" clip-rule="evenodd" d="M22.3542 24.7577L43.7223 71.8716L1.86914 24.7577H22.3542Z" fill="#9DE7FF"/>
<path fill-rule="evenodd" clip-rule="evenodd" d="M22.3542 24.7577L43.7223 71.8716L1.86914 24.7577H22.3542Z" fill="black" fill-opacity="0.5"/>
<path fill-rule="evenodd" clip-rule="evenodd" d="M19.1755 1.87158L22.3542 24.7577H1.86914L19.1755 1.87158Z" fill="#9DE7FF"/>
<path d="M68.2691 0C68.8304 0 69.3598 0.252406 69.7135 0.683594L69.7822 0.772059L86.3816 23.6582C86.8902 24.3595 86.8517 25.3187 86.2881 25.9766C78.2118 35.4041 67.9193 47.1892 59.6489 56.614C55.513 61.3272 51.8816 65.4521 49.2841 68.3981C47.9853 69.8712 46.9445 71.0496 46.2288 71.86C45.8711 72.265 45.5946 72.5781 45.4073 72.7899C45.3137 72.8959 45.242 72.9763 45.1941 73.0305C45.1702 73.0575 45.1522 73.0782 45.1401 73.0919C45.1342 73.0986 45.13 73.1038 45.1269 73.1072C45.1255 73.1088 45.124 73.11 45.1233 73.1109L45.1226 73.1124L43.7227 71.8717L45.1218 73.1124C44.7675 73.513 44.2586 73.7427 43.7242 73.7433C43.1898 73.7438 42.6809 73.5151 42.3258 73.1153L0.472373 26.0014C-0.120383 25.334 -0.159492 24.3403 0.378904 23.6282L17.6852 0.742083C18.0385 0.274814 18.5902 3.52282e-05 19.1756 0H68.2691ZM43.722 67.3446L62.1886 26.6294H25.2561L43.722 67.3446ZM36.9185 61.3962L21.1501 26.6294H6.03375L36.9185 61.3962ZM50.5912 61.2537C52.465 59.1244 54.5769 56.7222 56.8397 54.1436C64.225 45.7274 73.2155 35.437 80.7961 26.6294H66.2946L50.5912 61.2537ZM67.2381 22.8861H81.2014C78.4014 19.0259 75.2611 14.6968 72.6257 11.0633C71.4531 9.44674 70.3804 7.96773 69.482 6.72919L67.2381 22.8861ZM26.6603 22.8861H60.7844L43.722 4.61188L26.6603 22.8861ZM5.6292 22.8861H20.2074L17.9451 6.59906L5.6292 22.8861ZM63.779 20.6124L66.1223 3.74332H48.0288L63.779 20.6124ZM23.6657 20.6116L39.4166 3.74332H21.3231L23.6657 20.6116Z" fill="#221D18"/>
</svg>
