<svg width="367" height="365" viewBox="0 0 367 365" fill="none" xmlns="http://www.w3.org/2000/svg" xmlns:xlink="http://www.w3.org/1999/xlink">
<path d="M146.428 61.6958C149.964 51.6676 163.109 49.3479 169.859 57.5608L205.237 100.608C209.614 105.934 216.092 109.09 222.983 109.258L278.708 110.615C289.347 110.874 295.595 122.647 289.87 131.597L259.835 178.55C257.999 181.42 256.802 184.653 256.327 188.028C255.851 191.402 256.109 194.841 257.082 198.107L272.987 251.506C276.019 261.68 266.761 271.288 256.457 268.608L202.515 254.581C199.218 253.723 195.775 253.586 192.42 254.178C189.066 254.769 185.877 256.077 183.072 258.012L137.178 289.657C128.411 295.701 116.428 289.843 115.798 279.244L112.497 223.621C112.088 216.737 108.704 210.374 103.227 206.188L58.9558 172.346C50.5178 165.896 52.3661 152.694 62.2746 148.809L114.175 128.459C120.593 125.943 125.602 120.76 127.895 114.256L146.428 61.6958Z" fill="#FFAFF3"/>
<path d="M156.106 47.9888C149.819 49.0984 144.072 53.2761 141.693 60.0231L123.157 112.583C121.35 117.707 117.408 121.787 112.348 123.771L60.4458 144.122C47.1273 149.344 44.5518 167.677 55.9058 176.356L100.177 210.194C102.309 211.822 104.064 213.89 105.324 216.26C106.584 218.629 107.318 221.242 107.476 223.921L110.776 279.542C111.622 293.812 128.254 301.93 140.039 293.806L140.04 293.805L185.937 262.159V262.158C188.146 260.633 190.659 259.603 193.302 259.137C195.945 258.671 198.658 258.779 201.255 259.455L255.198 273.48C269.049 277.082 281.903 263.759 277.822 250.059V250.06L261.918 196.662C261.152 194.091 260.949 191.384 261.323 188.726C261.697 186.069 262.64 183.524 264.087 181.265V181.264L294.125 134.309L294.124 134.309C301.828 122.267 293.144 105.921 278.844 105.573L223.118 104.218C217.685 104.086 212.587 101.602 209.139 97.4055L173.761 54.36C169.22 48.8347 162.392 46.8764 156.104 47.9862M157.797 57.5927C160.654 57.0884 163.774 58.0762 165.983 60.7633L201.36 103.808C206.665 110.264 214.524 114.091 222.872 114.294L278.599 115.649C285.577 115.819 289.389 123.018 285.641 128.875L255.605 175.829C251.099 182.869 249.881 191.532 252.265 199.541L268.17 252.938C270.15 259.588 264.488 265.48 257.73 263.724L203.787 249.699C195.704 247.596 187.098 249.115 180.22 253.859L134.324 285.504C128.573 289.469 121.239 285.87 120.827 278.944L117.528 223.322C117.033 214.978 112.926 207.257 106.288 202.182L62.0169 168.344C56.4951 164.124 57.6178 156.054 64.1167 153.505L116.019 133.154C123.796 130.104 129.872 123.817 132.652 115.934V115.934L151.188 63.3745C152.345 60.0935 154.939 58.0972 157.796 57.5929" fill="#221D18"/>
<path d="M146.956 188.565C152.336 187.615 155.929 182.481 154.98 177.097C154.032 171.712 148.902 168.118 143.522 169.068C138.142 170.017 134.549 175.152 135.498 180.536C136.446 185.919 141.576 189.515 146.956 188.565Z" fill="#221D18"/>
<path d="M226.655 174.501C232.034 173.552 235.627 168.417 234.678 163.034C233.73 157.65 228.6 154.055 223.219 155.004C217.84 155.954 214.247 161.088 215.195 166.472C216.144 171.856 221.274 175.451 226.655 174.501Z" fill="#221D18"/>
<path d="M198.507 189.099C197.857 188.952 197.185 188.934 196.528 189.047L180.772 191.755C179.446 191.983 178.265 192.728 177.488 193.827C176.712 194.926 176.403 196.289 176.631 197.615C176.859 198.941 177.604 200.123 178.703 200.899C179.802 201.676 181.164 201.984 182.49 201.756L198.246 199.049C199.572 198.821 200.754 198.075 201.53 196.976C202.307 195.877 202.615 194.515 202.387 193.189C202.217 192.2 201.758 191.283 201.067 190.555C200.377 189.827 199.486 189.321 198.507 189.099" fill="#221D18"/>
<path fill-rule="evenodd" clip-rule="evenodd" d="M205.88 127.782C163.581 136.939 136.979 113.29 136.979 113.29C136.979 113.29 153.26 104.003 169.107 105.895C180.004 107.196 186.317 111.696 193.53 116.837C197.361 119.568 201.446 122.48 206.607 125.189C211.624 127.824 215.969 129.439 219.994 130.936C227.252 133.636 233.471 135.949 240.72 143.149C252.22 154.57 257.574 176.227 257.574 176.227C257.574 176.227 218.66 167.818 205.88 127.782Z" fill="#944BFA"/>
<path fill-rule="evenodd" clip-rule="evenodd" d="M205.88 127.782C163.581 136.939 136.979 113.29 136.979 113.29C136.979 113.29 153.26 104.003 169.107 105.895C180.004 107.196 186.317 111.696 193.53 116.837C197.361 119.568 201.446 122.48 206.607 125.189C211.624 127.824 215.969 129.439 219.994 130.936C227.252 133.636 233.471 135.949 240.72 143.149C252.22 154.57 257.574 176.227 257.574 176.227C257.574 176.227 218.66 167.818 205.88 127.782Z" fill="url(#pattern0_91_419)" fill-opacity="0.49"/>
<path fill-rule="evenodd" clip-rule="evenodd" d="M169.107 105.895C153.26 104.003 136.979 113.29 136.979 113.29C118.954 139.27 108.07 156.757 101.778 203.594C100.025 160.678 116.171 120.573 118.649 120.766C124.88 117.771 126.902 110.82 129.533 103.279C136.396 86.5465 136.632 65.2518 122.465 52.5024C133.369 48.4207 149.377 61.0448 156.868 66.9524C158.482 68.2253 159.701 69.1864 160.388 69.6014C164.263 71.9422 170.387 69.7063 170.387 69.7063C172.906 69.3487 175.433 68.9468 177.966 68.5439C204.719 64.2889 232.047 59.9422 255.902 106.906C268.489 127.33 268.587 127.34 277.231 128.254L277.329 128.265C282.017 127.819 285.936 127.195 289.354 126.65C302.369 124.577 308.118 123.661 321.377 138.195C298.244 136.82 281.762 158.741 270.166 177.059C265.432 183.521 261.516 187.818 262.086 194.176C262.086 194.176 265.104 206.676 201.036 255.738C234.577 223.488 245.527 209.203 257.574 176.227C257.574 176.227 252.22 154.57 240.72 143.149C233.471 135.949 227.252 133.636 219.994 130.936C215.969 129.439 211.624 127.824 206.607 125.189C201.446 122.48 197.361 119.568 193.53 116.837C186.317 111.696 180.004 107.196 169.107 105.895Z" fill="#944BFA"/>
<path fill-rule="evenodd" clip-rule="evenodd" d="M169.107 105.895C153.26 104.003 136.979 113.29 136.979 113.29C118.954 139.27 108.07 156.757 101.778 203.594C100.025 160.678 116.171 120.573 118.649 120.766C124.88 117.771 126.902 110.82 129.533 103.279C136.396 86.5465 136.632 65.2518 122.465 52.5024C133.369 48.4207 149.377 61.0448 156.868 66.9524C158.482 68.2253 159.701 69.1864 160.388 69.6014C164.263 71.9422 170.387 69.7063 170.387 69.7063C172.906 69.3487 175.433 68.9468 177.966 68.5439C204.719 64.2889 232.047 59.9422 255.902 106.906C268.489 127.33 268.587 127.34 277.231 128.254L277.329 128.265C282.017 127.819 285.936 127.195 289.354 126.65C302.369 124.577 308.118 123.661 321.377 138.195C298.244 136.82 281.762 158.741 270.166 177.059C265.432 183.521 261.516 187.818 262.086 194.176C262.086 194.176 265.104 206.676 201.036 255.738C234.577 223.488 245.527 209.203 257.574 176.227C257.574 176.227 252.22 154.57 240.72 143.149C233.471 135.949 227.252 133.636 219.994 130.936C215.969 129.439 211.624 127.824 206.607 125.189C201.446 122.48 197.361 119.568 193.53 116.837C186.317 111.696 180.004 107.196 169.107 105.895Z" fill="url(#pattern1_91_419)" fill-opacity="0.49"/>
<path d="M136.979 113.29C136.979 113.29 163.581 136.939 205.88 127.782C218.66 167.818 257.574 176.227 257.574 176.227M136.979 113.29C136.979 113.29 153.26 104.003 169.107 105.895C180.004 107.196 186.317 111.696 193.53 116.837C197.361 119.568 201.446 122.48 206.607 125.189C211.624 127.824 215.969 129.439 219.994 130.936C227.252 133.636 233.471 135.949 240.72 143.149C252.22 154.57 257.574 176.227 257.574 176.227M136.979 113.29C118.954 139.27 108.07 156.757 101.778 203.594C100.025 160.678 116.171 120.573 118.649 120.766M136.979 113.29L118.649 120.766M257.574 176.227C245.527 209.203 234.577 223.488 201.036 255.738C265.104 206.676 262.086 194.176 262.086 194.176M257.574 176.227L262.086 194.176M118.649 120.766C124.88 117.771 126.902 110.82 129.533 103.279C136.396 86.5465 136.632 65.2518 122.465 52.5024C133.369 48.4207 149.377 61.0448 156.868 66.9524C158.482 68.2253 159.701 69.1864 160.388 69.6014C164.263 71.9422 170.387 69.7063 170.387 69.7063C172.906 69.3487 175.433 68.9468 177.966 68.5439C204.719 64.2889 232.047 59.9422 255.902 106.906C268.489 127.33 268.587 127.34 277.231 128.254M277.231 128.254L277.329 128.265M277.231 128.254C277.264 128.258 277.296 128.261 277.329 128.265M277.329 128.265C282.017 127.819 285.936 127.195 289.354 126.65C302.369 124.577 308.118 123.661 321.377 138.195C298.244 136.82 281.762 158.741 270.166 177.059C265.432 183.521 261.516 187.818 262.086 194.176" stroke="#221D18" stroke-width="5" stroke-linejoin="round"/>
<defs>
<pattern id="pattern0_91_419" patternUnits="userSpaceOnUse" patternTransform="matrix(-38.957 -29.8617 12.2909 -16.0345 186.959 157.714)" preserveAspectRatio="none" viewBox="2.07812 1.70434 49.0853 20.2032" width="1" height="1">
<use xlink:href="#pattern0_91_419_inner" transform="translate(0 -20.2032)"/>
<use xlink:href="#pattern0_91_419_inner" transform="translate(24.5427 -10.1016)"/>
<g id="pattern0_91_419_inner">
<path fill-rule="evenodd" clip-rule="evenodd" d="M9.97016 7.68224C9.93688 7.58376 9.89805 7.49903 9.85337 7.42981C9.89317 7.51456 9.93209 7.5987 9.97016 7.68224ZM9.83523 7.40869L9.85337 7.42981C9.85079 7.41963 9.84468 7.41263 9.83523 7.40869Z" fill="#FE8FED"/>
<path fill-rule="evenodd" clip-rule="evenodd" d="M13.107 6.5956C13.1011 6.67777 13.1078 6.77074 13.126 6.87309C13.1192 6.78154 13.1129 6.68905 13.107 6.5956Z" fill="#FE8FED"/>
<path d="M2.37534 14.5065C1.6588 13.6798 9.39438 7.2249 9.83523 7.40869L9.85337 7.42981C9.89317 7.51456 9.93209 7.5987 9.97016 7.68224C10.5757 9.47413 9.34129 15.8196 7.96333 16.1721C7.12599 16.3866 6.38412 16.4821 5.73603 16.4826C3.76025 16.4839 2.65603 15.6009 2.37534 14.5065Z" fill="#FE8FED"/>
<path d="M13.1095 6.57331C13.3256 6.17851 23.2981 8.13235 23.0662 9.20626C23.3461 10.3009 22.8023 11.6059 21.0692 12.5546C20.5007 12.8657 19.8042 13.1385 18.9669 13.353C17.5891 13.7063 13.4564 8.73544 13.126 6.87309C13.1192 6.78154 13.1129 6.68905 13.107 6.5956C13.1049 6.58748 13.1058 6.58005 13.1095 6.57331Z" fill="#FE8FED"/>
<path fill-rule="evenodd" clip-rule="evenodd" d="M21.0692 12.5546C20.7387 14.4671 17.8139 15.8681 15.5921 13.783C14.3908 12.6555 13.395 10.509 13.126 6.87309C13.4564 8.73544 17.5891 13.7063 18.9669 13.353C19.8042 13.1385 20.5007 12.8657 21.0692 12.5546Z" fill="#FE8FED"/>
<path fill-rule="evenodd" clip-rule="evenodd" d="M11.1571 14.8388C11.6343 13.2727 11.4539 10.9382 9.97016 7.68224C9.93688 7.58376 9.89805 7.49903 9.85337 7.42981C9.85079 7.41963 9.84468 7.41263 9.83523 7.40869C9.12403 6.57337 9.28292 5.85331 9.80027 5.37948C9.96217 5.23119 10.1592 5.10702 10.3756 5.01097C10.6411 4.89315 10.9359 4.81766 11.2309 4.79192C11.4714 4.77093 11.7121 4.78299 11.9374 4.83213C12.6578 4.98933 13.2197 5.52591 13.1095 6.57331C13.1058 6.58005 13.1049 6.58748 13.107 6.5956C13.1011 6.67777 13.1078 6.77074 13.126 6.87309C13.395 10.509 14.3908 12.6555 15.5921 13.783C15.7096 18.3179 13.3033 18.9075 11.1571 14.8388Z" fill="#FE8FED"/>
<path fill-rule="evenodd" clip-rule="evenodd" d="M11.1571 14.8388C10.2486 17.8196 6.95736 18.016 5.73603 16.4826C6.38412 16.4821 7.12599 16.3866 7.96333 16.1721C9.34129 15.8196 10.5757 9.47413 9.97016 7.68224C11.4539 10.9382 11.6343 13.2727 11.1571 14.8388Z" fill="#FE8FED"/>
<path fill-rule="evenodd" clip-rule="evenodd" d="M10.3756 5.01097C10.1592 5.10702 9.96217 5.23119 9.80027 5.37948L7.28441 3.44315C8.9378 3.24577 9.57236 3.56172 10.3756 5.01097Z" fill="#FE8FED"/>
<path fill-rule="evenodd" clip-rule="evenodd" d="M11.9374 4.83213C11.7121 4.78299 11.4714 4.77093 11.2309 4.79192C11.1898 3.09391 11.677 2.53141 13.0968 1.95448L11.9374 4.83213Z" fill="#FE8FED"/>
<path d="M9.97016 7.68224C9.93688 7.58376 9.89805 7.49903 9.85337 7.42981M9.97016 7.68224C9.93209 7.5987 9.89317 7.51456 9.85337 7.42981M9.97016 7.68224C10.5757 9.47413 9.34129 15.8196 7.96333 16.1721C7.12599 16.3866 6.38412 16.4821 5.73603 16.4826M9.97016 7.68224C11.4539 10.9382 11.6343 13.2727 11.1571 14.8388M9.85337 7.42981L9.83523 7.40869M9.85337 7.42981C9.85079 7.41963 9.84468 7.41263 9.83523 7.40869M9.83523 7.40869C9.39438 7.2249 1.6588 13.6798 2.37534 14.5065C2.65603 15.6009 3.76025 16.4839 5.73603 16.4826M9.83523 7.40869C9.12403 6.57337 9.28292 5.85331 9.80027 5.37948M13.107 6.5956C13.1011 6.67777 13.1078 6.77074 13.126 6.87309M13.107 6.5956C13.1129 6.68905 13.1192 6.78154 13.126 6.87309M13.107 6.5956C13.1049 6.58748 13.1058 6.58005 13.1095 6.57331M13.107 6.5956C13.1079 6.58814 13.1087 6.58072 13.1095 6.57331M13.126 6.87309C13.4564 8.73544 17.5891 13.7063 18.9669 13.353C19.8042 13.1385 20.5007 12.8657 21.0692 12.5546M13.126 6.87309C13.395 10.509 14.3908 12.6555 15.5921 13.783M5.73603 16.4826C6.95736 18.016 10.2486 17.8196 11.1571 14.8388M13.1095 6.57331C13.3256 6.17851 23.2981 8.13235 23.0662 9.20626C23.3461 10.3009 22.8023 11.6059 21.0692 12.5546M13.1095 6.57331C13.2197 5.52591 12.6578 4.98933 11.9374 4.83213M21.0692 12.5546C20.7387 14.4671 17.8139 15.8681 15.5921 13.783M15.5921 13.783C15.7096 18.3179 13.3033 18.9075 11.1571 14.8388M15.5921 13.783C15.5914 13.7566 15.5907 13.7301 15.5898 13.7035M9.80027 5.37948C9.96217 5.23119 10.1592 5.10702 10.3756 5.01097M9.80027 5.37948L7.28441 3.44315C8.9378 3.24577 9.57236 3.56172 10.3756 5.01097M10.3756 5.01097C10.6411 4.89315 10.9359 4.81766 11.2309 4.79192M11.2309 4.79192C11.4714 4.77093 11.7121 4.78299 11.9374 4.83213M11.2309 4.79192C11.1898 3.09391 11.677 2.53141 13.0968 1.95448L11.9374 4.83213" stroke="#FFD596" stroke-width="0.5" stroke-linejoin="round"/>
</g>
<use xlink:href="#pattern0_91_419_inner" transform="translate(24.5427 10.1016)"/>
</pattern><pattern id="pattern1_91_419" patternUnits="userSpaceOnUse" patternTransform="matrix(-38.957 -29.8617 12.2909 -16.0345 186.959 157.714)" preserveAspectRatio="none" viewBox="2.07812 1.70434 49.0853 20.2032" width="1" height="1">
<use xlink:href="#pattern1_91_419_inner" transform="translate(0 -20.2032)"/>
<use xlink:href="#pattern1_91_419_inner" transform="translate(24.5427 -10.1016)"/>
<g id="pattern1_91_419_inner">
<path fill-rule="evenodd" clip-rule="evenodd" d="M9.97016 7.68224C9.93688 7.58376 9.89805 7.49903 9.85337 7.42981C9.89317 7.51456 9.93209 7.5987 9.97016 7.68224ZM9.83523 7.40869L9.85337 7.42981C9.85079 7.41963 9.84468 7.41263 9.83523 7.40869Z" fill="#FE8FED"/>
<path fill-rule="evenodd" clip-rule="evenodd" d="M13.107 6.5956C13.1011 6.67777 13.1078 6.77074 13.126 6.87309C13.1192 6.78154 13.1129 6.68905 13.107 6.5956Z" fill="#FE8FED"/>
<path d="M2.37534 14.5065C1.6588 13.6798 9.39438 7.2249 9.83523 7.40869L9.85337 7.42981C9.89317 7.51456 9.93209 7.5987 9.97016 7.68224C10.5757 9.47413 9.34129 15.8196 7.96333 16.1721C7.12599 16.3866 6.38412 16.4821 5.73603 16.4826C3.76025 16.4839 2.65603 15.6009 2.37534 14.5065Z" fill="#FE8FED"/>
<path d="M13.1095 6.57331C13.3256 6.17851 23.2981 8.13235 23.0662 9.20626C23.3461 10.3009 22.8023 11.6059 21.0692 12.5546C20.5007 12.8657 19.8042 13.1385 18.9669 13.353C17.5891 13.7063 13.4564 8.73544 13.126 6.87309C13.1192 6.78154 13.1129 6.68905 13.107 6.5956C13.1049 6.58748 13.1058 6.58005 13.1095 6.57331Z" fill="#FE8FED"/>
<path fill-rule="evenodd" clip-rule="evenodd" d="M21.0692 12.5546C20.7387 14.4671 17.8139 15.8681 15.5921 13.783C14.3908 12.6555 13.395 10.509 13.126 6.87309C13.4564 8.73544 17.5891 13.7063 18.9669 13.353C19.8042 13.1385 20.5007 12.8657 21.0692 12.5546Z" fill="#FE8FED"/>
<path fill-rule="evenodd" clip-rule="evenodd" d="M11.1571 14.8388C11.6343 13.2727 11.4539 10.9382 9.97016 7.68224C9.93688 7.58376 9.89805 7.49903 9.85337 7.42981C9.85079 7.41963 9.84468 7.41263 9.83523 7.40869C9.12403 6.57337 9.28292 5.85331 9.80027 5.37948C9.96217 5.23119 10.1592 5.10702 10.3756 5.01097C10.6411 4.89315 10.9359 4.81766 11.2309 4.79192C11.4714 4.77093 11.7121 4.78299 11.9374 4.83213C12.6578 4.98933 13.2197 5.52591 13.1095 6.57331C13.1058 6.58005 13.1049 6.58748 13.107 6.5956C13.1011 6.67777 13.1078 6.77074 13.126 6.87309C13.395 10.509 14.3908 12.6555 15.5921 13.783C15.7096 18.3179 13.3033 18.9075 11.1571 14.8388Z" fill="#FE8FED"/>
<path fill-rule="evenodd" clip-rule="evenodd" d="M11.1571 14.8388C10.2486 17.8196 6.95736 18.016 5.73603 16.4826C6.38412 16.4821 7.12599 16.3866 7.96333 16.1721C9.34129 15.8196 10.5757 9.47413 9.97016 7.68224C11.4539 10.9382 11.6343 13.2727 11.1571 14.8388Z" fill="#FE8FED"/>
<path fill-rule="evenodd" clip-rule="evenodd" d="M10.3756 5.01097C10.1592 5.10702 9.96217 5.23119 9.80027 5.37948L7.28441 3.44315C8.9378 3.24577 9.57236 3.56172 10.3756 5.01097Z" fill="#FE8FED"/>
<path fill-rule="evenodd" clip-rule="evenodd" d="M11.9374 4.83213C11.7121 4.78299 11.4714 4.77093 11.2309 4.79192C11.1898 3.09391 11.677 2.53141 13.0968 1.95448L11.9374 4.83213Z" fill="#FE8FED"/>
<path d="M9.97016 7.68224C9.93688 7.58376 9.89805 7.49903 9.85337 7.42981M9.97016 7.68224C9.93209 7.5987 9.89317 7.51456 9.85337 7.42981M9.97016 7.68224C10.5757 9.47413 9.34129 15.8196 7.96333 16.1721C7.12599 16.3866 6.38412 16.4821 5.73603 16.4826M9.97016 7.68224C11.4539 10.9382 11.6343 13.2727 11.1571 14.8388M9.85337 7.42981L9.83523 7.40869M9.85337 7.42981C9.85079 7.41963 9.84468 7.41263 9.83523 7.40869M9.83523 7.40869C9.39438 7.2249 1.6588 13.6798 2.37534 14.5065C2.65603 15.6009 3.76025 16.4839 5.73603 16.4826M9.83523 7.40869C9.12403 6.57337 9.28292 5.85331 9.80027 5.37948M13.107 6.5956C13.1011 6.67777 13.1078 6.77074 13.126 6.87309M13.107 6.5956C13.1129 6.68905 13.1192 6.78154 13.126 6.87309M13.107 6.5956C13.1049 6.58748 13.1058 6.58005 13.1095 6.57331M13.107 6.5956C13.1079 6.58814 13.1087 6.58072 13.1095 6.57331M13.126 6.87309C13.4564 8.73544 17.5891 13.7063 18.9669 13.353C19.8042 13.1385 20.5007 12.8657 21.0692 12.5546M13.126 6.87309C13.395 10.509 14.3908 12.6555 15.5921 13.783M5.73603 16.4826C6.95736 18.016 10.2486 17.8196 11.1571 14.8388M13.1095 6.57331C13.3256 6.17851 23.2981 8.13235 23.0662 9.20626C23.3461 10.3009 22.8023 11.6059 21.0692 12.5546M13.1095 6.57331C13.2197 5.52591 12.6578 4.98933 11.9374 4.83213M21.0692 12.5546C20.7387 14.4671 17.8139 15.8681 15.5921 13.783M15.5921 13.783C15.7096 18.3179 13.3033 18.9075 11.1571 14.8388M15.5921 13.783C15.5914 13.7566 15.5907 13.7301 15.5898 13.7035M9.80027 5.37948C9.96217 5.23119 10.1592 5.10702 10.3756 5.01097M9.80027 5.37948L7.28441 3.44315C8.9378 3.24577 9.57236 3.56172 10.3756 5.01097M10.3756 5.01097C10.6411 4.89315 10.9359 4.81766 11.2309 4.79192M11.2309 4.79192C11.4714 4.77093 11.7121 4.78299 11.9374 4.83213M11.2309 4.79192C11.1898 3.09391 11.677 2.53141 13.0968 1.95448L11.9374 4.83213" stroke="#FFD596" stroke-width="0.5" stroke-linejoin="round"/>
</g>
<use xlink:href="#pattern1_91_419_inner" transform="translate(24.5427 10.1016)"/>
</pattern></defs>
</svg>
