<svg width="368" height="367" viewBox="0 0 368 367" fill="none" xmlns="http://www.w3.org/2000/svg">
<path d="M138.537 66.2412C142.073 56.213 155.218 53.8933 161.968 62.1062L197.346 105.153C201.723 110.479 208.202 113.636 215.093 113.804L270.817 115.161C281.456 115.419 287.704 127.192 281.98 136.142L251.945 183.095C250.108 185.966 248.911 189.198 248.436 192.574C247.96 195.948 248.218 199.386 249.192 202.652L265.097 256.051C268.128 266.225 258.87 275.833 248.566 273.153L194.624 259.127C191.327 258.269 187.884 258.131 184.529 258.723C181.175 259.314 177.987 260.622 175.182 262.557L129.288 294.203C120.52 300.247 108.538 294.388 107.908 283.79L104.606 228.167C104.198 221.282 100.813 214.92 95.3363 210.733L51.0652 176.892C42.6272 170.442 44.4755 157.239 54.384 153.354L106.285 133.005C112.703 130.488 117.711 125.305 120.004 118.801L138.537 66.2412Z" fill="#FFAFF3"/>
<path d="M148.215 52.5342C141.928 53.6439 136.181 57.8215 133.802 64.5685L115.267 117.128C113.459 122.252 109.518 126.332 104.458 128.316L52.5552 148.667C39.2367 153.889 36.6612 172.223 48.0152 180.902L92.2863 214.739C94.4179 216.367 96.1736 218.436 97.4332 220.806C98.6929 223.174 99.4271 225.787 99.5856 228.466L102.885 284.088C103.732 298.358 120.363 306.475 132.149 298.351L132.149 298.35L178.046 266.705V266.703C180.256 265.179 182.769 264.148 185.411 263.682C188.055 263.216 190.768 263.324 193.365 264.001L247.308 278.025C261.158 281.627 274.013 268.305 269.931 254.604V254.606L254.028 201.208C253.261 198.636 253.058 195.93 253.432 193.271C253.806 190.614 254.749 188.069 256.197 185.81V185.809L286.234 138.855L286.233 138.854C293.938 126.812 285.254 110.467 270.954 110.118L215.227 108.764C209.795 108.632 204.696 106.147 201.248 101.951L165.87 58.9054C161.329 53.3801 154.501 51.4218 148.214 52.5316M149.906 62.1381C152.763 61.6338 155.883 62.6216 158.092 65.3087L193.469 108.353C198.774 114.809 206.634 118.637 214.981 118.84L270.708 120.195C277.686 120.364 281.498 127.564 277.751 133.42L247.714 180.375C243.209 187.414 241.99 196.077 244.374 204.087L260.279 257.483C262.26 264.133 256.597 270.026 249.839 268.269L195.896 254.244C187.813 252.141 179.207 253.661 172.33 258.404L126.433 290.05C120.682 294.015 113.348 290.415 112.936 283.489L109.637 227.868C109.142 219.523 105.035 211.802 98.3973 206.727L54.1263 172.89C48.6045 168.669 49.7272 160.599 56.226 158.05L108.129 137.699C115.905 134.65 121.982 128.363 124.762 120.48V120.479L143.297 67.9199C144.454 64.639 147.048 62.6426 149.905 62.1383" fill="#221D18"/>
<path d="M139.066 193.11C144.446 192.16 148.038 187.026 147.09 181.643C146.141 176.258 141.011 172.664 135.631 173.613C130.251 174.563 126.658 179.697 127.607 185.081C128.555 190.465 133.686 194.06 139.066 193.11Z" fill="#221D18"/>
<path d="M218.764 179.046C224.143 178.098 227.736 172.963 226.787 167.579C225.839 162.195 220.709 158.6 215.328 159.55C209.949 160.499 206.356 165.633 207.304 171.018C208.253 176.402 213.383 179.996 218.764 179.046Z" fill="#221D18"/>
<path d="M190.616 193.644C189.966 193.497 189.294 193.48 188.637 193.592L172.882 196.3C171.555 196.528 170.374 197.273 169.598 198.372C168.821 199.471 168.513 200.834 168.741 202.16C168.969 203.487 169.714 204.668 170.813 205.445C171.911 206.221 173.274 206.53 174.6 206.302L190.356 203.594C191.682 203.366 192.863 202.621 193.64 201.522C194.416 200.423 194.724 199.06 194.497 197.734C194.327 196.745 193.867 195.829 193.177 195.101C192.486 194.373 191.595 193.866 190.616 193.644" fill="#221D18"/>
<path fill-rule="evenodd" clip-rule="evenodd" d="M250.504 179.596C253.681 178.516 265.342 177.391 264.568 165.374C261.75 161.825 252.887 162.964 250.504 179.596Z" fill="#C8FFA7"/>
<path fill-rule="evenodd" clip-rule="evenodd" d="M250.504 179.596C253.681 178.516 265.342 177.391 264.568 165.374C261.75 161.825 252.887 162.964 250.504 179.596Z" fill="black" fill-opacity="0.5"/>
<path fill-rule="evenodd" clip-rule="evenodd" d="M183.027 238.034C180.866 230.976 194.788 206.068 201.469 199.313C206.968 191.098 227.665 185.756 240.732 182.383C245.163 181.239 248.717 180.322 250.504 179.596C250.918 179.455 251.476 179.314 252.132 179.147C256.509 178.038 265.241 175.825 264.568 165.374C273.337 176.418 262.951 192.608 255.216 200.429C247.729 208 234.695 212.888 221.246 217.931C206.908 223.308 192.098 228.862 183.027 238.034Z" fill="#C8FFA7"/>
<path fill-rule="evenodd" clip-rule="evenodd" d="M221.246 217.931C234.695 212.888 247.729 208 255.216 200.429C261.266 220.692 272.137 255.137 272.137 255.137C272.682 258.119 272.468 261.061 271.633 263.779C262.55 280.093 246.222 269.525 227.449 257.374C213.344 248.244 197.858 238.22 183.027 238.034C192.098 228.862 206.908 223.308 221.246 217.931Z" fill="#C8FFA7"/>
<path fill-rule="evenodd" clip-rule="evenodd" d="M227.449 257.374C246.222 269.525 262.55 280.093 271.633 263.779C270.716 266.764 269.051 269.479 266.824 271.682C262.801 275.663 256.941 277.973 250.338 277.179L196.165 262.983C188.21 261.04 182.202 264.492 178.959 266.355C177.585 267.145 176.707 267.649 176.39 267.335C167.36 259.557 171.524 252.063 174.567 246.589C175.234 245.387 181.926 238.857 183.027 238.034C197.858 238.22 213.344 248.244 227.449 257.374Z" fill="#C8FFA7"/>
<path fill-rule="evenodd" clip-rule="evenodd" d="M227.449 257.374C246.222 269.525 262.55 280.093 271.633 263.779C270.716 266.764 269.051 269.479 266.824 271.682C262.801 275.663 256.941 277.973 250.338 277.179L196.165 262.983C188.21 261.04 182.202 264.492 178.959 266.355C177.585 267.145 176.707 267.649 176.39 267.335C167.36 259.557 171.524 252.063 174.567 246.589C175.234 245.387 181.926 238.857 183.027 238.034C197.858 238.22 213.344 248.244 227.449 257.374Z" fill="black" fill-opacity="0.2"/>
<path d="M250.504 179.596C253.681 178.516 265.342 177.391 264.568 165.374M250.504 179.596C252.887 162.964 261.75 161.825 264.568 165.374M250.504 179.596C248.717 180.322 245.163 181.239 240.732 182.383C227.665 185.756 206.968 191.098 201.469 199.313C194.788 206.068 180.866 230.976 183.027 238.034M250.504 179.596C250.918 179.455 251.476 179.314 252.132 179.147C256.509 178.038 265.241 175.825 264.568 165.374M264.568 165.374C273.337 176.418 262.951 192.608 255.216 200.429M183.027 238.034C192.098 228.862 206.908 223.308 221.246 217.931C234.695 212.888 247.729 208 255.216 200.429M183.027 238.034C197.858 238.22 213.344 248.244 227.449 257.374C246.222 269.525 262.55 280.093 271.633 263.779M183.027 238.034C181.926 238.857 175.234 245.387 174.567 246.589C171.524 252.063 167.36 259.557 176.39 267.335C176.707 267.649 177.585 267.145 178.959 266.355C182.202 264.492 188.21 261.04 196.165 262.983L250.338 277.179C256.941 277.973 262.801 275.663 266.824 271.682C269.051 269.479 270.716 266.764 271.633 263.779M255.216 200.429C261.266 220.692 272.137 255.137 272.137 255.137C272.682 258.119 272.468 261.061 271.633 263.779" stroke="#221D18" stroke-width="5"/>
<path d="M253.14 230.108C253.446 230.621 253.075 231.272 252.479 231.269L247.31 231.245C246.525 231.242 245.777 231.58 245.262 232.172L241.864 236.07C241.471 236.52 240.739 236.367 240.558 235.8L238.985 230.874C238.867 230.505 238.671 230.165 238.409 229.878C238.148 229.591 237.828 229.364 237.471 229.211L232.717 227.184C232.17 226.951 232.086 226.206 232.571 225.857L236.768 222.836C237.083 222.61 237.345 222.318 237.537 221.981C237.705 221.686 237.816 221.363 237.864 221.027L237.881 220.883L238.34 215.733C238.393 215.136 239.076 214.83 239.555 215.182L243.722 218.241C244.355 218.705 245.159 218.871 245.924 218.696L250.962 217.54C251.542 217.407 252.047 217.959 251.86 218.527L250.238 223.438C249.992 224.183 250.082 224.998 250.485 225.671L253.14 230.108Z" fill="#FFAFF3" stroke="#221D18"/>
</svg>
