<svg width="279" height="276" viewBox="0 0 279 276" fill="none" xmlns="http://www.w3.org/2000/svg">
<path d="M106.013 37.8965C109.55 27.8683 122.695 25.5486 129.445 33.7615L164.823 76.8082C169.2 82.1347 175.678 85.2909 182.569 85.4588L238.294 86.8158C248.933 87.0747 255.181 98.8476 249.456 107.798L219.421 154.751C217.585 157.621 216.387 160.854 215.913 164.229C215.437 167.603 215.695 171.041 216.668 174.307L232.573 227.706C235.605 237.88 226.347 247.488 216.043 244.809L162.101 230.782C158.804 229.924 155.361 229.787 152.006 230.379C148.652 230.97 145.463 232.277 142.658 234.213L96.7644 265.858C87.9969 271.902 76.0141 266.043 75.3843 255.445L72.0829 199.822C71.6744 192.938 68.29 186.575 62.8128 182.388L18.5417 148.547C10.1037 142.097 11.9521 128.895 21.8606 125.01L73.7612 104.66C80.1791 102.144 85.1878 96.9603 87.4807 90.4567L106.013 37.8965Z" fill="#FFAFF3"/>
<path d="M115.692 24.1895C109.405 25.2991 103.658 29.4768 101.279 36.2238L82.7432 88.7834C80.936 93.9076 76.9943 97.9875 71.9344 99.9716L20.0317 120.322C6.71324 125.544 4.13777 143.878 15.4918 152.557L59.7629 186.394C61.8944 188.022 63.6501 190.091 64.9098 192.461C66.1694 194.83 66.9036 197.443 67.0621 200.121L70.3617 255.743C71.2082 270.013 87.8395 278.131 99.6253 270.007L99.6255 270.005L145.523 238.36V238.359C147.732 236.834 150.245 235.804 152.888 235.337C155.531 234.871 158.244 234.98 160.841 235.656L214.784 249.68C228.635 253.282 241.489 239.96 237.408 226.26V226.261L221.504 172.863C220.738 170.291 220.535 167.585 220.909 164.927C221.283 162.27 222.226 159.724 223.673 157.465V157.464L253.711 110.51L253.71 110.51C261.414 98.4675 252.73 82.1218 238.43 81.7737L182.703 80.4189C177.271 80.2869 172.173 77.8024 168.725 73.6062L133.347 30.5606C128.806 25.0354 121.978 23.0771 115.69 24.1868M117.383 33.7933C120.24 33.2891 123.36 34.2768 125.569 36.964L160.946 80.0083C166.251 86.4643 174.11 90.2918 182.458 90.495L238.185 91.8498C245.163 92.0194 248.975 99.2188 245.227 105.076L215.191 152.03C210.685 159.069 209.467 167.733 211.851 175.742L227.756 229.139C229.736 235.788 224.074 241.681 217.316 239.925L163.373 225.899C155.29 223.796 146.684 225.316 139.806 230.06L93.9095 261.705C88.1589 265.67 80.8245 262.07 80.413 255.145L77.1137 199.523C76.6187 191.178 72.5118 183.458 65.8738 178.383L21.6029 144.545C16.081 140.324 17.2037 132.254 23.7026 129.705L75.6051 109.354C83.3815 106.305 89.4581 100.018 92.2381 92.1349V92.1347L110.774 39.5752C111.931 36.2942 114.525 34.2979 117.382 33.7936" fill="#221D18"/>
<path d="M106.542 164.766C111.922 163.816 115.515 158.682 114.566 153.298C113.618 147.913 108.488 144.319 103.108 145.268C97.7276 146.218 94.1351 151.353 95.0835 156.736C96.032 162.12 101.162 165.716 106.542 164.766Z" fill="#221D18"/>
<path d="M186.24 150.702C191.62 149.753 195.213 144.618 194.263 139.234C193.316 133.85 188.185 130.255 182.805 131.205C177.426 132.154 173.833 137.289 174.781 142.673C175.73 148.057 180.86 151.652 186.24 150.702Z" fill="#221D18"/>
<path d="M158.093 165.3C157.443 165.152 156.771 165.135 156.114 165.248L140.358 167.955C139.032 168.183 137.851 168.929 137.074 170.028C136.298 171.127 135.989 172.489 136.217 173.815C136.445 175.142 137.19 176.323 138.289 177.1C139.388 177.877 140.75 178.185 142.076 177.957L157.832 175.249C159.158 175.022 160.34 174.276 161.116 173.177C161.893 172.078 162.201 170.716 161.973 169.389C161.803 168.4 161.344 167.484 160.653 166.756C159.962 166.028 159.071 165.521 158.093 165.3" fill="#221D18"/>
<path fill-rule="evenodd" clip-rule="evenodd" d="M212.135 92.0906C214.365 94.3767 216.195 95.9369 220.258 98.901L245.649 117.375C241.292 118.792 239.429 120.528 241.826 125.881C237.398 129.308 237.007 130.848 241.535 135.965C237.444 138.475 238.004 141.46 241.234 145.473C236.65 148.209 236.187 149.817 239.891 153.003C231.95 158.379 238.315 161.214 239.867 161.905C239.954 161.944 240.025 161.975 240.078 162.001L212.861 173.071C218.812 169.863 220.655 165.907 217.562 161.471C225.583 152.445 222.3 148.869 218.728 145.443C228.153 141.745 225.299 124.801 218.3 124.947C218.507 124.001 218.731 123.055 218.953 122.113C221.04 113.276 223.034 104.835 210.285 100.32C211.514 97.0605 212.076 94.3385 212.135 92.0906ZM129.829 79.2821C120.201 81.0581 117.612 87.0641 115.135 94.0924C110.756 89.1737 107.799 87.3189 99.5363 89.5478C93.619 88.0135 91.4596 89.2993 89.1402 94.6347C81.7864 94.1893 78.9778 95.4346 77.2783 101.383C70.1257 102.215 67.6365 103.448 67.1691 107.652C62.8758 107.653 60.1828 108.589 59.5221 113.256C58.8834 113.675 58.2855 114.297 57.7419 114.864C57.3934 115.226 57.0671 115.566 56.7668 115.814C56.9834 112.939 56.4799 110.013 55.377 106.341L40.3998 59.6437C59.654 47.8621 78.3217 48.4129 108.135 46.228C118.705 49.5083 125.173 47.873 132.546 41.7179C173.088 28.7919 187.783 27.3163 201.885 33.2699L205.271 75.7085C205.647 82.0492 206.372 83.1815 206.659 83.3776C205.002 82.8709 202.717 84.2248 200.665 85.4411C199.695 86.0156 198.778 86.5595 198.002 86.8619C194.836 82.0747 192.059 81.4985 186.401 82.1029C186.213 73.1048 175.224 70.6269 167.717 73.4907C161.148 70.5657 156.724 72.9222 151.218 75.8553C150.589 76.1905 149.946 76.5332 149.284 76.8764C141.344 72.0988 137.519 74.4735 129.829 79.2821ZM206.781 83.4157C206.741 83.4027 206.7 83.39 206.659 83.3776C206.736 83.4296 206.781 83.4157 206.781 83.4157ZM50.906 130.128L49.9101 131.96L32.9881 159.819C34.4604 159.418 38.4869 159.705 38.2648 165.211C45.0054 167.571 47.641 172.811 43.3715 178.107C49.0538 180.61 49.8924 181.459 47.9926 185.512C53.2155 185.519 54.7356 186.472 52.6514 191.416C57.3393 193.885 54.2762 197.385 52.2968 198.426L81.2293 198.538C79.4273 196.715 79.0735 193.414 80.5429 188.834C72.2778 187.956 70.8785 185.207 72.3352 177.503C65.6012 179.05 64.8424 174.822 64.1267 166.172C56.5838 161.366 56.1372 157.863 59.3044 150.769C54.1653 146.625 53.4594 143.791 56.034 137.834C55.7632 137.486 55.4869 137.135 55.2095 136.783C53.4189 134.509 51.5818 132.176 50.906 130.128Z" fill="#B08544"/>
<path fill-rule="evenodd" clip-rule="evenodd" d="M205.419 169.226C203.079 162.143 204.874 157.636 211.444 155.882C207.714 149.175 207.117 145.458 214.328 139.033C207.519 133.459 205.652 127.322 211.756 120.083C203.566 117.197 201.48 111.982 206.365 104.192C205.292 103.525 204.23 102.88 203.179 102.258C195.249 106.495 194.483 104.596 195.737 98.1422C188.255 101.118 185.25 100.18 187.657 94.4213C181.74 99.9954 179.324 98.9844 176.076 90.6433C171.305 94.2781 167.92 93.4888 165.536 88.8285C164.462 95.6161 161.077 94.7167 156.024 88.3694C151.549 95.2912 148.561 95.7317 147.03 88.7636C143.867 92.355 142.537 92.6384 139.545 89.5668C137.649 94.1144 134.897 96.052 130.074 91.0454C124.579 98.229 120.319 96.3627 115.785 94.3764C115.569 94.2817 115.352 94.1867 115.135 94.0924C117.612 87.0641 120.201 81.0581 129.829 79.2821C137.519 74.4735 141.344 72.0988 149.284 76.8764C149.946 76.5332 150.589 76.1905 151.218 75.8553C156.724 72.9222 161.148 70.5657 167.717 73.4907C175.224 70.6269 186.213 73.1048 186.401 82.1029C192.059 81.4985 194.836 82.0747 198.002 86.8619C198.778 86.5595 199.695 86.0156 200.665 85.4411C202.717 84.2248 205.002 82.8709 206.659 83.3776C206.736 83.4296 206.781 83.4157 206.781 83.4157C209.879 84.4112 212.265 87.0676 212.135 92.0906C212.076 94.3385 211.514 97.0605 210.285 100.32C223.034 104.835 221.04 113.276 218.953 122.113C218.731 123.055 218.507 124.001 218.3 124.947C225.299 124.801 228.153 141.745 218.728 145.443C222.3 148.869 225.583 152.445 217.562 161.471C220.655 165.907 218.812 169.863 212.861 173.071C211.481 181.602 203.105 184.074 198.931 179.363C195.99 173.467 197.538 169.832 205.419 169.226Z" fill="#F0EEFF"/>
<path fill-rule="evenodd" clip-rule="evenodd" d="M99.5363 89.5478C107.799 87.3189 110.756 89.1737 115.135 94.0924C113.31 97.6925 110.671 98.4315 107.288 96.0978C105.239 101.133 102.406 102.8 98.2394 99.2977C96.5856 103.714 95.4777 105.672 91.311 102.801C90.8738 106.18 90.2386 109.339 84.903 107.282C86.1884 113.204 86.3868 115.984 78.9578 112.851C79.8826 119.388 78.0583 122.049 72.6742 120.413C74.91 128.953 71.0227 129.84 66.8383 130.795C66.3587 130.905 65.8751 131.015 65.3964 131.138C68.2699 133.97 69.042 136.634 66.1333 139.124C71.7694 143.214 72.3245 147.05 68.0647 150.586C74.1231 154.861 73.1448 158.922 72.2419 162.669C72.1743 162.95 72.107 163.229 72.0432 163.506C79.3191 164.127 81.0193 168.285 78.3211 175.342C83.5847 176.117 87.2148 178.512 86.5295 185.251C92.8331 183.042 95.981 185.306 95.1899 192.848C101.609 188.895 107.027 195.171 103.827 199.351C101.309 202.64 94.8919 202.538 93.3049 198.382C87.6296 200.784 83.3892 200.722 81.2293 198.538C79.4273 196.715 79.0735 193.414 80.5429 188.834C72.2778 187.956 70.8785 185.207 72.3352 177.503C65.6012 179.05 64.8424 174.822 64.1267 166.172C56.5838 161.366 56.1372 157.863 59.3044 150.769C54.1653 146.625 53.4594 143.791 56.034 137.834C55.7632 137.486 55.4869 137.135 55.2095 136.783C53.4189 134.509 51.5818 132.176 50.906 130.128C50.215 128.034 50.7385 126.238 53.7681 125.109C52.662 120.542 53.392 118.597 56.7668 115.814C57.0671 115.566 57.3934 115.226 57.7419 114.864C58.2855 114.297 58.8834 113.675 59.5221 113.256C60.1828 108.589 62.8758 107.653 67.1691 107.652C67.6365 103.448 70.1257 102.215 77.2783 101.383C78.9778 95.4346 81.7864 94.1893 89.1402 94.6347C91.4596 89.2993 93.619 88.0135 99.5363 89.5478Z" fill="#F0EEFF"/>
<path fill-rule="evenodd" clip-rule="evenodd" d="M32.9881 159.819C34.4604 159.418 38.4869 159.705 38.2648 165.211C45.0054 167.571 47.641 172.811 43.3715 178.107C49.0538 180.61 49.8924 181.459 47.9926 185.512C53.2155 185.519 54.7356 186.472 52.6514 191.416C57.3393 193.885 54.2762 197.385 52.2968 198.426C52.2335 198.459 52.1645 198.495 52.0905 198.535C49.8556 199.718 43.0724 203.308 48.1661 193.829C41.6583 194.75 40.1193 193.722 43.567 187.479C36.8809 187.866 34.9728 184.8 38.536 178.208C32.3393 176.729 30.7376 173.542 34.6454 168.287C27.1771 168.943 29.0098 160.903 32.9881 159.819Z" fill="#F0EEFF"/>
<path fill-rule="evenodd" clip-rule="evenodd" d="M241.826 125.881C239.429 120.528 241.292 118.792 245.649 117.375C252.126 116.24 253.305 124.717 246.607 125.781C252.905 126.85 252.992 133.725 246.817 135.855C252.925 136.029 252.711 144.233 246.032 144.873C251.627 147.356 250.899 153.273 244.354 153.41C248.936 157.346 246.119 163.875 240.078 162.001C240.025 161.975 239.954 161.944 239.867 161.905C238.315 161.214 231.95 158.379 239.891 153.003C236.187 149.817 236.65 148.209 241.234 145.473C238.004 141.46 237.444 138.475 241.535 135.965C237.007 130.848 237.398 129.308 241.826 125.881Z" fill="#F0EEFF"/>
<path d="M212.135 92.0906C214.365 94.3767 216.195 95.9369 220.258 98.901L245.649 117.375M212.135 92.0906C212.076 94.3385 211.514 97.0605 210.285 100.32C223.034 104.835 221.04 113.276 218.953 122.113C218.731 123.055 218.507 124.001 218.3 124.947C225.299 124.801 228.153 141.745 218.728 145.443C222.3 148.869 225.583 152.445 217.562 161.471C220.655 165.907 218.812 169.863 212.861 173.071M212.135 92.0906C212.265 87.0676 209.879 84.4112 206.781 83.4157M212.135 92.0906C212.128 92.0834 212.121 92.0761 212.113 92.0688M245.649 117.375C241.292 118.792 239.429 120.528 241.826 125.881C237.398 129.308 237.007 130.848 241.535 135.965C237.444 138.475 238.004 141.46 241.234 145.473C236.65 148.209 236.187 149.817 239.891 153.003C231.95 158.379 238.315 161.214 239.867 161.905C239.954 161.944 240.025 161.975 240.078 162.001M245.649 117.375C252.126 116.24 253.305 124.717 246.607 125.781C252.905 126.85 252.992 133.725 246.817 135.855C252.925 136.029 252.711 144.233 246.032 144.873C251.627 147.356 250.899 153.273 244.354 153.41C248.936 157.346 246.119 163.875 240.078 162.001M240.078 162.001L212.861 173.071M212.861 173.071C211.481 181.602 203.105 184.074 198.931 179.363C195.99 173.467 197.538 169.832 205.419 169.226C203.079 162.143 204.874 157.636 211.444 155.882C207.714 149.175 207.117 145.458 214.328 139.033C207.519 133.459 205.652 127.322 211.756 120.083C203.566 117.197 201.48 111.982 206.365 104.192C205.292 103.525 204.23 102.88 203.179 102.258C195.249 106.495 194.483 104.596 195.737 98.1422C188.255 101.118 185.25 100.18 187.657 94.4213C181.74 99.9954 179.324 98.9844 176.076 90.6433C171.305 94.2781 167.92 93.4888 165.536 88.8285C164.462 95.6161 161.077 94.7167 156.024 88.3694C151.549 95.2912 148.561 95.7317 147.03 88.7636C143.867 92.355 142.537 92.6384 139.545 89.5668C137.649 94.1144 134.897 96.052 130.074 91.0454C124.579 98.229 120.319 96.3627 115.785 94.3764C115.569 94.2817 115.352 94.1867 115.135 94.0924M115.135 94.0924C117.612 87.0641 120.201 81.0581 129.829 79.2821C137.519 74.4735 141.344 72.0988 149.284 76.8764C149.946 76.5332 150.589 76.1905 151.218 75.8553C156.724 72.9222 161.148 70.5657 167.717 73.4907C175.224 70.6269 186.213 73.1048 186.401 82.1029C192.059 81.4985 194.836 82.0747 198.002 86.8619C198.778 86.5595 199.695 86.0156 200.665 85.4411C202.717 84.2248 205.002 82.8709 206.659 83.3776M115.135 94.0924C110.756 89.1737 107.799 87.3189 99.5363 89.5478C93.619 88.0135 91.4596 89.2993 89.1402 94.6347C81.7864 94.1893 78.9778 95.4346 77.2783 101.383C70.1257 102.215 67.6365 103.448 67.1691 107.652C62.8758 107.653 60.1828 108.589 59.5221 113.256C58.8834 113.675 58.2855 114.297 57.7419 114.864C57.3934 115.226 57.0671 115.566 56.7668 115.814M115.135 94.0924C113.31 97.6925 110.671 98.4315 107.288 96.0978C105.239 101.133 102.406 102.8 98.2394 99.2977C96.5856 103.714 95.4777 105.672 91.311 102.801C90.8738 106.18 90.2386 109.339 84.903 107.282C86.1884 113.204 86.3868 115.984 78.9578 112.851C79.8826 119.388 78.0583 122.049 72.6742 120.413C74.91 128.953 71.0227 129.84 66.8383 130.795C66.3587 130.905 65.8751 131.015 65.3964 131.138C68.2699 133.97 69.042 136.634 66.1333 139.124C71.7694 143.214 72.3245 147.05 68.0647 150.586C74.1231 154.861 73.1448 158.922 72.2419 162.669C72.1743 162.95 72.107 163.229 72.0432 163.506C79.3191 164.127 81.0193 168.285 78.3211 175.342C83.5847 176.117 87.2148 178.512 86.5295 185.251C92.8331 183.042 95.981 185.306 95.1899 192.848C101.609 188.895 107.027 195.171 103.827 199.351C101.309 202.64 94.8919 202.538 93.3049 198.382C87.6296 200.784 83.3892 200.722 81.2293 198.538M115.135 94.0924C104.524 76.8658 103.955 64.8585 108.135 46.228M56.7668 115.814C56.9834 112.939 56.4799 110.013 55.377 106.341L40.3998 59.6437C59.654 47.8621 78.3217 48.4129 108.135 46.228M56.7668 115.814C53.392 118.597 52.662 120.542 53.7681 125.109C50.7385 126.238 50.215 128.034 50.906 130.128M108.135 46.228C118.705 49.5083 125.173 47.873 132.546 41.7179C173.088 28.7919 187.783 27.3163 201.885 33.2699L205.271 75.7085C205.647 82.0492 206.372 83.1815 206.659 83.3776M206.659 83.3776C206.7 83.39 206.741 83.4027 206.781 83.4157M206.659 83.3776C206.736 83.4296 206.781 83.4157 206.781 83.4157M50.906 130.128L49.9101 131.96L32.9881 159.819M50.906 130.128C51.5818 132.176 53.4189 134.509 55.2095 136.783C55.4869 137.135 55.7632 137.486 56.034 137.834C53.4594 143.791 54.1653 146.625 59.3044 150.769C56.1372 157.863 56.5838 161.366 64.1267 166.172C64.8424 174.822 65.6012 179.05 72.3352 177.503C70.8785 185.207 72.2778 187.956 80.5429 188.834C79.0735 193.414 79.4273 196.715 81.2293 198.538M32.9881 159.819C34.4604 159.418 38.4869 159.705 38.2648 165.211C45.0054 167.571 47.641 172.811 43.3715 178.107C49.0538 180.61 49.8924 181.459 47.9926 185.512C53.2155 185.519 54.7356 186.472 52.6514 191.416C57.3393 193.885 54.2762 197.385 52.2968 198.426M32.9881 159.819C29.0098 160.903 27.1771 168.943 34.6454 168.287C30.7376 173.542 32.3393 176.729 38.536 178.208C34.9728 184.8 36.8809 187.866 43.567 187.479C40.1193 193.722 41.6583 194.75 48.1661 193.829C43.0724 203.308 49.8556 199.718 52.0905 198.535C52.1645 198.495 52.2335 198.459 52.2968 198.426M52.2968 198.426L81.2293 198.538" stroke="#221D18" stroke-width="4" stroke-linejoin="round"/>
<path d="M130.175 72.0962C129.795 74.5521 127.495 76.2347 125.039 75.8545C122.584 75.4741 120.901 73.1748 121.281 70.7189C121.662 68.2629 123.961 66.5801 126.417 66.9605C128.873 67.341 130.555 69.6402 130.175 72.0962Z" stroke="#221D18" stroke-width="4"/>
<path d="M131.634 56.1323C131.254 58.5882 128.954 60.2709 126.498 59.8906C124.043 59.5102 122.36 57.2109 122.74 54.755C123.121 52.299 125.42 50.6163 127.876 50.9967C130.332 51.3771 132.014 53.6763 131.634 56.1323Z" stroke="#221D18" stroke-width="4"/>
</svg>
