<svg width="366" height="364" viewBox="0 0 366 364" fill="none" xmlns="http://www.w3.org/2000/svg">
<path d="M142.478 64.6631C146.014 54.6349 159.159 52.3152 165.91 60.5281L201.287 103.575C205.665 108.901 212.143 112.058 219.034 112.225L274.759 113.582C285.398 113.841 291.646 125.614 285.921 134.564L255.886 181.517C254.05 184.387 252.852 187.62 252.378 190.996C251.902 194.37 252.16 197.808 253.133 201.074L269.038 254.473C272.07 264.647 262.812 274.255 252.507 271.575L198.566 257.548C195.269 256.69 191.826 256.553 188.471 257.145C185.117 257.736 181.928 259.044 179.123 260.979L133.229 292.625C124.462 298.669 112.479 292.81 111.849 282.211L108.548 226.588C108.139 219.704 104.755 213.342 99.2777 209.155L55.0066 175.313C46.5686 168.863 48.4169 155.661 58.3254 151.776L110.226 131.427C116.644 128.91 121.653 123.727 123.946 117.223L142.478 64.6631Z" fill="#FFAFF3"/>
<path d="M152.157 50.9561C145.87 52.0657 140.123 56.2434 137.743 62.9904L119.208 115.55C117.401 120.674 113.459 124.754 108.399 126.738L56.4966 147.089C43.1781 152.311 40.6026 170.645 51.9566 179.323L96.2277 213.161C98.3593 214.789 100.115 216.858 101.375 219.228C102.634 221.596 103.368 224.209 103.527 226.888L106.827 282.51C107.673 296.779 124.304 304.897 136.09 296.773L136.09 296.772L181.988 265.127V265.125C184.197 263.601 186.71 262.57 189.352 262.104C191.996 261.638 194.709 261.746 197.306 262.423L251.249 276.447C265.1 280.049 277.954 266.727 273.873 253.026V253.027L257.969 199.63C257.202 197.058 257 194.352 257.374 191.693C257.748 189.036 258.69 186.491 260.138 184.232V184.231L290.176 137.276L290.174 137.276C297.879 125.234 289.195 108.888 274.895 108.54L219.168 107.186C213.736 107.053 208.638 104.569 205.189 100.373L169.812 57.3272C165.271 51.802 158.443 49.8437 152.155 50.9534M153.847 60.5599C156.704 60.0557 159.825 61.0434 162.033 63.7306L197.411 106.775C202.716 113.231 210.575 117.058 218.923 117.262L274.65 118.616C281.628 118.786 285.44 125.985 281.692 131.842L251.656 178.797C247.15 185.836 245.931 194.499 248.316 202.508L264.221 255.905C266.201 262.555 260.539 268.448 253.781 266.691L199.838 252.666C191.754 250.563 183.148 252.083 176.271 256.826L130.374 288.472C124.624 292.437 117.289 288.837 116.878 281.911L113.579 226.289C113.084 217.945 108.977 210.224 102.339 205.149L58.0677 171.312C52.5459 167.091 53.6686 159.021 60.1674 156.472L112.07 136.121C119.846 133.072 125.923 126.785 128.703 118.902V118.901L147.238 66.3418C148.396 63.0608 150.99 61.0645 153.847 60.5602" fill="#221D18"/>
<path d="M143.007 191.532C148.387 190.582 151.98 185.448 151.031 180.065C150.083 174.68 144.953 171.085 139.573 172.035C134.192 172.985 130.6 178.119 131.548 183.503C132.497 188.886 137.627 192.482 143.007 191.532Z" fill="#221D18"/>
<path d="M222.705 177.468C228.085 176.52 231.678 171.385 230.728 166.001C229.78 160.617 224.65 157.022 219.27 157.971C213.89 158.921 210.298 164.055 211.245 169.439C212.195 174.824 217.325 178.418 222.705 177.468Z" fill="#221D18"/>
<path d="M194.558 192.066C193.908 191.919 193.235 191.901 192.579 192.014L176.823 194.722C175.497 194.95 174.316 195.695 173.539 196.794C172.763 197.893 172.454 199.256 172.682 200.582C172.91 201.908 173.655 203.09 174.754 203.867C175.853 204.643 177.215 204.952 178.541 204.724L194.297 202.016C195.623 201.788 196.804 201.043 197.581 199.944C198.358 198.845 198.666 197.482 198.438 196.156C198.268 195.167 197.809 194.251 197.118 193.523C196.427 192.795 195.536 192.288 194.558 192.066" fill="#221D18"/>
<path d="M175.9 267.973C157.536 273.48 146.874 274.803 137.79 271.156C128.635 267.48 120.568 258.573 108.148 241.75L107.327 226.988L107.32 226.865L107.301 226.742C106.775 223.373 105.98 220.752 104.55 218.412C103.132 216.091 101.2 214.227 98.7208 212.216L98.6747 212.18L88.8778 204.61C103.94 178.451 117.542 159.944 133.963 143.56C150.439 127.121 169.829 112.743 196.567 94.8952L203.734 102.527C206.028 104.988 208.137 106.801 210.709 108.038C213.277 109.273 216.108 109.838 219.69 110.135L219.749 110.14L219.809 110.142L234.282 110.649C237.114 112.9 239.846 114.95 242.424 116.874C245.211 118.953 247.799 120.875 250.19 122.781C254.976 126.594 258.794 130.212 261.504 134.525C266.791 142.941 268.285 154.729 262.235 177.494L258.963 183.234C257.294 169.125 254.447 158.24 249.308 148.881C243.242 137.831 234.12 129.155 220.594 119.783L219.893 119.296L219.04 119.341C193.787 120.662 167.462 134.084 147.924 153.682C128.383 173.283 115.314 199.389 117.146 226.329L117.201 227.126L117.707 227.744C128.755 241.208 138.377 250.035 149.566 255.653C158.981 260.381 169.341 262.752 182.294 263.873L175.9 267.973Z" fill="#FF8754" stroke="#221D18" stroke-width="5"/>
</svg>
