<svg width="326" height="333" viewBox="0 0 326 333" fill="none" xmlns="http://www.w3.org/2000/svg">
<path d="M127.004 58.9814C130.54 48.9533 143.685 46.6336 150.435 54.8464L185.813 97.8932C190.19 103.22 196.668 106.376 203.56 106.544L259.284 107.901C269.923 108.16 276.171 119.933 270.447 128.883L240.412 175.836C238.575 178.706 237.378 181.939 236.903 185.314C236.427 188.688 236.685 192.126 237.658 195.392L253.563 248.791C256.595 258.965 247.337 268.573 237.033 265.894L183.091 251.867C179.794 251.009 176.351 250.872 172.996 251.464C169.642 252.055 166.453 253.362 163.649 255.298L117.755 286.943C108.987 292.987 97.0044 287.128 96.3745 276.53L93.0732 220.907C92.6646 214.023 89.2802 207.66 83.8031 203.473L39.532 169.632C31.094 163.182 32.9423 149.98 42.8508 146.094L94.7514 125.745C101.169 123.229 106.178 118.045 108.471 111.542L127.004 58.9814Z" fill="#FFAFF3"/>
<path d="M136.682 45.2744C130.395 46.3841 124.648 50.5617 122.269 57.3088L103.733 109.868C101.926 114.993 97.9845 119.072 92.9246 121.057L41.022 141.407C27.7035 146.629 25.128 164.963 36.482 173.642L80.7531 207.479C82.8847 209.107 84.6404 211.176 85.9 213.546C87.1597 215.915 87.8939 218.528 88.0524 221.206L91.352 276.828C92.1985 291.098 108.83 299.216 120.616 291.092L120.616 291.09L166.513 259.445V259.444C168.723 257.919 171.235 256.889 173.878 256.422C176.521 255.956 179.234 256.065 181.832 256.741L235.774 270.765C249.625 274.367 262.48 261.045 258.398 247.345V247.346L242.494 193.948C241.728 191.376 241.525 188.67 241.899 186.012C242.273 183.354 243.216 180.809 244.664 178.55V178.549L274.701 131.595L274.7 131.595C282.404 119.552 273.72 103.207 259.421 102.859L203.694 101.504C198.262 101.372 193.163 98.8874 189.715 94.6911L154.337 51.6456C149.796 46.1203 142.968 44.1621 136.68 45.2718M138.373 54.8783C141.23 54.374 144.35 55.3618 146.559 58.049L181.936 101.093C187.241 107.549 195.1 111.377 203.448 111.58L259.175 112.935C266.153 113.104 269.965 120.304 266.217 126.161L236.181 173.115C231.675 180.154 230.457 188.818 232.841 196.827L248.746 250.224C250.726 256.873 245.064 262.766 238.306 261.01L184.363 246.984C176.28 244.881 167.674 246.401 160.796 251.145L114.9 282.79C109.149 286.755 101.815 283.155 101.403 276.23L98.104 220.608C97.609 212.263 93.5021 204.543 86.8641 199.468L42.5931 165.63C37.0713 161.409 38.194 153.339 44.6928 150.79L96.5953 130.439C104.372 127.39 110.448 121.103 113.228 113.22V113.22L131.764 60.6602C132.921 57.3792 135.515 55.3828 138.372 54.8786" fill="#221D18"/>
<path d="M127.532 185.851C132.913 184.901 136.505 179.767 135.557 174.383C134.608 168.998 129.478 165.404 124.098 166.353C118.718 167.303 115.125 172.438 116.074 177.821C117.022 183.205 122.153 186.801 127.532 185.851Z" fill="#221D18"/>
<path d="M207.231 171.787C212.61 170.838 216.203 165.703 215.254 160.319C214.306 154.935 209.176 151.34 203.795 152.29C198.416 153.239 194.823 158.374 195.771 163.758C196.72 169.142 201.85 172.737 207.231 171.787Z" fill="#221D18"/>
<path d="M179.083 186.385C178.433 186.237 177.761 186.22 177.104 186.333L161.348 189.04C160.022 189.268 158.841 190.014 158.064 191.113C157.288 192.212 156.98 193.574 157.208 194.9C157.435 196.227 158.181 197.408 159.279 198.185C160.378 198.962 161.74 199.27 163.067 199.042L178.823 196.334C180.149 196.107 181.33 195.361 182.106 194.262C182.883 193.163 183.191 191.801 182.963 190.474C182.793 189.485 182.334 188.569 181.643 187.841C180.953 187.113 180.062 186.606 179.083 186.385" fill="#221D18"/>
<path fill-rule="evenodd" clip-rule="evenodd" d="M122.594 287.022C107.061 297.4 94.1339 286.917 94.1864 272.686L91.6508 231.409L91.6294 230.921C90.9209 214.772 90.8495 213.145 83.0509 205.288L41.7398 174.145C31.1643 169.205 25.3848 150.051 43.4376 142.529L58.7973 136.419C62.6742 151.645 68.2784 153.756 83.5413 147.749L85.465 151.327L98.4496 175.478L103.74 185.317L111.434 199.628L99.1749 206.296L101.688 210.733L113.598 203.653L120.091 215.729L125.14 225.121L136.923 247.035L139.327 251.507C125.295 262.707 123.101 267.904 135.672 277.978L122.594 287.022Z" fill="#9DE7FF"/>
<path fill-rule="evenodd" clip-rule="evenodd" d="M99.1749 206.296L111.434 199.628L113.598 203.653L101.688 210.733L99.1749 206.296Z" fill="#9DE7FF"/>
<path fill-rule="evenodd" clip-rule="evenodd" d="M99.1749 206.296L111.434 199.628L113.598 203.653L101.688 210.733L99.1749 206.296Z" fill="black" fill-opacity="0.3"/>
<path fill-rule="evenodd" clip-rule="evenodd" d="M135.672 277.978C123.101 267.904 125.295 262.707 139.327 251.507L142.02 256.487L148.75 268.935L135.672 277.978Z" fill="#9DE7FF"/>
<path fill-rule="evenodd" clip-rule="evenodd" d="M135.672 277.978C123.101 267.904 125.295 262.707 139.327 251.507L142.02 256.487L148.75 268.935L135.672 277.978Z" fill="black" fill-opacity="0.3"/>
<path fill-rule="evenodd" clip-rule="evenodd" d="M83.5413 147.749C68.2784 153.756 62.6742 151.645 58.7973 136.419L74.157 130.309L80.6538 142.383L83.5413 147.749Z" fill="#9DE7FF"/>
<path fill-rule="evenodd" clip-rule="evenodd" d="M83.5413 147.749C68.2784 153.756 62.6742 151.645 58.7973 136.419L74.157 130.309L80.6538 142.383L83.5413 147.749Z" fill="black" fill-opacity="0.3"/>
<path fill-rule="evenodd" clip-rule="evenodd" d="M74.157 130.309L85.8737 125.925L92.3733 137.998L80.6538 142.383L74.157 130.309Z" fill="#9DE7FF"/>
<path fill-rule="evenodd" clip-rule="evenodd" d="M74.157 130.309L85.8737 125.925L92.3733 137.998L80.6538 142.383L74.157 130.309Z" fill="black" fill-opacity="0.2"/>
<path fill-rule="evenodd" clip-rule="evenodd" d="M85.465 151.327L83.5413 147.749L80.6538 142.383L92.3733 137.998L97.0221 146.995L85.465 151.327Z" fill="#9DE7FF"/>
<path fill-rule="evenodd" clip-rule="evenodd" d="M98.4496 175.478L85.465 151.327L97.0221 146.995L109.465 169.745L98.4496 175.478Z" fill="#9DE7FF"/>
<path fill-rule="evenodd" clip-rule="evenodd" d="M98.4496 175.478L85.465 151.327L97.0221 146.995L109.465 169.745L98.4496 175.478Z" fill="black" fill-opacity="0.2"/>
<path fill-rule="evenodd" clip-rule="evenodd" d="M103.74 185.317L98.4496 175.478L109.465 169.745L114.52 179.136L103.74 185.317Z" fill="#9DE7FF"/>
<path fill-rule="evenodd" clip-rule="evenodd" d="M111.434 199.628L103.74 185.317L114.52 179.136L130.595 208.995L120.091 215.729L113.598 203.653L111.434 199.628Z" fill="#9DE7FF"/>
<path fill-rule="evenodd" clip-rule="evenodd" d="M111.434 199.628L103.74 185.317L114.52 179.136L130.595 208.995L120.091 215.729L113.598 203.653L111.434 199.628Z" fill="black" fill-opacity="0.2"/>
<path fill-rule="evenodd" clip-rule="evenodd" d="M125.14 225.121L120.091 215.729L130.595 208.995L135.463 218.037L125.14 225.121Z" fill="#9DE7FF"/>
<path fill-rule="evenodd" clip-rule="evenodd" d="M136.923 247.035L125.14 225.121L135.463 218.037L147.258 239.948L136.923 247.035Z" fill="#9DE7FF"/>
<path fill-rule="evenodd" clip-rule="evenodd" d="M136.923 247.035L125.14 225.121L135.463 218.037L147.258 239.948L136.923 247.035Z" fill="black" fill-opacity="0.2"/>
<path fill-rule="evenodd" clip-rule="evenodd" d="M139.327 251.507L136.923 247.035L147.258 239.948L152.313 249.338L142.02 256.487L139.327 251.507Z" fill="#9DE7FF"/>
<path fill-rule="evenodd" clip-rule="evenodd" d="M148.75 268.935L142.02 256.487L152.313 249.338L159.054 261.858L148.75 268.935Z" fill="#9DE7FF"/>
<path fill-rule="evenodd" clip-rule="evenodd" d="M148.75 268.935L142.02 256.487L152.313 249.338L159.054 261.858L148.75 268.935Z" fill="black" fill-opacity="0.2"/>
<path d="M91.6508 231.409L94.1864 272.686C94.1339 286.917 107.061 297.4 122.594 287.022L135.672 277.978M91.6508 231.409L91.6294 230.921M91.6508 231.409C91.6436 231.245 91.6365 231.082 91.6294 230.921M91.6294 230.921C90.9209 214.772 90.8495 213.145 83.0509 205.288L41.7398 174.145C31.1643 169.205 25.3848 150.051 43.4376 142.529L58.7973 136.419M58.7973 136.419C62.6742 151.645 68.2784 153.756 83.5413 147.749M58.7973 136.419L74.157 130.309M83.5413 147.749L85.465 151.327M83.5413 147.749L80.6538 142.383M85.465 151.327L98.4496 175.478M85.465 151.327L97.0221 146.995M98.4496 175.478L103.74 185.317M98.4496 175.478L109.465 169.745M103.74 185.317L111.434 199.628M103.74 185.317L114.52 179.136M111.434 199.628L99.1749 206.296L101.688 210.733L113.598 203.653M111.434 199.628L113.598 203.653M113.598 203.653L120.091 215.729M120.091 215.729L125.14 225.121M120.091 215.729L130.595 208.995M125.14 225.121L136.923 247.035M125.14 225.121L135.463 218.037M136.923 247.035L139.327 251.507M136.923 247.035L147.258 239.948M139.327 251.507C125.295 262.707 123.101 267.904 135.672 277.978M139.327 251.507L142.02 256.487M135.672 277.978L148.75 268.935M142.02 256.487L148.75 268.935M142.02 256.487L152.313 249.338M148.75 268.935L159.054 261.858L152.313 249.338M74.157 130.309L80.6538 142.383M74.157 130.309L85.8737 125.925L92.3733 137.998M80.6538 142.383L92.3733 137.998M92.3733 137.998L97.0221 146.995M97.0221 146.995L109.465 169.745M109.465 169.745L114.52 179.136M114.52 179.136L130.595 208.995M130.595 208.995L135.463 218.037M135.463 218.037L147.258 239.948M147.258 239.948L152.313 249.338" stroke="#221D18" stroke-width="4"/>
</svg>
