<svg width="265" height="254" viewBox="0 0 265 254" fill="none" xmlns="http://www.w3.org/2000/svg">
<path d="M106.004 16.2754C109.54 6.2472 122.685 3.92751 129.435 12.1404L164.813 55.1871C169.19 60.5136 175.668 63.6698 182.56 63.8378L238.284 65.1947C248.923 65.4536 255.171 77.2265 249.447 86.1765L219.412 133.13C217.575 136 216.378 139.233 215.903 142.608C215.427 145.982 215.685 149.42 216.658 152.686L232.563 206.085C235.595 216.259 226.337 225.867 216.033 223.187L162.091 209.161C158.794 208.303 155.351 208.165 151.996 208.758C148.642 209.349 145.453 210.656 142.649 212.592L96.7547 244.237C87.9871 250.281 76.0044 244.422 75.3745 233.824L72.0732 178.201C71.6646 171.317 68.2802 164.954 62.8031 160.767L18.532 126.926C10.094 120.476 11.9423 107.274 21.8508 103.388L73.7514 83.0389C80.1693 80.5225 85.178 75.3392 87.471 68.8356L106.004 16.2754Z" fill="#FFAFF3"/>
<path d="M115.682 2.56839C109.395 3.67804 103.648 7.85566 101.269 14.6027L82.7334 67.1623C80.9263 72.2865 76.9845 76.3664 71.9246 78.3505L20.022 98.7013C6.70347 103.923 4.128 122.257 15.482 130.936L59.7531 164.773C61.8847 166.401 63.6404 168.47 64.9 170.84C66.1597 173.209 66.8939 175.822 67.0524 178.5L70.352 234.122C71.1985 248.392 87.8297 256.509 99.6155 248.385L99.6158 248.384L145.513 216.739V216.738C147.723 215.213 150.235 214.182 152.878 213.716C155.521 213.25 158.234 213.358 160.832 214.035L214.774 228.059C228.625 231.661 241.48 218.339 237.398 204.639V204.64L221.494 151.242C220.728 148.67 220.525 145.964 220.899 143.306C221.273 140.648 222.216 138.103 223.664 135.844V135.843L253.701 88.8888L253.7 88.8885C261.404 76.8464 252.72 60.5007 238.421 60.1526L182.694 58.7978C177.262 58.6658 172.163 56.1813 168.715 51.9851L133.337 8.93954C128.796 3.41429 121.968 1.45601 115.68 2.56574M117.373 12.1722C120.23 11.668 123.35 12.6558 125.559 15.3429L160.936 58.3872C166.241 64.8432 174.1 68.6707 182.448 68.8739L238.175 70.2287C245.153 70.3983 248.965 77.5977 245.217 83.4546L215.181 130.409C210.675 137.448 209.457 146.111 211.841 154.121L227.746 207.517C229.726 214.167 224.064 220.06 217.306 218.304L163.363 204.278C155.28 202.175 146.674 203.695 139.796 208.438L93.8997 240.084C88.1491 244.049 80.8147 240.449 80.4032 233.523L77.104 177.902C76.609 169.557 72.5021 161.837 65.8641 156.762L21.5931 122.924C16.0713 118.703 17.194 110.633 23.6928 108.084L75.5953 87.7332C83.3717 84.6839 89.4483 78.397 92.2284 70.5138V70.5136L110.764 17.9541C111.921 14.6731 114.515 12.6768 117.372 12.1725" fill="#221D18"/>
<path d="M106.532 143.145C111.913 142.195 115.505 137.06 114.557 131.677C113.608 126.292 108.478 122.698 103.098 123.647C97.7178 124.597 94.1253 129.732 95.0737 135.115C96.0222 140.499 101.153 144.095 106.532 143.145Z" fill="#221D18"/>
<path d="M186.231 129.081C191.61 128.132 195.203 122.997 194.254 117.613C193.306 112.229 188.176 108.634 182.795 109.584C177.416 110.533 173.823 115.668 174.771 121.052C175.72 126.436 180.85 130.031 186.231 129.081Z" fill="#221D18"/>
<path d="M158.083 143.678C157.433 143.531 156.761 143.514 156.104 143.627L140.348 146.334C139.022 146.562 137.841 147.308 137.064 148.407C136.288 149.506 135.98 150.868 136.208 152.194C136.435 153.521 137.181 154.702 138.279 155.479C139.378 156.256 140.74 156.564 142.067 156.336L157.823 153.628C159.149 153.4 160.33 152.655 161.106 151.556C161.883 150.457 162.191 149.095 161.963 147.768C161.793 146.779 161.334 145.863 160.643 145.135C159.953 144.407 159.062 143.9 158.083 143.679" fill="#221D18"/>
</svg>
