<svg width="324" height="317" viewBox="0 0 324 317" fill="none" xmlns="http://www.w3.org/2000/svg">
<path d="M136.447 39.2754C139.983 29.2472 153.128 26.9275 159.878 35.1404L195.256 78.1871C199.633 83.5136 206.112 86.6698 213.003 86.8378L268.727 88.1947C279.366 88.4536 285.614 100.227 279.89 109.177L249.855 156.13C248.018 159 246.821 162.233 246.346 165.608C245.871 168.982 246.129 172.42 247.102 175.686L263.007 229.085C266.038 239.259 256.78 248.867 246.476 246.187L192.534 232.161C189.237 231.303 185.794 231.165 182.439 231.758C179.086 232.349 175.897 233.656 173.092 235.592L127.198 267.237C118.43 273.281 106.448 267.422 105.818 256.824L102.517 201.201C102.108 194.317 98.7236 187.954 93.2464 183.767L48.9753 149.926C40.5373 143.476 42.3857 130.274 52.2942 126.388L104.195 106.039C110.613 103.523 115.621 98.3392 117.914 91.8356L136.447 39.2754Z" fill="#FFAFF3"/>
<path d="M146.125 25.5684C139.838 26.678 134.092 30.8557 131.712 37.6027L113.177 90.1623C111.37 95.2865 107.428 99.3664 102.368 101.351L50.4653 121.701C37.1468 126.923 34.5714 145.257 45.9253 153.936L90.1965 187.773C92.328 189.401 94.0837 191.47 95.3434 193.84C96.603 196.209 97.3372 198.822 97.4957 201.5L100.795 257.122C101.642 271.392 118.273 279.509 130.059 271.385L130.059 271.384L175.956 239.739V239.738C178.166 238.213 180.679 237.182 183.321 236.716C185.965 236.25 188.678 236.358 191.275 237.035L245.218 251.059C259.068 254.661 271.923 241.339 267.842 227.639V227.64L251.938 174.242C251.171 171.67 250.968 168.964 251.342 166.306C251.716 163.648 252.659 161.103 254.107 158.844V158.843L284.144 111.889L284.143 111.889C291.848 99.8464 283.164 83.5007 268.864 83.1526L213.137 81.7978C207.705 81.6658 202.606 79.1813 199.158 74.9851L163.78 31.9395C159.239 26.4143 152.411 24.456 146.124 25.5657M147.816 35.1722C150.673 34.668 153.793 35.6558 156.002 38.3429L191.379 81.3872C196.684 87.8432 204.544 91.6707 212.892 91.8739L268.618 93.2287C275.597 93.3983 279.408 100.598 275.661 106.455L245.624 153.409C241.119 160.448 239.9 169.111 242.285 177.121L258.19 230.517C260.17 237.167 254.507 243.06 247.749 241.304L193.807 227.278C185.723 225.175 177.117 226.695 170.24 231.438L124.343 263.084C118.592 267.049 111.258 263.449 110.847 256.523L107.547 200.902C107.052 192.557 102.945 184.837 96.3074 179.762L52.0365 145.924C46.5146 141.703 47.6373 133.633 54.1362 131.084L106.039 110.733C113.815 107.684 119.892 101.397 122.672 93.5138V93.5136L141.207 40.9541C142.364 37.6731 144.958 35.6768 147.816 35.1725" fill="#221D18"/>
<path d="M136.976 166.145C142.356 165.195 145.948 160.06 145 154.677C144.051 149.292 138.921 145.698 133.541 146.647C128.161 147.597 124.569 152.732 125.517 158.115C126.466 163.499 131.596 167.095 136.976 166.145Z" fill="#221D18"/>
<path d="M216.674 152.081C222.053 151.132 225.646 145.997 224.697 140.613C223.749 135.229 218.619 131.634 213.238 132.584C207.859 133.533 204.266 138.668 205.214 144.052C206.163 149.436 211.293 153.031 216.674 152.081Z" fill="#221D18"/>
<path d="M188.526 166.678C187.877 166.531 187.204 166.514 186.548 166.627L170.792 169.334C169.466 169.562 168.284 170.308 167.508 171.407C166.731 172.506 166.423 173.868 166.651 175.194C166.879 176.521 167.624 177.702 168.723 178.479C169.822 179.256 171.184 179.564 172.51 179.336L188.266 176.628C189.592 176.4 190.773 175.655 191.55 174.556C192.326 173.457 192.635 172.095 192.407 170.768C192.237 169.779 191.777 168.863 191.087 168.135C190.396 167.407 189.505 166.9 188.526 166.679" fill="#221D18"/>
<path d="M133.087 109.083C134.84 117.706 162.303 131.084 168.736 119.053C166.497 119.547 164.427 118.182 164.1 115.796C204.129 126.433 223.354 143.039 251.86 190.658L249.352 174.749C249.352 174.749 247.931 166.195 251.936 158.311C253.501 155.233 255.891 151.367 255.891 151.367C233.052 121.433 211.497 109.116 169.35 93.3869C174.125 80.282 180.99 66.6352 180.99 66.6352C171.037 58.3684 162.574 54.8855 147.997 62.2453C147.997 62.2453 144.135 71.7497 140.335 83.1659C131.464 80.3959 122.325 81.9073 117.27 84.8534C117.27 84.8534 113.289 96.2953 111.947 97.6485C105.375 104.277 93.5466 108.208 93.5466 108.208C101.011 106.682 118.999 106.451 133.087 109.083Z" fill="#FF54AF"/>
<path d="M133.087 109.083C134.84 117.706 162.303 131.084 168.736 119.053C166.497 119.547 164.427 118.182 164.1 115.796M133.087 109.083C118.999 106.451 101.011 106.682 93.5466 108.208C93.5466 108.208 105.375 104.277 111.947 97.6485C113.289 96.2953 117.27 84.8534 117.27 84.8534C122.325 81.9073 131.464 80.3959 140.335 83.1659M133.087 109.083C132.426 105.837 136.356 95.1166 140.335 83.1659M140.335 83.1659C144.135 71.7497 147.997 62.2453 147.997 62.2453C162.574 54.8855 171.037 58.3684 180.99 66.6352C180.99 66.6352 174.125 80.282 169.35 93.3869M164.1 115.796C204.129 126.433 223.354 143.039 251.86 190.658L249.352 174.749C249.352 174.749 247.931 166.195 251.936 158.311C253.501 155.233 255.891 151.367 255.891 151.367C233.052 121.433 211.497 109.116 169.35 93.3869M164.1 115.796C163.496 111.398 166.472 101.287 169.35 93.3869" stroke="#151515" stroke-width="4"/>
</svg>
