<svg width="270" height="289" viewBox="0 0 270 289" fill="none" xmlns="http://www.w3.org/2000/svg">
<path d="M106.004 51.2754C109.54 41.2472 122.685 38.9275 129.435 47.1404L164.813 90.1871C169.19 95.5136 175.668 98.6698 182.56 98.8378L238.284 100.195C248.923 100.454 255.171 112.227 249.447 121.177L219.412 168.13C217.575 171 216.378 174.233 215.903 177.608C215.427 180.982 215.685 184.42 216.658 187.686L232.563 241.085C235.595 251.259 226.337 260.867 216.033 258.187L162.091 244.161C158.794 243.303 155.351 243.165 151.996 243.758C148.642 244.349 145.453 245.656 142.649 247.592L96.7547 279.237C87.9871 285.281 76.0044 279.422 75.3745 268.824L72.0732 213.201C71.6646 206.317 68.2802 199.954 62.8031 195.767L18.532 161.926C10.094 155.476 11.9423 142.274 21.8508 138.388L73.7514 118.039C80.1693 115.523 85.178 110.339 87.471 103.836L106.004 51.2754Z" fill="#FFAFF3"/>
<path d="M115.682 37.5684C109.395 38.678 103.648 42.8557 101.269 49.6027L82.7334 102.162C80.9263 107.287 76.9845 111.366 71.9246 113.351L20.022 133.701C6.70347 138.923 4.128 157.257 15.482 165.936L59.7531 199.773C61.8847 201.401 63.6404 203.47 64.9 205.84C66.1597 208.209 66.8939 210.822 67.0524 213.5L70.352 269.122C71.1985 283.392 87.8297 291.509 99.6155 283.385L99.6158 283.384L145.513 251.739V251.738C147.723 250.213 150.235 249.182 152.878 248.716C155.521 248.25 158.234 248.358 160.832 249.035L214.774 263.059C228.625 266.661 241.48 253.339 237.398 239.639V239.64L221.494 186.242C220.728 183.67 220.525 180.964 220.899 178.306C221.273 175.648 222.216 173.103 223.664 170.844V170.843L253.701 123.889L253.7 123.889C261.404 111.846 252.72 95.5007 238.421 95.1526L182.694 93.7978C177.262 93.6658 172.163 91.1813 168.715 86.9851L133.337 43.9395C128.796 38.4143 121.968 36.456 115.68 37.5657M117.373 47.1722C120.23 46.668 123.35 47.6558 125.559 50.3429L160.936 93.3872C166.241 99.8432 174.1 103.671 182.448 103.874L238.175 105.229C245.153 105.398 248.965 112.598 245.217 118.455L215.181 165.409C210.675 172.448 209.457 181.111 211.841 189.121L227.746 242.517C229.726 249.167 224.064 255.06 217.306 253.304L163.363 239.278C155.28 237.175 146.674 238.695 139.796 243.438L93.8997 275.084C88.1491 279.049 80.8147 275.449 80.4032 268.523L77.104 212.902C76.609 204.557 72.5021 196.837 65.8641 191.762L21.5931 157.924C16.0713 153.703 17.194 145.633 23.6928 143.084L75.5953 122.733C83.3717 119.684 89.4483 113.397 92.2284 105.514V105.514L110.764 52.9541C111.921 49.6731 114.515 47.6768 117.372 47.1725" fill="#221D18"/>
<path d="M106.532 178.145C111.913 177.195 115.505 172.06 114.557 166.677C113.608 161.292 108.478 157.698 103.098 158.647C97.7178 159.597 94.1253 164.732 95.0737 170.115C96.0222 175.499 101.153 179.095 106.532 178.145Z" fill="#221D18"/>
<path d="M186.231 164.081C191.61 163.132 195.203 157.997 194.254 152.613C193.306 147.229 188.176 143.634 182.795 144.584C177.416 145.533 173.823 150.668 174.771 156.052C175.72 161.436 180.85 165.031 186.231 164.081Z" fill="#221D18"/>
<path d="M158.083 178.678C157.433 178.531 156.761 178.514 156.104 178.627L140.348 181.334C139.022 181.562 137.841 182.308 137.064 183.407C136.288 184.506 135.98 185.868 136.208 187.194C136.435 188.521 137.181 189.702 138.279 190.479C139.378 191.256 140.74 191.564 142.067 191.336L157.823 188.628C159.149 188.4 160.33 187.655 161.106 186.556C161.883 185.457 162.191 184.095 161.963 182.768C161.793 181.779 161.334 180.863 160.643 180.135C159.953 179.407 159.062 178.9 158.083 178.679" fill="#221D18"/>
<path d="M126.656 69.5476L116.163 71.5859L106.088 51.1226L114.541 38.0916L128.074 47.0422L126.656 69.5476Z" fill="#FFE054"/>
<path fill-rule="evenodd" clip-rule="evenodd" d="M124.212 85.0566L114.163 81.7475L116.163 71.5859L126.656 69.5476L132.32 78.732L124.212 85.0566Z" fill="#FFE054"/>
<path fill-rule="evenodd" clip-rule="evenodd" d="M124.212 85.0566C106.718 86.6205 77.2583 97.7282 58.8588 125.296L49.295 107.83L96.6778 75.6571L114.163 81.7475L124.212 85.0566Z" fill="#FEFEFC"/>
<path fill-rule="evenodd" clip-rule="evenodd" d="M200.003 100.6C173.316 80.9466 141.194 80.5692 124.212 85.0566L132.32 78.732L145.646 66.9782L202.202 82.2718L200.003 100.6Z" fill="#FEFEFC"/>
<path d="M126.656 69.5476L116.163 71.5859M126.656 69.5476L128.074 47.0422L114.541 38.0916L106.088 51.1226L116.163 71.5859M126.656 69.5476L132.32 78.732M116.163 71.5859L114.163 81.7475M124.212 85.0566L114.163 81.7475M124.212 85.0566L132.32 78.732M124.212 85.0566C106.718 86.6205 77.2583 97.7282 58.8588 125.296L49.295 107.83L96.6778 75.6571L114.163 81.7475M124.212 85.0566C141.194 80.5692 173.316 80.9466 200.003 100.6L202.202 82.2718L145.646 66.9782L132.32 78.732" stroke="#221D18" stroke-width="4"/>
</svg>
