<svg width="88" height="75" viewBox="0 0 88 75" fill="none" xmlns="http://www.w3.org/2000/svg">
<path d="M84.0362 31.5C79.0645 45.3167 44.2622 72.5 44.2622 72.5C44.2622 72.5 8.93554 45.3167 3.96378 31.5C-1.00797 17.6833 6.94683 2.50046 23.8508 2.5009C40.7548 2.50133 44.2622 20 44.2622 20C44.2622 20 47.2452 2.50043 64.1492 2.5C81.0532 2.49957 89.008 17.6833 84.0362 31.5Z" fill="#FFDDFA"/>
<path d="M45.8005 74.4707C44.9015 75.1726 43.641 75.177 42.7371 74.4814L44.2615 72.5L45.8005 74.4707ZM64.1492 4.25329e-09C73.4196 -0.000154387 80.4519 4.20291 84.4109 10.4854C88.3333 16.7101 89.114 24.7723 86.3884 32.3467C84.9726 36.2812 81.5813 40.8734 77.5984 45.3887C73.5536 49.974 68.6653 54.7349 63.9714 59.0264C59.2714 63.3235 54.7331 67.1813 51.3718 69.9629C49.6902 71.3545 48.3001 72.4784 47.3298 73.2559C46.845 73.6443 46.4649 73.9467 46.2048 74.1523C46.0748 74.2552 45.9739 74.3343 45.906 74.3877C45.8723 74.4142 45.8465 74.4344 45.8289 74.4482C45.82 74.4551 45.813 74.4602 45.8084 74.4639C45.8061 74.4657 45.8048 74.4678 45.8035 74.4688L45.8015 74.4697C45.8006 74.4694 45.7714 74.4331 44.2615 72.5C42.8266 74.3648 42.7424 74.4743 42.7371 74.4805L42.7351 74.4795C42.7338 74.4785 42.7316 74.4774 42.7293 74.4756C42.7245 74.4719 42.7177 74.4659 42.7087 74.459C42.6908 74.4452 42.6648 74.4249 42.6306 74.3984C42.5617 74.3451 42.4598 74.2668 42.3279 74.1641C42.0639 73.9585 41.6776 73.6562 41.1853 73.2676C40.2006 72.4902 38.791 71.3652 37.0847 69.9736C33.6741 67.1922 29.0695 63.3351 24.3035 59.0381C19.5438 54.7468 14.5882 49.9861 10.4929 45.4004C6.4619 40.8866 3.03012 36.2901 1.61109 32.3467C-1.11444 24.7723 -0.333786 16.7108 3.58863 10.4863C7.54758 4.20391 14.5798 0.000821584 23.8503 0.000976567C33.3391 0.0012206 39.1373 4.9785 42.4597 9.83984C43.1218 10.8086 43.6864 11.7756 44.1687 12.7002C44.6193 11.7885 45.1497 10.837 45.7732 9.88281C48.9689 4.99226 54.648 0.000244364 64.1492 4.25329e-09ZM64.1492 5C56.7464 5.00019 52.4816 8.75883 49.9597 12.6182C48.6794 14.5775 47.8613 16.5554 47.365 18.0527C47.1183 18.797 46.9545 19.4113 46.8543 19.8301C46.8042 20.039 46.7703 20.1985 46.7498 20.2998C46.7395 20.3504 46.733 20.3868 46.7293 20.4072L46.7253 20.4258C46.5206 21.6105 45.5013 22.4824 44.2986 22.5C43.0938 22.5175 42.0471 21.6727 41.8103 20.4912H41.8093C41.8086 20.488 41.8086 20.4831 41.8074 20.4775C41.8029 20.4569 41.7948 20.4208 41.783 20.3701C41.7593 20.2683 41.7203 20.1082 41.6638 19.8984C41.5506 19.4784 41.3682 18.8617 41.0984 18.1152C40.5559 16.6144 39.676 14.6293 38.3308 12.6611C35.6735 8.77313 31.2654 5.00117 23.8503 5.00098C16.2171 5.00082 10.8205 8.38937 7.8191 13.1523C4.78121 17.9733 4.07003 24.4111 6.31617 30.6533C7.38305 33.6182 10.2315 37.6014 14.2224 42.0703C18.1491 46.4673 22.9578 51.0928 27.6511 55.3242C32.3381 59.55 36.8764 63.3525 40.2449 66.0996C41.9086 67.4564 43.2847 68.5542 44.2498 69.3164C45.2 68.5547 46.5513 67.461 48.1834 66.1104C51.5028 63.3633 55.9755 59.5616 60.5974 55.3359C65.2256 51.1045 69.9704 46.4785 73.8494 42.0811C77.7899 37.6137 80.6133 33.627 81.6834 30.6533C83.9295 24.4111 83.2184 17.9726 80.1804 13.1514C77.1789 8.38824 71.7823 4.99985 64.1492 5Z" fill="#221D18"/>
</svg>
