<svg width="181" height="173" viewBox="0 0 181 173" fill="none" xmlns="http://www.w3.org/2000/svg">
<path fill-rule="evenodd" clip-rule="evenodd" d="M165.415 70.4501L88.3324 37.1505V31.6009C88.3324 31.6009 108.066 28.5168 108.066 38.3834C116.497 42.331 126.483 45.4335 136.24 48.4653C157.862 55.1833 178.365 61.5536 178.365 76.0004C173.278 73.904 165.415 70.4501 165.415 70.4501Z" fill="#584355"/>
<path fill-rule="evenodd" clip-rule="evenodd" d="M88.3324 31.6009V37.1505L13.7165 70.4501C13.7165 70.4501 6.5936 73.8713 2 76.0004C2.00044 61.9767 21.2441 55.5314 41.7431 48.6656C50.9901 45.5685 60.4925 42.3858 68.5993 38.3834C68.5993 28.5168 88.3324 31.6009 88.3324 31.6009Z" fill="#584355"/>
<path d="M165.415 70.4501L88.3324 37.1505M165.415 70.4501C165.415 70.4501 173.278 73.904 178.365 76.0004C178.365 61.5536 157.862 55.1833 136.24 48.4653C126.483 45.4335 116.497 42.331 108.066 38.3834C108.066 28.5168 88.3324 31.6009 88.3324 31.6009M165.415 70.4501H13.7166M88.3324 37.1505V31.6009M88.3324 37.1505L13.7166 70.4501M88.3324 31.6009C88.3324 31.6009 68.5993 28.5168 68.5993 38.3834C60.4925 42.3858 50.9901 45.5685 41.7431 48.6656C21.2441 55.5314 2.00044 61.9767 2 76.0004C6.5936 73.8713 13.7166 70.4501 13.7166 70.4501M88.3324 31.6009V24.2002" stroke="#221D18" stroke-width="4" stroke-linejoin="round"/>
<path d="M74.6152 13.7165C74.6152 14.8211 75.5107 15.7165 76.6152 15.7165C77.7198 15.7165 78.6152 14.8211 78.6152 13.7165H76.6152H74.6152ZM76.6152 13.7165H78.6152C78.6152 8.35023 82.9654 4 88.3317 4V2V0C80.7563 0 74.6152 6.14112 74.6152 13.7165H76.6152ZM100.048 13.7165H98.0483C98.0483 16.1263 96.5976 18.5308 94.1584 20.4203C91.7292 22.3022 88.6059 23.4331 85.8651 23.4331V25.4331V27.4331C89.5953 27.4331 93.5635 25.9411 96.6081 23.5825C99.6429 21.2315 102.048 17.7777 102.048 13.7165H100.048ZM88.3317 2V4C93.698 4 98.0483 8.35025 98.0483 13.7165H100.048H102.048C102.048 6.14111 95.9072 0 88.3317 0V2Z" fill="#221D18"/>
<path fill-rule="evenodd" clip-rule="evenodd" d="M68 134.5L81 68.4997L79.3928 101L75 135.5L71 138L68 134.5Z" fill="#FFE054"/>
<path fill-rule="evenodd" clip-rule="evenodd" d="M68 134.5L81 68.4997L79.3928 101L75 135.5L71 138L68 134.5Z" fill="black" fill-opacity="0.4"/>
<path fill-rule="evenodd" clip-rule="evenodd" d="M79.3928 101L81 68.4997C85.8059 66.1644 88.373 66.2319 93 68.4997L101.5 159.5L90 171L76.5 159.5L79.3928 101Z" fill="#FFE054"/>
<path d="M81 68.4997L68 134.5L71 138L75 135.5L79.3928 101M81 68.4997L79.3928 101M81 68.4997C85.8059 66.1644 88.373 66.2319 93 68.4997L101.5 159.5L90 171L76.5 159.5L79.3928 101" stroke="#221D18" stroke-width="4" stroke-linejoin="round"/>
</svg>
