<svg width="153" height="267" viewBox="0 0 153 267" fill="none" xmlns="http://www.w3.org/2000/svg">
<path fill-rule="evenodd" clip-rule="evenodd" d="M30.1594 76.6508C32.3808 73.8638 34.4437 71.2757 32.9608 67.1522C32.3625 65.8528 32.2005 63.6341 31.9599 61.5C36.7497 63.2391 40.1712 65.3096 42.4688 67.1522C50.4756 73.2391 46.4722 78.8913 41.9684 83.2391C39.9667 86.7174 27.3337 96.7174 40.9675 100.196C35.9633 100.63 30.959 99.3261 27.8342 97.587C26.2985 92.1611 25.6353 87.0178 26.4547 83.2391C27.0321 80.5742 28.6332 78.5655 30.1594 76.6508Z" fill="#D7D1FA"/>
<path fill-rule="evenodd" clip-rule="evenodd" d="M69.4917 72.8043C60.9845 72.8043 54.9794 79.7609 54.9794 81.9348C54.9794 84.9783 62.4858 90.1956 69.4917 90.1956C81.0015 90.6304 84.5044 84.9783 84.5044 81.9348C84.5044 76.9448 77.9989 72.8043 69.4917 72.8043Z" fill="#D7D1FA"/>
<path fill-rule="evenodd" clip-rule="evenodd" d="M43.9701 100.196L40.9675 101.065C46.8494 104.917 49.9752 104.543 51.9768 99.7609C48.2151 102.059 46.4722 102.37 43.9701 100.196Z" fill="#D7D1FA"/>
<path fill-rule="evenodd" clip-rule="evenodd" d="M42.4688 109.761C42.4688 107.152 40.4671 106.283 35.4628 108.022C39.9667 114.543 44.9709 113.674 52.4773 113.239C52.9605 113.177 53.972 112.868 54.479 112.804C48.0408 108.439 45.0281 107.091 42.4688 109.761Z" fill="#D7D1FA"/>
<path fill-rule="evenodd" clip-rule="evenodd" d="M38.9658 118.022C41.4679 114.978 44.4705 116.283 45.9718 120.196C42.9692 118.891 41.9684 117.587 38.9658 118.022Z" fill="#D7D1FA"/>
<path fill-rule="evenodd" clip-rule="evenodd" d="M107.024 81.9348C110.916 77.2184 113.529 76.7174 117.532 79.3261C113.435 79.4025 111.027 79.7609 107.024 81.9348Z" fill="#D7D1FA"/>
<path fill-rule="evenodd" clip-rule="evenodd" d="M105.522 80.1956C110.468 72.2389 113.529 70.6304 118.533 74.9783C122.036 78.4565 123.037 82.3696 118.533 94.8014C113.029 99.7609 108.866 101.893 104.521 101.5C126.54 95.8478 122.537 60.6304 105.522 80.1956Z" fill="#D7D1FA"/>
<path fill-rule="evenodd" clip-rule="evenodd" d="M102.539 116.283L103.52 152.37C103.52 160.196 92.0108 163.674 78.9998 163.674C91.0099 161.935 97.0228 159.992 99.0167 154.109L98.5163 126.717C97.0806 127.625 95.7142 128.505 94.396 129.354C83.5667 136.329 75.9911 141.209 59.9832 141.935V136.717V133.513C78.1317 133.583 93.3769 124.259 102.539 116.283Z" fill="#D7D1FA"/>
<path fill-rule="evenodd" clip-rule="evenodd" d="M149.559 212.804C154.564 223.239 144.055 227.152 139.05 227.587C126.301 229.459 107.689 225.565 88.5078 218.838C84.008 217.26 79.477 215.526 74.9829 213.674C45.2461 201.419 17.1311 183.994 10.4412 172.37C7.37329 167.943 6.8782 165.467 9.94073 161.065C30.959 197.152 135.047 231.935 149.559 212.804Z" fill="#D7D1FA"/>
<path fill-rule="evenodd" clip-rule="evenodd" d="M78.9998 163.674C92.0108 163.674 103.52 160.196 103.52 152.37C128.09 169.768 137.101 184.024 149.559 212.804C135.047 231.935 30.959 197.152 9.94073 161.065C14.445 155.413 31.9599 138.457 59.9832 136.717V141.935C75.9911 141.209 83.5667 136.329 94.396 129.354C95.7142 128.505 97.0806 127.625 98.5163 126.717L99.0167 154.109C97.0228 159.992 91.0099 161.935 78.9998 163.674Z" fill="#F0EEFF"/>
<path fill-rule="evenodd" clip-rule="evenodd" d="M42.4688 67.1522C40.1712 65.3096 36.7497 63.2391 31.9599 61.5C30.1877 45.7812 39.384 11.5 83.0031 11.5C110.088 11.5 132.045 32.3696 132.045 53.2391C132.045 62.4238 130.258 74.0919 118.533 94.8014C123.037 82.3696 122.036 78.4565 118.533 74.9783C113.529 70.6304 110.468 72.2389 105.522 80.1956C122.537 60.6304 126.54 95.8478 104.521 101.5C108.866 101.893 113.029 99.7609 118.533 94.8014C116.382 98.6005 113.897 102.704 111.027 107.152C109.703 109.204 106.77 112.6 102.539 116.283C93.3769 124.259 78.1317 133.583 59.9832 133.513C54.5443 133.492 48.8448 132.628 42.9701 130.63C38.3852 128.923 37.8723 125.284 37.3642 121.678C37.0958 119.774 36.8288 117.879 35.9641 116.283C32.7051 110.857 29.6558 104.023 27.8342 97.587C30.959 99.3261 35.9633 100.63 40.9675 100.196C30.003 97.3984 36.0269 90.383 39.8471 85.9341C40.7771 84.8511 41.5765 83.9201 41.9684 83.2391C46.4722 78.8913 50.4756 73.2391 42.4688 67.1522ZM69.4917 72.8043C60.9845 72.8043 54.9794 79.7609 54.9794 81.9348C54.9794 84.9783 62.4858 90.1956 69.4917 90.1956C81.0015 90.6304 84.5044 84.9783 84.5044 81.9348C84.5044 76.9448 77.9989 72.8043 69.4917 72.8043ZM51.9768 99.7609C48.2151 102.059 46.4722 102.37 43.9701 100.196L40.9675 101.065C46.8494 104.917 49.9752 104.543 51.9768 99.7609ZM42.4688 109.761C42.4688 107.152 40.4671 106.283 35.4628 108.022C39.63 114.056 44.2256 113.763 50.8352 113.341C51.3691 113.307 51.9162 113.272 52.4773 113.239C52.7143 113.209 53.0783 113.119 53.4477 113.028C53.8313 112.933 54.2207 112.837 54.479 112.804C48.0408 108.439 45.0281 107.091 42.4688 109.761ZM45.9718 120.196C44.4705 116.283 41.4679 114.978 38.9658 118.022C41.1419 117.707 42.2666 118.305 43.8638 119.155C44.4705 119.478 45.1453 119.837 45.9718 120.196ZM107.024 81.9348C110.916 77.2184 113.529 76.7174 117.532 79.3261C113.435 79.4025 111.027 79.7609 107.024 81.9348Z" fill="#F0EEFF"/>
<path fill-rule="evenodd" clip-rule="evenodd" d="M88.5078 238.269C88.5078 242.641 74.9829 242.641 74.9829 238.269V223.405V213.787C79.477 215.65 84.008 217.393 88.5078 218.98V223.405V238.269Z" fill="#584355"/>
<path fill-rule="evenodd" clip-rule="evenodd" d="M88.5078 238.269C88.5078 242.641 74.9829 242.641 74.9829 238.269V223.405V213.787C79.477 215.65 84.008 217.393 88.5078 218.98V223.405V238.269Z" fill="#FEFEFC" fill-opacity="0.2"/>
<path fill-rule="evenodd" clip-rule="evenodd" d="M45.4713 238.269L82.0023 257.068V264.5L45.4713 245.264V238.269Z" fill="#584355"/>
<path fill-rule="evenodd" clip-rule="evenodd" d="M45.4713 238.269L82.0023 257.068V264.5L45.4713 245.264V238.269Z" fill="#FEFEFC" fill-opacity="0.2"/>
<path fill-rule="evenodd" clip-rule="evenodd" d="M82.0023 257.068L118.033 238.269V245.264L82.0023 264.5V257.068Z" fill="#584355"/>
<path fill-rule="evenodd" clip-rule="evenodd" d="M74.9829 238.269C74.9829 242.641 88.5078 242.641 88.5078 238.269V223.405L118.033 238.269L82.0023 257.068L45.4713 238.269L74.9829 223.405V238.269Z" fill="#584355"/>
<path fill-rule="evenodd" clip-rule="evenodd" d="M74.9829 238.269C74.9829 242.641 88.5078 242.641 88.5078 238.269V223.405L118.033 238.269L82.0023 257.068L45.4713 238.269L74.9829 223.405V238.269Z" fill="#FEFEFC" fill-opacity="0.4"/>
<path d="M74.9829 223.405V238.269C74.9829 242.641 88.5078 242.641 88.5078 238.269V223.405M74.9829 223.405V213.787M74.9829 223.405L45.4713 238.269M74.9829 213.787C79.477 215.65 84.0081 217.393 88.5078 218.98M74.9829 213.787C45.2461 201.465 17.1311 183.944 10.4412 172.256C7.37329 167.805 6.8782 165.315 9.94073 160.889C14.445 155.206 31.9599 138.156 59.9832 136.407V133.185M88.5078 218.98V223.405M88.5078 218.98C107.689 225.744 126.301 229.66 139.05 227.777C144.055 227.34 154.564 223.405 149.559 212.913C137.101 183.975 128.09 169.64 103.52 152.145L102.539 115.86M88.5078 223.405L118.033 238.269M45.4713 238.269L82.0023 257.068M45.4713 238.269V245.264L82.0023 264.5M82.0023 257.068V264.5M82.0023 257.068L118.033 238.269M82.0023 264.5L118.033 245.264V238.269M102.539 115.86C106.77 112.156 109.703 108.742 111.027 106.679C129.542 77.8253 132.045 63.3985 132.045 52.469C132.045 31.4845 110.088 10.5 83.0031 10.5C33.4619 10.5 27.9561 55.5293 32.9608 66.4587C35.4626 73.4535 27.8726 76.0543 26.4547 82.6342C24.6633 90.9406 29.9577 105.805 35.9641 115.86C38.4662 120.504 35.9641 127.664 42.9701 130.287C48.8448 132.295 54.5444 133.164 59.9832 133.185M102.539 115.86C93.3769 123.88 78.1317 133.255 59.9832 133.185" stroke="#221D18" stroke-width="4" stroke-linejoin="round"/>
<path fill-rule="evenodd" clip-rule="evenodd" d="M130.865 75.3647C119.485 73.389 107.947 69.0375 95.5246 62.5158C103.834 39.1037 105.819 9.95466 88.9886 3.46718C115.512 8.9343 139.279 34.4045 130.865 75.3647Z" fill="#C8FFA7"/>
<path fill-rule="evenodd" clip-rule="evenodd" d="M130.865 75.3647C119.485 73.389 107.947 69.0375 95.5246 62.5158C103.834 39.1037 105.819 9.95466 88.9886 3.46718C115.512 8.9343 139.279 34.4045 130.865 75.3647Z" fill="black" fill-opacity="0.2"/>
<path fill-rule="evenodd" clip-rule="evenodd" d="M7.2105 40.3516C15.924 37.0086 24.5664 36.0764 33.1061 36.7864C50.9697 38.2716 68.679 47.9352 85.4554 57.0898C88.8522 58.9434 92.2108 60.7761 95.5246 62.5158C57.7937 72.7092 50.3819 65.3046 41.3793 56.3106C38.7692 53.7031 36.0254 50.9619 32.3703 48.4773C26.8972 44.757 19.3813 41.6118 7.2105 40.3516Z" fill="#C8FFA7"/>
<path fill-rule="evenodd" clip-rule="evenodd" d="M88.9886 3.46718C105.819 9.95466 103.834 39.1037 95.5246 62.5158C92.2108 60.7761 88.8522 58.9434 85.4554 57.0898C68.679 47.9352 50.9697 38.2716 33.1061 36.7864C41.2275 8.89947 66.1317 -1.24418 88.9886 3.46718Z" fill="#C8FFA7"/>
<path fill-rule="evenodd" clip-rule="evenodd" d="M32.3703 48.4773C26.8972 44.757 19.3813 41.6118 7.2105 40.3516C-9.14491 47.7753 20.2803 72.3355 32.3703 48.4773Z" fill="#C8FFA7"/>
<path fill-rule="evenodd" clip-rule="evenodd" d="M32.3703 48.4773C26.8972 44.757 19.3813 41.6118 7.2105 40.3516C-9.14491 47.7753 20.2803 72.3355 32.3703 48.4773Z" fill="black" fill-opacity="0.5"/>
<path d="M95.5246 62.5158C107.947 69.0375 119.485 73.389 130.865 75.3647C139.279 34.4045 115.512 8.9343 88.9886 3.46718M95.5246 62.5158C103.834 39.1037 105.819 9.95466 88.9886 3.46718M95.5246 62.5158C92.2108 60.7761 88.8522 58.9434 85.4554 57.0898C68.679 47.9352 50.9697 38.2716 33.1061 36.7864M95.5246 62.5158C57.7937 72.7093 50.3819 65.3046 41.3793 56.3106C38.7692 53.7031 36.0254 50.9619 32.3703 48.4773M88.9886 3.46718C66.1317 -1.24418 41.2275 8.89947 33.1061 36.7864M7.2105 40.3516C15.924 37.0086 24.5664 36.0764 33.1061 36.7864M7.2105 40.3516C19.3813 41.6118 26.8972 44.757 32.3703 48.4773M7.2105 40.3516C-9.14491 47.7753 20.2803 72.3355 32.3703 48.4773" stroke="#221D18" stroke-width="4" stroke-linejoin="round"/>
<path d="M58.524 18.1187C58.67 17.6974 59.2114 17.6028 59.4901 17.9411L62.2615 21.3104C62.6967 21.8395 63.3401 22.1527 64.0238 22.1669L68.367 22.2565C68.8012 22.2655 69.0711 22.7539 68.8314 23.1346L66.5045 26.8292C66.3242 27.1156 66.2082 27.4381 66.1627 27.7739C66.1284 28.0257 66.1348 28.2809 66.1813 28.5297L66.2409 28.7765L67.4971 32.9641C67.6266 33.3959 67.238 33.7915 66.8184 33.6835L62.6089 32.5982C62.3635 32.5349 62.1101 32.5127 61.8586 32.5308L61.6077 32.562C61.2753 32.6223 60.9595 32.7543 60.6825 32.9484L57.1154 35.4465C56.7583 35.6965 56.2601 35.4614 56.2318 35.0134L55.9564 30.6473C55.9132 29.9633 55.5771 29.3308 55.0334 28.9154L51.5715 26.2725C51.2189 26.0033 51.2962 25.4481 51.7052 25.2847L55.7437 23.6715C56.3788 23.4178 56.8715 22.8989 57.0954 22.2512L58.524 18.1187Z" fill="#FFAFF3" stroke="#221D18"/>
</svg>
