<svg width="182" height="214" viewBox="0 0 182 214" fill="none" xmlns="http://www.w3.org/2000/svg">
<path fill-rule="evenodd" clip-rule="evenodd" d="M166.415 70.4501L89.3324 37.1505V31.6009C89.3324 31.6009 109.066 28.5168 109.066 38.3834C117.497 42.331 127.483 45.4335 137.24 48.4653C158.862 55.1833 179.365 61.5536 179.365 76.0004C174.278 73.904 166.415 70.4501 166.415 70.4501Z" fill="#584355"/>
<path fill-rule="evenodd" clip-rule="evenodd" d="M89.3324 31.6009V37.1505L14.7165 70.4501C14.7165 70.4501 7.5936 73.8713 3 76.0004C3.00044 61.9767 22.2441 55.5314 42.7431 48.6656C51.9901 45.5685 61.4925 42.3858 69.5993 38.3834C69.5993 28.5168 89.3324 31.6009 89.3324 31.6009Z" fill="#584355"/>
<path d="M166.415 70.4501L89.3324 37.1505M166.415 70.4501C166.415 70.4501 174.278 73.904 179.365 76.0004C179.365 61.5536 158.862 55.1833 137.24 48.4653C127.483 45.4335 117.497 42.331 109.066 38.3834C109.066 28.5168 89.3324 31.6009 89.3324 31.6009M166.415 70.4501H14.7166M89.3324 37.1505V31.6009M89.3324 37.1505L14.7166 70.4501M89.3324 31.6009C89.3324 31.6009 69.5993 28.5168 69.5993 38.3834C61.4925 42.3858 51.9901 45.5685 42.7431 48.6656C22.2441 55.5314 3.00044 61.9767 3 76.0004C7.5936 73.8713 14.7166 70.4501 14.7166 70.4501M89.3324 31.6009V24.2002" stroke="#221D18" stroke-width="4" stroke-linejoin="round"/>
<path d="M75.6152 13.7165C75.6152 14.8211 76.5107 15.7165 77.6152 15.7165C78.7198 15.7165 79.6152 14.8211 79.6152 13.7165H77.6152H75.6152ZM77.6152 13.7165H79.6152C79.6152 8.35023 83.9654 4 89.3317 4V2V0C81.7563 0 75.6152 6.14112 75.6152 13.7165H77.6152ZM101.048 13.7165H99.0483C99.0483 16.1263 97.5976 18.5308 95.1584 20.4203C92.7292 22.3022 89.6059 23.4331 86.8651 23.4331V25.4331V27.4331C90.5953 27.4331 94.5635 25.9411 97.6081 23.5825C100.643 21.2315 103.048 17.7777 103.048 13.7165H101.048ZM89.3317 2V4C94.698 4 99.0483 8.35025 99.0483 13.7165H101.048H103.048C103.048 6.14111 96.9072 0 89.3317 0V2Z" fill="#221D18"/>
<path d="M114.5 40C108 64 75.5 66.5 64.5 40C51.999 47.5 0.999723 55 3.00065 77C4.0006 86 4.00065 101.5 4.00065 101.5C13.7617 95.9738 19.2383 97.9306 29.0006 101.5L36 88.5L32 197.5C95.9697 217.25 135.31 214.701 154.001 195.5L150.5 88.5L154.001 101.5C163.353 98.7624 168.981 98.8581 179.501 101.5C179.501 101.5 176.547 87 179.501 77C186 55 124.5 46.9999 114.5 40Z" fill="#FF8754" stroke="#221D18" stroke-width="4" stroke-linejoin="round"/>
</svg>
