<svg width="181" height="289" viewBox="0 0 181 289" fill="none" xmlns="http://www.w3.org/2000/svg" xmlns:xlink="http://www.w3.org/1999/xlink">
<path fill-rule="evenodd" clip-rule="evenodd" d="M165.415 70.4501L88.3324 37.1505V31.6009C88.3324 31.6009 108.066 28.5168 108.066 38.3834C116.497 42.331 126.483 45.4335 136.24 48.4653C157.862 55.1833 178.365 61.5536 178.365 76.0004C173.278 73.904 165.415 70.4501 165.415 70.4501Z" fill="#584355"/>
<path fill-rule="evenodd" clip-rule="evenodd" d="M88.3324 31.6009V37.1505L13.7165 70.4501C13.7165 70.4501 6.5936 73.8713 2 76.0004C2.00044 61.9767 21.2441 55.5314 41.7431 48.6656C50.9901 45.5685 60.4925 42.3858 68.5993 38.3834C68.5993 28.5168 88.3324 31.6009 88.3324 31.6009Z" fill="#584355"/>
<path d="M165.415 70.4501L88.3324 37.1505M165.415 70.4501C165.415 70.4501 173.278 73.904 178.365 76.0004C178.365 61.5536 157.862 55.1833 136.24 48.4653C126.483 45.4335 116.497 42.331 108.066 38.3834C108.066 28.5168 88.3324 31.6009 88.3324 31.6009M165.415 70.4501H13.7166M88.3324 37.1505V31.6009M88.3324 37.1505L13.7166 70.4501M88.3324 31.6009C88.3324 31.6009 68.5993 28.5168 68.5993 38.3834C60.4925 42.3858 50.9901 45.5685 41.7431 48.6656C21.2441 55.5314 2.00044 61.9767 2 76.0004C6.5936 73.8713 13.7166 70.4501 13.7166 70.4501M88.3324 31.6009V24.2002" stroke="#221D18" stroke-width="4" stroke-linejoin="round"/>
<path d="M74.6152 13.7165C74.6152 14.8211 75.5107 15.7165 76.6152 15.7165C77.7198 15.7165 78.6152 14.8211 78.6152 13.7165H76.6152H74.6152ZM76.6152 13.7165H78.6152C78.6152 8.35023 82.9654 4 88.3317 4V2V0C80.7563 0 74.6152 6.14112 74.6152 13.7165H76.6152ZM100.048 13.7165H98.0483C98.0483 16.1263 96.5976 18.5308 94.1584 20.4203C91.7292 22.3022 88.6059 23.4331 85.8651 23.4331V25.4331V27.4331C89.5953 27.4331 93.5635 25.9411 96.6081 23.5825C99.6429 21.2315 102.048 17.7777 102.048 13.7165H100.048ZM88.3317 2V4C93.698 4 98.0483 8.35025 98.0483 13.7165H100.048H102.048C102.048 6.14111 95.9072 0 88.3317 0V2Z" fill="#221D18"/>
<path d="M66 38C53.6252 66.1277 41.1935 75.187 39.4397 103.608C56.9229 91.9339 70.5 95 88 108.5C103.5 95.5 115.55 94.1287 133.82 103.608C134.994 75.4753 117.743 66.3803 110.5 38C126.534 62.1415 137.958 70.5189 140.5 103.608C142.079 124.165 132.921 135.784 129.325 147.403C159.886 242.144 133.82 238.569 150 273.426C131.123 313.646 70.0003 249.294 25.9567 273.426C-9.4522 236.694 52.921 174.217 45.7301 147.403C43.6158 136.678 30.5704 126.846 33.5 103.608C37.6405 70.7652 45.292 61.925 65.9454 38.0631L66 38Z" fill="#944BFA"/>
<path d="M66 38C53.6252 66.1277 41.1935 75.187 39.4397 103.608C56.9229 91.9339 70.5 95 88 108.5C103.5 95.5 115.55 94.1287 133.82 103.608C134.994 75.4753 117.743 66.3803 110.5 38C126.534 62.1415 137.958 70.5189 140.5 103.608C142.079 124.165 132.921 135.784 129.325 147.403C159.886 242.144 133.82 238.569 150 273.426C131.123 313.646 70.0003 249.294 25.9567 273.426C-9.4522 236.694 52.921 174.217 45.7301 147.403C43.6158 136.678 30.5704 126.846 33.5 103.608C37.6405 70.7652 45.292 61.925 65.9454 38.0631L66 38Z" fill="url(#pattern0_122_487)" fill-opacity="0.49"/>
<path d="M39.4397 103.608C41.1935 75.187 53.6252 66.1277 66 38C45.3055 61.9095 37.6441 70.7363 33.5 103.608C30.5704 126.846 43.6158 136.678 45.7301 147.403C52.921 174.217 -9.4522 236.694 25.9567 273.426C70.0003 249.294 131.123 313.646 150 273.426C133.82 238.569 159.886 242.144 129.325 147.403C132.921 135.784 142.079 124.165 140.5 103.608C137.958 70.5189 126.534 62.1415 110.5 38C117.743 66.3803 134.994 75.4753 133.82 103.608M39.4397 103.608C56.9229 91.9339 70.5 95 88 108.5M39.4397 103.608C39.4397 138.5 66.0216 142.392 88 108.5M88 108.5C103.5 95.5 115.55 94.1287 133.82 103.608M88 108.5C107.522 141.392 133.82 144.5 133.82 103.608" stroke="#221D18" stroke-width="4" stroke-linejoin="round"/>
<defs>
<pattern id="pattern0_122_487" patternUnits="userSpaceOnUse" patternTransform="matrix(49.0853 0 0 20.2032 65.0237 167.426)" preserveAspectRatio="none" viewBox="2.07812 1.70434 49.0853 20.2032" width="1" height="1">
<use xlink:href="#pattern0_122_487_inner" transform="translate(0 -20.2032)"/>
<use xlink:href="#pattern0_122_487_inner" transform="translate(24.5427 -10.1016)"/>
<g id="pattern0_122_487_inner">
<path fill-rule="evenodd" clip-rule="evenodd" d="M9.97016 7.68224C9.93688 7.58376 9.89805 7.49903 9.85337 7.42981C9.89317 7.51456 9.93209 7.5987 9.97016 7.68224ZM9.83523 7.40869L9.85337 7.42981C9.85079 7.41963 9.84468 7.41263 9.83523 7.40869Z" fill="#FE8FED"/>
<path fill-rule="evenodd" clip-rule="evenodd" d="M13.107 6.5956C13.1011 6.67777 13.1078 6.77074 13.126 6.87309C13.1192 6.78154 13.1129 6.68905 13.107 6.5956Z" fill="#FE8FED"/>
<path d="M2.37534 14.5065C1.6588 13.6798 9.39438 7.2249 9.83523 7.40869L9.85337 7.42981C9.89317 7.51456 9.93209 7.5987 9.97016 7.68224C10.5757 9.47413 9.34129 15.8196 7.96333 16.1721C7.12599 16.3866 6.38412 16.4821 5.73603 16.4826C3.76025 16.4839 2.65603 15.6009 2.37534 14.5065Z" fill="#FE8FED"/>
<path d="M13.1095 6.57331C13.3256 6.17851 23.2981 8.13235 23.0662 9.20626C23.3461 10.3009 22.8023 11.6059 21.0692 12.5546C20.5007 12.8657 19.8042 13.1385 18.9669 13.353C17.5891 13.7063 13.4564 8.73544 13.126 6.87309C13.1192 6.78154 13.1129 6.68905 13.107 6.5956C13.1049 6.58748 13.1058 6.58005 13.1095 6.57331Z" fill="#FE8FED"/>
<path fill-rule="evenodd" clip-rule="evenodd" d="M21.0692 12.5546C20.7387 14.4671 17.8139 15.8681 15.5921 13.783C14.3908 12.6555 13.395 10.509 13.126 6.87309C13.4564 8.73544 17.5891 13.7063 18.9669 13.353C19.8042 13.1385 20.5007 12.8657 21.0692 12.5546Z" fill="#FE8FED"/>
<path fill-rule="evenodd" clip-rule="evenodd" d="M11.1571 14.8388C11.6343 13.2727 11.4539 10.9382 9.97016 7.68224C9.93688 7.58376 9.89805 7.49903 9.85337 7.42981C9.85079 7.41963 9.84468 7.41263 9.83523 7.40869C9.12403 6.57337 9.28292 5.85331 9.80027 5.37948C9.96217 5.23119 10.1592 5.10702 10.3756 5.01097C10.6411 4.89315 10.9359 4.81766 11.2309 4.79192C11.4714 4.77093 11.7121 4.78299 11.9374 4.83213C12.6578 4.98933 13.2197 5.52591 13.1095 6.57331C13.1058 6.58005 13.1049 6.58748 13.107 6.5956C13.1011 6.67777 13.1078 6.77074 13.126 6.87309C13.395 10.509 14.3908 12.6555 15.5921 13.783C15.7096 18.3179 13.3033 18.9075 11.1571 14.8388Z" fill="#FE8FED"/>
<path fill-rule="evenodd" clip-rule="evenodd" d="M11.1571 14.8388C10.2486 17.8196 6.95736 18.016 5.73603 16.4826C6.38412 16.4821 7.12599 16.3866 7.96333 16.1721C9.34129 15.8196 10.5757 9.47413 9.97016 7.68224C11.4539 10.9382 11.6343 13.2727 11.1571 14.8388Z" fill="#FE8FED"/>
<path fill-rule="evenodd" clip-rule="evenodd" d="M10.3756 5.01097C10.1592 5.10702 9.96217 5.23119 9.80027 5.37948L7.28441 3.44315C8.9378 3.24577 9.57236 3.56172 10.3756 5.01097Z" fill="#FE8FED"/>
<path fill-rule="evenodd" clip-rule="evenodd" d="M11.9374 4.83213C11.7121 4.78299 11.4714 4.77093 11.2309 4.79192C11.1898 3.09391 11.677 2.53141 13.0968 1.95448L11.9374 4.83213Z" fill="#FE8FED"/>
<path d="M9.97016 7.68224C9.93688 7.58376 9.89805 7.49903 9.85337 7.42981M9.97016 7.68224C9.93209 7.5987 9.89317 7.51456 9.85337 7.42981M9.97016 7.68224C10.5757 9.47413 9.34129 15.8196 7.96333 16.1721C7.12599 16.3866 6.38412 16.4821 5.73603 16.4826M9.97016 7.68224C11.4539 10.9382 11.6343 13.2727 11.1571 14.8388M9.85337 7.42981L9.83523 7.40869M9.85337 7.42981C9.85079 7.41963 9.84468 7.41263 9.83523 7.40869M9.83523 7.40869C9.39438 7.2249 1.6588 13.6798 2.37534 14.5065C2.65603 15.6009 3.76025 16.4839 5.73603 16.4826M9.83523 7.40869C9.12403 6.57337 9.28292 5.85331 9.80027 5.37948M13.107 6.5956C13.1011 6.67777 13.1078 6.77074 13.126 6.87309M13.107 6.5956C13.1129 6.68905 13.1192 6.78154 13.126 6.87309M13.107 6.5956C13.1049 6.58748 13.1058 6.58005 13.1095 6.57331M13.107 6.5956C13.1079 6.58814 13.1087 6.58072 13.1095 6.57331M13.126 6.87309C13.4564 8.73544 17.5891 13.7063 18.9669 13.353C19.8042 13.1385 20.5007 12.8657 21.0692 12.5546M13.126 6.87309C13.395 10.509 14.3908 12.6555 15.5921 13.783M5.73603 16.4826C6.95736 18.016 10.2486 17.8196 11.1571 14.8388M13.1095 6.57331C13.3256 6.17851 23.2981 8.13235 23.0662 9.20626C23.3461 10.3009 22.8023 11.6059 21.0692 12.5546M13.1095 6.57331C13.2197 5.52591 12.6578 4.98933 11.9374 4.83213M21.0692 12.5546C20.7387 14.4671 17.8139 15.8681 15.5921 13.783M15.5921 13.783C15.7096 18.3179 13.3033 18.9075 11.1571 14.8388M15.5921 13.783C15.5914 13.7566 15.5907 13.7301 15.5898 13.7035M9.80027 5.37948C9.96217 5.23119 10.1592 5.10702 10.3756 5.01097M9.80027 5.37948L7.28441 3.44315C8.9378 3.24577 9.57236 3.56172 10.3756 5.01097M10.3756 5.01097C10.6411 4.89315 10.9359 4.81766 11.2309 4.79192M11.2309 4.79192C11.4714 4.77093 11.7121 4.78299 11.9374 4.83213M11.2309 4.79192C11.1898 3.09391 11.677 2.53141 13.0968 1.95448L11.9374 4.83213" stroke="#FFD596" stroke-width="0.5" stroke-linejoin="round"/>
</g>
<use xlink:href="#pattern0_122_487_inner" transform="translate(24.5427 10.1016)"/>
</pattern></defs>
</svg>
