<svg width="210" height="214" viewBox="0 0 210 214" fill="none" xmlns="http://www.w3.org/2000/svg">
<path fill-rule="evenodd" clip-rule="evenodd" d="M179.415 70.4501L102.332 37.1505V31.6009C102.332 31.6009 122.066 28.5168 122.066 38.3834C130.497 42.331 140.483 45.4335 150.24 48.4653C171.862 55.1833 192.365 61.5536 192.365 76.0004C187.278 73.904 179.415 70.4501 179.415 70.4501Z" fill="#584355"/>
<path fill-rule="evenodd" clip-rule="evenodd" d="M102.332 31.6009V37.1505L27.7165 70.4501C27.7165 70.4501 20.5936 73.8713 16 76.0004C16.0004 61.9767 35.2441 55.5314 55.7431 48.6656C64.9901 45.5685 74.4925 42.3858 82.5993 38.3834C82.5993 28.5168 102.332 31.6009 102.332 31.6009Z" fill="#584355"/>
<path fill-rule="evenodd" clip-rule="evenodd" d="M102.332 37.1505L179.415 70.4501H27.7165L102.332 37.1505Z" fill="#B08544"/>
<path fill-rule="evenodd" clip-rule="evenodd" d="M102.332 37.1505L179.415 70.4501H27.7165L102.332 37.1505Z" fill="black" fill-opacity="0.5"/>
<path d="M179.415 70.4501L102.332 37.1505M179.415 70.4501C179.415 70.4501 187.278 73.904 192.365 76.0004C192.365 61.5536 171.862 55.1833 150.24 48.4653C140.483 45.4335 130.497 42.331 122.066 38.3834C122.066 28.5168 102.332 31.6009 102.332 31.6009M179.415 70.4501H27.7165M102.332 37.1505V31.6009M102.332 37.1505L27.7165 70.4501M102.332 31.6009C102.332 31.6009 82.5993 28.5168 82.5993 38.3834C74.4925 42.3858 64.9901 45.5685 55.7431 48.6656C35.2441 55.5314 16.0004 61.9767 16 76.0004C20.5936 73.8713 27.7165 70.4501 27.7165 70.4501M102.332 31.6009V24.2002" stroke="#221D18" stroke-width="4" stroke-linejoin="round"/>
<path d="M88.6152 13.7165C88.6152 14.8211 89.5107 15.7165 90.6152 15.7165C91.7198 15.7165 92.6152 14.8211 92.6152 13.7165H90.6152H88.6152ZM90.6152 13.7165H92.6152C92.6152 8.35023 96.9654 4 102.332 4V2V0C94.7563 0 88.6152 6.14112 88.6152 13.7165H90.6152ZM114.048 13.7165H112.048C112.048 16.1263 110.598 18.5308 108.158 20.4203C105.729 22.3022 102.606 23.4331 99.8651 23.4331V25.4331V27.4331C103.595 27.4331 107.563 25.9411 110.608 23.5825C113.643 21.2315 116.048 17.7777 116.048 13.7165H114.048ZM102.332 2V4C107.698 4 112.048 8.35025 112.048 13.7165H114.048H116.048C116.048 6.14111 109.907 0 102.332 0V2Z" fill="#221D18"/>
<path fill-rule="evenodd" clip-rule="evenodd" d="M64.5 43.5001C56 48.5997 59.5 37 59.5 37C59.5 33 62.4132 30.6273 67.75 34.2501C70.1714 29.1255 71.8013 28.9391 75 31.0001C79.5793 30.3772 80.4815 31.5786 79.4565 35.9598C84.8666 35.6053 85.3541 36.4643 83.913 40.9195C88.402 41.6894 89.4744 43.1457 89.5 47.1372C94.185 45.6063 95.2212 47.6884 95.6667 54.0001C101.67 54.3091 100.999 55.7428 99.9054 58.0802C99.8414 58.2171 99.7759 58.3571 99.7101 58.5001C105.204 59.2308 105.614 61.4109 106 65.5001C110.88 65.591 112.006 66.5653 111.75 69.7501C116.687 68.7427 117.333 70.2859 117.5 74.0001C122.412 76.6796 122.538 80.1564 118.003 84.6088C117.46 85.142 116.85 85.6891 116.174 86.2505C118.377 92.5005 113.78 95.0005 110.5 95.0005C105 95.0005 101.991 90.6967 102.674 86.7373C97.6235 85.5897 95.8728 84.2962 96.6736 79.4742C90.9423 78.235 88.65 77.0041 90.0867 71.5005C84.5555 70.4876 80.5258 68.2106 82 63.5005C75.4189 63.5211 71.8008 62.0749 75 56.5005C70.0406 56.12 67.7091 54.458 70 50.5001C65.518 50.8473 63.123 47.7266 64.5 43.5001Z" fill="#FEFEFC"/>
<path fill-rule="evenodd" clip-rule="evenodd" d="M111.75 69.7501C112.006 66.5653 110.88 65.591 106 65.5001L108.674 60.0001C106.564 56.812 107.366 55.719 111.347 54.5001C109.716 50.4261 113.592 50.5167 117.607 48.9996C116.025 43.8984 117.682 42.8754 121.253 41.4996C119.415 38.422 120.739 37.1098 124.413 34.9996C123.613 32.0575 124.006 31.1524 126.357 30.9996C130.538 29.2011 132.053 30.2136 134.107 33.7496C138.499 31.7108 139.812 33.1723 141.857 36.4996C142.339 40.1069 145.5 46.5 138.357 43.9996C139.05 48.5219 135.659 49.0373 130.929 50.5001C132.153 55.3968 131.079 57.1184 126.357 58.5001C127.634 63.9872 126.213 65.9047 121 67.8751C122.494 72.4311 121.26 73.4202 117.5 74.0001C117.333 70.2859 116.687 68.7427 111.75 69.7501Z" fill="#FEFEFC"/>
<path fill-rule="evenodd" clip-rule="evenodd" d="M116.174 86.2505C116.85 85.6891 117.46 85.142 118.003 84.6088L124 211.074C103.686 211.819 77.5266 207.542 45 197.5L49 88.5001L34 197.5C24.2376 193.931 18.7611 191.974 9 197.5C9 197.5 16.0006 86.5001 16.0006 77.0001C18.5036 54.8268 35.8429 51.0714 50.0887 47.986C55.7598 46.7577 60.9405 45.6356 64.5 43.5001C63.123 47.7266 65.518 50.8473 70 50.5001C67.7091 54.458 70.0406 56.12 75 56.5005C71.8008 62.0749 75.4189 63.5211 82 63.5005C80.5258 68.2106 84.5555 70.4876 90.0867 71.5005C88.65 77.0041 90.9423 78.235 96.6736 79.4742C95.8728 84.2962 97.6235 85.5897 102.674 86.7373C101.991 90.6967 105 95.0005 110.5 95.0005C113.78 95.0005 118.377 92.5005 116.174 86.2505Z" fill="#B08544"/>
<path fill-rule="evenodd" clip-rule="evenodd" d="M118.003 84.6088C122.538 80.1564 122.412 76.6796 117.5 74.0001C121.26 73.4202 122.494 72.4311 121 67.8751C126.213 65.9047 127.634 63.9872 126.357 58.5001C131.079 57.1184 132.153 55.3968 130.929 50.5001C135.659 49.0373 139.05 48.5219 138.357 43.9996C141.244 46.0204 144.149 45.7083 150.946 47.109C167.694 50.5599 190.722 55.3052 192.501 77.0001C193.236 85.97 200 197.5 200 197.5C189.48 194.858 183.853 194.762 174.5 197.5L163.5 88.5001L167.001 195.5C157.814 204.938 143.638 210.353 124 211.074L118.003 84.6088Z" fill="#B08544"/>
<path d="M64.5 43.5001C56 48.5997 59.5 37 59.5 37C59.5 33 62.4132 30.6273 67.75 34.2501C70.1714 29.1255 71.8013 28.9391 75 31.0001C79.5793 30.3772 80.4815 31.5786 79.4565 35.9598C84.8666 35.6053 85.3541 36.4643 83.913 40.9195C88.402 41.6894 89.4744 43.1457 89.5 47.1372C94.185 45.6063 95.2212 47.6884 95.6667 54.0001C101.67 54.3091 100.999 55.7428 99.9054 58.0802C99.8414 58.2171 99.7759 58.3571 99.7101 58.5001C105.204 59.2308 105.614 61.4109 106 65.5001M64.5 43.5001C63.123 47.7266 65.518 50.8473 70 50.5001C67.7091 54.458 70.0406 56.12 75 56.5005C71.8008 62.0749 75.4189 63.5211 82 63.5005C80.5258 68.2106 84.5555 70.4876 90.0867 71.5005C88.65 77.0041 90.9423 78.235 96.6736 79.4742C95.8728 84.2962 97.6235 85.5897 102.674 86.7373C101.991 90.6967 105 95.0005 110.5 95.0005C113.78 95.0005 118.377 92.5005 116.174 86.2505C116.85 85.6891 117.46 85.142 118.003 84.6088M64.5 43.5001C60.9405 45.6356 55.7598 46.7577 50.0887 47.986C35.8429 51.0714 18.5036 54.8268 16.0006 77.0001C16.0006 86.5001 9 197.5 9 197.5C18.7611 191.974 24.2376 193.931 34 197.5L49 88.5001L45 197.5C77.5266 207.542 103.686 211.819 124 211.074M106 65.5001C110.88 65.591 112.006 66.5653 111.75 69.7501C116.687 68.7427 117.333 70.2859 117.5 74.0001M106 65.5001L108.674 60.0001C106.564 56.812 107.366 55.719 111.347 54.5001C109.716 50.4261 113.592 50.5167 117.607 48.9996C116.025 43.8984 117.682 42.8754 121.253 41.4996C119.415 38.422 120.739 37.1098 124.413 34.9996C123.613 32.0575 124.006 31.1524 126.357 30.9996C130.538 29.2011 132.053 30.2136 134.107 33.7496C138.499 31.7108 139.812 33.1723 141.857 36.4996C142.339 40.1069 145.5 46.5 138.357 43.9996M117.5 74.0001C122.412 76.6796 122.538 80.1564 118.003 84.6088M117.5 74.0001C121.26 73.4202 122.494 72.4311 121 67.8751C126.213 65.9047 127.634 63.9872 126.357 58.5001C131.079 57.1184 132.153 55.3968 130.929 50.5001C135.659 49.0373 139.05 48.5219 138.357 43.9996M118.003 84.6088L124 211.074M138.357 43.9996C141.244 46.0204 144.149 45.7083 150.946 47.109C167.694 50.5599 190.722 55.3052 192.501 77.0001C193.236 85.97 200 197.5 200 197.5C189.48 194.858 183.853 194.762 174.5 197.5L163.5 88.5001L167.001 195.5C157.814 204.938 143.638 210.353 124 211.074" stroke="#221D18" stroke-width="4" stroke-linejoin="round"/>
<circle cx="109.5" cy="108.5" r="4.5" stroke="#221D18" stroke-width="4"/>
<circle cx="110.5" cy="145.5" r="4.5" stroke="#221D18" stroke-width="4"/>
<circle cx="111.5" cy="184.5" r="4.5" stroke="#221D18" stroke-width="4"/>
<path fill-rule="evenodd" clip-rule="evenodd" d="M205.768 190.365C205.285 188.751 202.963 184.886 199.083 187.296C193.829 181.574 188.641 181.054 187.039 187.38C182.237 182.761 181.18 182.27 179.236 185.76C176.487 180.601 174.998 179.478 172.503 183.505C168.249 179.855 167.317 184.274 167.602 186.644C167.611 186.72 167.621 186.802 167.631 186.891C167.946 189.57 169.531 203.067 173.736 194.262C176.486 201.059 178.041 202.171 180.761 196.28C183.993 203.041 187.22 203.707 190.134 197.563C194.462 203.099 197.617 203.413 199.379 197.461C202.826 205.102 207.071 194.728 205.768 190.365Z" fill="#F0EEFF"/>
<path fill-rule="evenodd" clip-rule="evenodd" d="M205.768 190.365C205.285 188.751 202.963 184.886 199.083 187.296C193.829 181.574 188.641 181.054 187.039 187.38C182.237 182.761 181.18 182.27 179.236 185.76C176.487 180.601 174.998 179.478 172.503 183.505C168.249 179.855 167.317 184.274 167.602 186.644C167.611 186.72 167.621 186.802 167.631 186.891C167.946 189.57 169.531 203.067 173.736 194.262C176.486 201.059 178.041 202.171 180.761 196.28C183.993 203.041 187.22 203.707 190.134 197.563C194.462 203.099 197.617 203.413 199.379 197.461C202.826 205.102 207.071 194.728 205.768 190.365Z" stroke="#221D18" stroke-width="4" stroke-linejoin="round"/>
<path fill-rule="evenodd" clip-rule="evenodd" d="M3.3747 190.365C3.85714 188.751 6.18 184.886 10.0599 187.296C15.314 181.574 20.5019 181.054 22.1038 187.38C26.9052 182.761 27.9623 182.27 29.9063 185.76C32.6552 180.601 34.1449 179.478 36.6391 183.505C40.894 179.855 41.8256 184.274 41.5408 186.644C41.5317 186.72 41.522 186.802 41.5116 186.891C41.1963 189.57 39.6117 203.067 35.4066 194.262C32.6564 201.059 31.102 202.171 28.3811 196.28C25.1499 203.041 21.9223 203.707 19.0091 197.563C14.6804 203.099 11.5254 203.413 9.76364 197.461C6.31657 205.102 2.07115 194.728 3.3747 190.365Z" fill="#F0EEFF"/>
<path fill-rule="evenodd" clip-rule="evenodd" d="M3.3747 190.365C3.85714 188.751 6.18 184.886 10.0599 187.296C15.314 181.574 20.5019 181.054 22.1038 187.38C26.9052 182.761 27.9623 182.27 29.9063 185.76C32.6552 180.601 34.1449 179.478 36.6391 183.505C40.894 179.855 41.8256 184.274 41.5408 186.644C41.5317 186.72 41.522 186.802 41.5116 186.891C41.1963 189.57 39.6117 203.067 35.4066 194.262C32.6564 201.059 31.102 202.171 28.3811 196.28C25.1499 203.041 21.9223 203.707 19.0091 197.563C14.6804 203.099 11.5254 203.413 9.76364 197.461C6.31657 205.102 2.07115 194.728 3.3747 190.365Z" stroke="#221D18" stroke-width="4" stroke-linejoin="round"/>
</svg>
