<svg width="150" height="259" viewBox="0 0 150 259" fill="none" xmlns="http://www.w3.org/2000/svg">
<path fill-rule="evenodd" clip-rule="evenodd" d="M27.0344 68.6508C29.2558 65.8638 31.3187 63.2757 29.8358 59.1522C29.2375 57.8528 29.0755 55.6341 28.8349 53.5C33.6247 55.2391 37.0462 57.3096 39.3438 59.1522C47.3506 65.2391 43.3472 70.8913 38.8434 75.2391C36.8417 78.7174 24.2087 88.7174 37.8425 92.1956C32.8383 92.6304 27.834 91.3261 24.7092 89.587C23.1735 84.1611 22.5103 79.0178 23.3297 75.2391C23.9071 72.5742 25.5082 70.5655 27.0344 68.6508Z" fill="#D7D1FA"/>
<path fill-rule="evenodd" clip-rule="evenodd" d="M66.3667 64.8043C57.8595 64.8043 51.8544 71.7609 51.8544 73.9348C51.8544 76.9783 59.3608 82.1956 66.3667 82.1956C77.8765 82.6304 81.3794 76.9783 81.3794 73.9348C81.3794 68.9448 74.8739 64.8043 66.3667 64.8043Z" fill="#D7D1FA"/>
<path fill-rule="evenodd" clip-rule="evenodd" d="M40.8451 92.1956L37.8425 93.0652C43.7244 96.9169 46.8502 96.5435 48.8518 91.7609C45.0901 94.0592 43.3472 94.3696 40.8451 92.1956Z" fill="#D7D1FA"/>
<path fill-rule="evenodd" clip-rule="evenodd" d="M39.3438 101.761C39.3438 99.1522 37.3421 98.2826 32.3378 100.022C36.8417 106.543 41.8459 105.674 49.3523 105.239C49.8355 105.177 50.847 104.868 51.354 104.804C44.9158 100.439 41.9031 99.0909 39.3438 101.761Z" fill="#D7D1FA"/>
<path fill-rule="evenodd" clip-rule="evenodd" d="M35.8408 110.022C38.3429 106.978 41.3455 108.283 42.8468 112.196C39.8442 110.891 38.8434 109.587 35.8408 110.022Z" fill="#D7D1FA"/>
<path fill-rule="evenodd" clip-rule="evenodd" d="M103.899 73.9348C107.791 69.2184 110.404 68.7174 114.407 71.3261C110.31 71.4025 107.902 71.7609 103.899 73.9348Z" fill="#D7D1FA"/>
<path fill-rule="evenodd" clip-rule="evenodd" d="M102.397 72.1956C107.343 64.2389 110.404 62.6304 115.408 66.9783C118.911 70.4565 119.912 74.3696 115.408 86.8014C109.904 91.7609 105.741 93.8935 101.396 93.5C123.415 87.8478 119.412 52.6304 102.397 72.1956Z" fill="#D7D1FA"/>
<path fill-rule="evenodd" clip-rule="evenodd" d="M99.4141 108.283L100.395 144.37C100.395 152.196 88.8858 155.674 75.8748 155.674C87.8849 153.935 93.8978 151.992 95.8917 146.109L95.3913 118.717C93.9556 119.625 92.5892 120.505 91.271 121.354C80.4417 128.329 72.8661 133.209 56.8582 133.935V128.717V125.513C75.0067 125.583 90.2519 116.259 99.4141 108.283Z" fill="#D7D1FA"/>
<path fill-rule="evenodd" clip-rule="evenodd" d="M146.434 204.804C151.439 215.239 140.93 219.152 135.925 219.587C123.176 221.459 104.564 217.565 85.3828 210.838C80.883 209.26 76.352 207.526 71.8579 205.674C42.1211 193.419 14.0061 175.994 7.31616 164.37C4.24829 159.943 3.7532 157.467 6.81573 153.065C27.834 189.152 131.922 223.935 146.434 204.804Z" fill="#D7D1FA"/>
<path fill-rule="evenodd" clip-rule="evenodd" d="M75.8748 155.674C88.8858 155.674 100.395 152.196 100.395 144.37C124.965 161.768 133.976 176.024 146.434 204.804C131.922 223.935 27.834 189.152 6.81573 153.065C11.32 147.413 28.8349 130.457 56.8582 128.717V133.935C72.8661 133.209 80.4417 128.329 91.271 121.354C92.5892 120.505 93.9556 119.625 95.3913 118.717L95.8917 146.109C93.8978 151.992 87.8849 153.935 75.8748 155.674Z" fill="#F0EEFF"/>
<path fill-rule="evenodd" clip-rule="evenodd" d="M39.3438 59.1522C37.0462 57.3096 33.6247 55.2391 28.8349 53.5C27.0627 37.7812 36.259 3.5 79.8781 3.5C106.963 3.5 128.92 24.3696 128.92 45.2391C128.92 54.4238 127.133 66.0919 115.408 86.8014C119.912 74.3696 118.911 70.4565 115.408 66.9783C110.404 62.6304 107.343 64.2389 102.397 72.1956C119.412 52.6304 123.415 87.8478 101.396 93.5C105.741 93.8935 109.904 91.7609 115.408 86.8014C113.257 90.6005 110.772 94.704 107.902 99.1522C106.578 101.204 103.645 104.6 99.4141 108.283C90.2519 116.259 75.0067 125.583 56.8582 125.513C51.4193 125.492 45.7198 124.628 39.8451 122.63C35.2602 120.923 34.7473 117.284 34.2392 113.678C33.9708 111.774 33.7038 109.879 32.8391 108.283C29.5801 102.857 26.5308 96.023 24.7092 89.587C27.834 91.3261 32.8383 92.6304 37.8425 92.1956C26.878 89.3984 32.9019 82.383 36.7221 77.9341C37.6521 76.8511 38.4515 75.9201 38.8434 75.2391C43.3472 70.8913 47.3506 65.2391 39.3438 59.1522ZM66.3667 64.8043C57.8595 64.8043 51.8544 71.7609 51.8544 73.9348C51.8544 76.9783 59.3608 82.1956 66.3667 82.1956C77.8765 82.6304 81.3794 76.9783 81.3794 73.9348C81.3794 68.9448 74.8739 64.8043 66.3667 64.8043ZM48.8518 91.7609C45.0901 94.0592 43.3472 94.3696 40.8451 92.1956L37.8425 93.0652C43.7244 96.9169 46.8502 96.5435 48.8518 91.7609ZM39.3438 101.761C39.3438 99.1522 37.3421 98.2826 32.3378 100.022C36.505 106.056 41.1006 105.763 47.7102 105.341C48.2441 105.307 48.7912 105.272 49.3523 105.239C49.5893 105.209 49.9533 105.119 50.3227 105.028C50.7063 104.933 51.0957 104.837 51.354 104.804C44.9158 100.439 41.9031 99.0909 39.3438 101.761ZM42.8468 112.196C41.3455 108.283 38.3429 106.978 35.8408 110.022C38.0169 109.707 39.1416 110.305 40.7388 111.155C41.3455 111.478 42.0203 111.837 42.8468 112.196ZM103.899 73.9348C107.791 69.2184 110.404 68.7174 114.407 71.3261C110.31 71.4025 107.902 71.7609 103.899 73.9348Z" fill="#F0EEFF"/>
<path fill-rule="evenodd" clip-rule="evenodd" d="M85.3828 230.269C85.3828 234.641 71.8579 234.641 71.8579 230.269V215.405V205.787C76.352 207.65 80.883 209.393 85.3828 210.98V215.405V230.269Z" fill="#584355"/>
<path fill-rule="evenodd" clip-rule="evenodd" d="M85.3828 230.269C85.3828 234.641 71.8579 234.641 71.8579 230.269V215.405V205.787C76.352 207.65 80.883 209.393 85.3828 210.98V215.405V230.269Z" fill="#FEFEFC" fill-opacity="0.2"/>
<path fill-rule="evenodd" clip-rule="evenodd" d="M42.3463 230.269L78.8773 249.068V256.5L42.3463 237.264V230.269Z" fill="#584355"/>
<path fill-rule="evenodd" clip-rule="evenodd" d="M42.3463 230.269L78.8773 249.068V256.5L42.3463 237.264V230.269Z" fill="#FEFEFC" fill-opacity="0.2"/>
<path fill-rule="evenodd" clip-rule="evenodd" d="M78.8773 249.068L114.908 230.269V237.264L78.8773 256.5V249.068Z" fill="#584355"/>
<path fill-rule="evenodd" clip-rule="evenodd" d="M71.8579 230.269C71.8579 234.641 85.3828 234.641 85.3828 230.269V215.405L114.908 230.269L78.8773 249.068L42.3463 230.269L71.8579 215.405V230.269Z" fill="#584355"/>
<path fill-rule="evenodd" clip-rule="evenodd" d="M71.8579 230.269C71.8579 234.641 85.3828 234.641 85.3828 230.269V215.405L114.908 230.269L78.8773 249.068L42.3463 230.269L71.8579 215.405V230.269Z" fill="#FEFEFC" fill-opacity="0.4"/>
<path d="M71.8579 215.405V230.269C71.8579 234.641 85.3828 234.641 85.3828 230.269V215.405M71.8579 215.405V205.787M71.8579 215.405L42.3463 230.269M71.8579 205.787C76.352 207.65 80.8831 209.393 85.3828 210.98M71.8579 205.787C42.1211 193.465 14.0061 175.944 7.31616 164.256C4.24829 159.805 3.7532 157.315 6.81573 152.889C11.32 147.206 28.8349 130.156 56.8582 128.407V125.185M85.3828 210.98V215.405M85.3828 210.98C104.564 217.744 123.176 221.66 135.925 219.777C140.93 219.34 151.439 215.405 146.434 204.913C133.976 175.975 124.965 161.64 100.395 144.145L99.4141 107.86M85.3828 215.405L114.908 230.269M42.3463 230.269L78.8773 249.068M42.3463 230.269V237.264L78.8773 256.5M78.8773 249.068V256.5M78.8773 249.068L114.908 230.269M78.8773 256.5L114.908 237.264V230.269M99.4141 107.86C103.645 104.156 106.578 100.742 107.902 98.679C126.417 69.8253 128.92 55.3985 128.92 44.469C128.92 23.4845 106.963 2.5 79.8781 2.5C30.3369 2.5 24.8311 47.5293 29.8358 58.4587C32.3376 65.4535 24.7476 68.0543 23.3297 74.6342C21.5383 82.9406 26.8327 97.8046 32.8391 107.86C35.3412 112.504 32.8391 119.664 39.8451 122.287C45.7198 124.295 51.4194 125.164 56.8582 125.185M99.4141 107.86C90.2519 115.88 75.0067 125.255 56.8582 125.185" stroke="#221D18" stroke-width="4" stroke-linejoin="round"/>
<path d="M30.8492 58.3881L7.06158 65.6268L5.14597 59.7463L29.1991 52.9312L30.8492 58.3881Z" fill="#FF5454" stroke="#221D18" stroke-width="4" stroke-linejoin="round"/>
<path fill-rule="evenodd" clip-rule="evenodd" d="M10.3759 56.4997C24.1687 51.8234 36.3759 61.9997 36.3759 61.9997C36.3759 61.9997 32.1458 72.3853 28.1289 76.55C24.6469 80.0848 11.3325 76.9092 9.85262 71.4603C8.96717 66.1133 9.84519 61.7636 10.3759 56.4997Z" fill="#9DE7FF" fill-opacity="0.4"/>
<path fill-rule="evenodd" clip-rule="evenodd" d="M55.8759 65.9997C55.8759 65.9997 54.3759 79.2004 58.3759 82.9998C62.3759 86.7992 73.811 89.805 77.4646 85.5003C80.4454 80.7326 81.8781 74.9997 81.8781 73.0003C73.8759 64.4997 55.8759 65.9997 55.8759 65.9997Z" fill="#9DE7FF" fill-opacity="0.4"/>
<path fill-rule="evenodd" clip-rule="evenodd" d="M40.8765 69.4993C43.6638 62.7298 48.6192 65.5514 50.014 70.173L51.3768 84.5003C52.3152 88.7508 70.7618 97.906 80.4923 91.7225C83.8024 88.9577 87.1196 78.6471 88.3781 73.0003L101.875 68.9997C101.875 68.9997 116.904 63.6472 120.876 69.4993C123.398 73.2153 118.876 80.9994 118.876 80.9994C120.42 82.3063 121.822 82.7167 123.376 81.4998C130.875 70 124.375 65.6067 122.875 64.0001C115.875 56.5 87.2653 68.0007 87.2653 68.0007C81.0803 60.6949 56.8155 55.4998 51.3781 60.9995C48.4415 58.4591 45.1004 57.8329 41.8768 59.0004C38.8764 51.4989 14.3756 45.0003 6.37543 51.4996C3.87528 56.9997 3.57375 67.9425 4.87757 75.5003C5.6538 79.9994 25.3752 86.4982 31.3765 80.9994L40.8765 69.4993ZM10.3759 56.4997C24.1687 51.8234 36.3759 61.9997 36.3759 61.9997C36.3759 61.9997 32.1458 72.3853 28.1289 76.55C24.6469 80.0848 11.3325 76.9092 9.85262 71.4603C9.1396 67.1546 9.5701 63.4955 10.042 59.485C10.1561 58.5152 10.2726 57.5248 10.3759 56.4997ZM58.3759 82.9998C54.3759 79.2004 55.8759 65.9997 55.8759 65.9997C55.8759 65.9997 73.8759 64.4997 81.8781 73.0003C81.8781 74.9997 80.4454 80.7326 77.4646 85.5003C73.811 89.805 62.3759 86.7992 58.3759 82.9998Z" fill="#FF5454"/>
<path d="M10.3759 56.4997C24.1687 51.8234 36.3759 61.9997 36.3759 61.9997C36.3759 61.9997 32.1458 72.3853 28.1289 76.55C24.6469 80.0848 11.3325 76.9092 9.85262 71.4603M10.3759 56.4997C9.84519 61.7636 8.96717 66.1133 9.85262 71.4603M10.3759 56.4997C10.2726 57.5248 10.1561 58.5152 10.042 59.485C9.5701 63.4955 9.1396 67.1546 9.85262 71.4603M58.3759 82.9998C54.3759 79.2004 55.8759 65.9997 55.8759 65.9997C55.8759 65.9997 73.8759 64.4997 81.8781 73.0003C81.8781 74.9997 80.4454 80.7326 77.4646 85.5003C73.811 89.805 62.3759 86.7992 58.3759 82.9998ZM40.8765 69.4993C43.6638 62.7298 48.6192 65.5514 50.014 70.173L51.3768 84.5003C52.3152 88.7508 70.7618 97.906 80.4923 91.7225C83.8024 88.9577 87.1196 78.6471 88.3781 73.0003L101.875 68.9997C101.875 68.9997 116.904 63.6472 120.876 69.4993C123.398 73.2153 118.876 80.9994 118.876 80.9994C120.42 82.3063 121.822 82.7167 123.376 81.4998C130.875 70 124.375 65.6067 122.875 64.0001C115.875 56.5 87.2653 68.0007 87.2653 68.0007C81.0803 60.6949 56.8155 55.4998 51.3781 60.9995C48.4415 58.4591 45.1004 57.8329 41.8768 59.0004C38.8764 51.4989 14.3756 45.0003 6.37543 51.4996C3.87528 56.9997 3.57375 67.9425 4.87757 75.5003C5.6538 79.9994 25.3752 86.4982 31.3765 80.9994L40.8765 69.4993Z" stroke="#221D18" stroke-width="4" stroke-linejoin="round"/>
</svg>
