<svg width="181" height="210" viewBox="0 0 181 210" fill="none" xmlns="http://www.w3.org/2000/svg">
<path fill-rule="evenodd" clip-rule="evenodd" d="M165.415 70.4501L88.3324 37.1505V31.6009C88.3324 31.6009 108.066 28.5168 108.066 38.3834C116.497 42.331 126.483 45.4335 136.24 48.4653C157.862 55.1833 178.365 61.5536 178.365 76.0004C173.278 73.904 165.415 70.4501 165.415 70.4501Z" fill="#584355"/>
<path fill-rule="evenodd" clip-rule="evenodd" d="M88.3324 31.6009V37.1505L13.7165 70.4501C13.7165 70.4501 6.5936 73.8713 2 76.0004C2.00044 61.9767 21.2441 55.5314 41.7431 48.6656C50.9901 45.5685 60.4925 42.3858 68.5993 38.3834C68.5993 28.5168 88.3324 31.6009 88.3324 31.6009Z" fill="#584355"/>
<path d="M165.415 70.4501L88.3324 37.1505M165.415 70.4501C165.415 70.4501 173.278 73.904 178.365 76.0004C178.365 61.5536 157.862 55.1833 136.24 48.4653C126.483 45.4335 116.497 42.331 108.066 38.3834C108.066 28.5168 88.3324 31.6009 88.3324 31.6009M165.415 70.4501H13.7166M88.3324 37.1505V31.6009M88.3324 37.1505L13.7166 70.4501M88.3324 31.6009C88.3324 31.6009 68.5993 28.5168 68.5993 38.3834C60.4925 42.3858 50.9901 45.5685 41.7431 48.6656C21.2441 55.5314 2.00044 61.9767 2 76.0004C6.5936 73.8713 13.7166 70.4501 13.7166 70.4501M88.3324 31.6009V24.2002" stroke="#221D18" stroke-width="4" stroke-linejoin="round"/>
<path d="M74.6152 13.7165C74.6152 14.8211 75.5107 15.7165 76.6152 15.7165C77.7198 15.7165 78.6152 14.8211 78.6152 13.7165H76.6152H74.6152ZM76.6152 13.7165H78.6152C78.6152 8.35023 82.9654 4 88.3317 4V2V0C80.7563 0 74.6152 6.14112 74.6152 13.7165H76.6152ZM100.048 13.7165H98.0483C98.0483 16.1263 96.5976 18.5308 94.1584 20.4203C91.7292 22.3022 88.6059 23.4331 85.8651 23.4331V25.4331V27.4331C89.5953 27.4331 93.5635 25.9411 96.6081 23.5825C99.6429 21.2315 102.048 17.7777 102.048 13.7165H100.048ZM88.3317 2V4C93.698 4 98.0483 8.35025 98.0483 13.7165H100.048H102.048C102.048 6.14111 95.9072 0 88.3317 0V2Z" fill="#221D18"/>
<path fill-rule="evenodd" clip-rule="evenodd" d="M116.875 68.5207L130.5 143.946C121.003 149.348 116.95 162.062 115.11 174.619C113.949 182.54 113.668 190.398 113.457 196.319C113.433 196.989 113.41 197.634 113.387 198.252C113.219 202.696 113.036 205.715 112.4 206.298C111.792 206.763 110.002 207.124 107.464 207.392C104.193 207.738 99.6782 207.928 94.8494 207.983C92.3316 208.012 89.7282 208.004 87.171 207.962C82.5587 207.886 78.0964 207.7 74.5565 207.421C70.9515 207.137 68.303 206.757 67.4266 206.298C67.0705 205.971 66.9456 202.624 66.9393 198.252C66.9357 195.778 66.9702 192.976 67.0222 190.207C67.1614 182.796 67.4266 175.625 67.4266 175.625L67.4262 70.029L67.4262 68.5207C67.4262 66.5095 66.878 65.0002 65.2331 65.0001L110.206 65.0003C113.822 65.0457 115.405 65.6319 116.875 68.5207Z" fill="#9DE7FF"/>
<path d="M105.27 169.591H77.2988V148.472L91.5587 140.929L105.27 148.472V169.591Z" fill="#9DE7FF"/>
<path fill-rule="evenodd" clip-rule="evenodd" d="M55.3609 70.029C57.468 66.5551 59.081 64.9824 65.2331 65.0001C66.878 65.0002 67.4262 66.5095 67.4262 68.5207L67.4262 70.029L55.3609 70.029Z" fill="#9DE7FF"/>
<path fill-rule="evenodd" clip-rule="evenodd" d="M55.3609 70.029C57.468 66.5551 59.081 64.9824 65.2331 65.0001C66.878 65.0002 67.4262 66.5095 67.4262 68.5207L67.4262 70.029L55.3609 70.029Z" fill="black" fill-opacity="0.5"/>
<path d="M67.4262 70.029L67.4266 175.625C67.4266 175.625 47.682 172.608 46.5851 171.602C45.4882 170.094 55.3609 70.029 55.3609 70.029L67.4262 70.029Z" fill="#9DE7FF"/>
<path d="M67.4262 70.029L67.4266 175.625C67.4266 175.625 47.682 172.608 46.5851 171.602C45.4882 170.094 55.3609 70.029 55.3609 70.029L67.4262 70.029Z" fill="black" fill-opacity="0.25"/>
<path d="M115.11 174.619C116.95 162.062 121.003 149.348 130.5 143.946L116.875 68.5207C115.405 65.6319 113.822 65.0457 110.206 65.0003L65.2331 65.0001M115.11 174.619C113.949 182.54 113.668 190.398 113.457 196.319C113.433 196.989 113.41 197.634 113.387 198.252M115.11 174.619L67.0222 190.207M113.387 198.252C113.219 202.696 113.036 205.715 112.4 206.298C111.792 206.763 110.002 207.124 107.464 207.392M113.387 198.252H107.464L107.464 200.767M107.464 207.392C104.193 207.738 99.6782 207.928 94.8494 207.983M107.464 207.392V200.767M94.8494 207.983C92.3316 208.012 89.7282 208.004 87.171 207.962M94.8494 207.983L94.8494 200.767M87.171 207.962C82.5587 207.886 78.0964 207.7 74.5565 207.421M87.171 207.962V200.767M74.5565 207.421C70.9515 207.137 68.303 206.757 67.4266 206.298C67.0705 205.971 66.9456 202.624 66.9393 198.252M74.5565 207.421V200.767M66.9393 198.252C66.9357 195.778 66.9702 192.976 67.0222 190.207M66.9393 198.252H74.5565V200.767M67.0222 190.207C67.1614 182.796 67.4266 175.625 67.4266 175.625M67.4266 175.625L67.4262 70.029M67.4266 175.625C67.4266 175.625 47.682 172.608 46.5851 171.602C45.4882 170.094 55.3609 70.029 55.3609 70.029M67.4262 70.029L67.4262 68.5207C67.4262 66.5095 66.878 65.0002 65.2331 65.0001M67.4262 70.029L55.3609 70.029M65.2331 65.0001C59.081 64.9824 57.468 66.5551 55.3609 70.029M107.464 200.767H94.8494M94.8494 200.767V198.252H87.171V200.767M87.171 200.767L74.5565 200.767M105.27 169.591H77.2988V148.472L91.5587 140.929L105.27 148.472V169.591Z" stroke="#221D18" stroke-width="4" stroke-linejoin="round"/>
</svg>
