<svg width="1232" height="287" viewBox="0 0 1232 287" fill="none" xmlns="http://www.w3.org/2000/svg">
<path d="M1183.14 285.793H1143.42L1123.64 223.104H1123.63L1109.69 178.93L1072.29 286.297L1035.84 179.603L1018.53 233.927L1018.51 233.922L1001.73 285.793H962.332L1034.62 58.9934L1072.61 170.197L1111.38 58.8952L1183.14 285.793Z" fill="#FFAFF3"/>
<path d="M1112.25 3.90977C1130.32 4.17501 1146.19 15.9841 1151.63 33.2148L1231.37 285.793H1194.33L1116.71 40.3597C1116.01 38.1681 1114 36.6657 1111.7 36.6324C1109.54 36.6013 1107.59 37.8687 1106.74 39.8162L1106.58 40.2138L1072.7 137.464L1039.5 40.245C1038.75 38.066 1036.69 36.6087 1034.39 36.6324C1032.09 36.6562 1030.06 38.1554 1029.36 40.3493L951.129 285.793H913.969L994.511 33.1046L994.776 32.3004C1000.5 15.4997 1016.22 4.09021 1034.03 3.90679C1051.1 3.73107 1066.45 13.901 1073.05 29.4249C1079.68 13.832 1095.13 3.65858 1112.25 3.90977Z" fill="#FFAFF3"/>
<path d="M739.922 39.8556C757.556 -12.5712 831.906 -13.6568 850.773 38.8594L939.478 285.787H763.593V249.171H887.392L816.279 51.2134C809.118 31.2786 780.728 31.8507 774.376 52.0577L700.318 285.787H662.603L739.515 41.1035L739.922 39.8556Z" fill="#FFAFF3"/>
<path fill-rule="evenodd" clip-rule="evenodd" d="M784.559 55.2594C787.844 44.8076 802.529 44.5109 806.234 54.8216L872.215 238.496H753.652L750.77 249.171L739.257 285.787H710.955L726.962 238.496L784.559 55.2594ZM776.881 201.918H820.233L797.111 137.554L776.881 201.918Z" fill="#FFAFF3"/>
<path d="M670.946 40.3322H499.396C496.448 40.3322 494.058 42.7217 494.058 45.6693V243.838C494.059 246.785 496.448 249.175 499.396 249.175H670.943V285.792H499.396C476.236 285.792 457.461 267.017 457.461 243.857V45.6886C457.461 22.5289 476.236 3.75415 499.396 3.75415H670.946V40.3322Z" fill="#FFAFF3"/>
<path d="M655.697 186.674H541.33V201.923H670.943V238.501H504.733V150.057H655.697V186.674Z" fill="#FFAFF3"/>
<path d="M670.946 87.6231H541.33V102.805H655.697V139.383H504.733V51.0064H670.946V87.6231Z" fill="#FFAFF3"/>
<path d="M265.325 243.856C265.325 246.803 267.715 249.193 270.662 249.193L442.212 249.194V285.811L270.662 285.81C247.502 285.81 228.728 267.035 228.728 243.875V3.67969H265.325V243.856Z" fill="#FFAFF3"/>
<path d="M312.597 201.941L442.212 201.942V238.52L275.999 238.519V3.67969H312.597V201.941Z" fill="#FFAFF3"/>
<path d="M213.479 40.2636H41.9375C38.9898 40.2636 36.6003 42.6532 36.6003 45.6008V243.729C36.5996 243.766 36.5974 243.803 36.5974 243.839C36.5974 246.787 38.9869 249.177 41.9345 249.177H171.549C174.496 249.177 176.886 246.787 176.886 243.839V139.384H99.1134V102.808H213.483V243.86C213.483 267.02 194.708 285.795 171.549 285.795H41.9345C18.775 285.795 0.000402419 267.02 0 243.86C2.17807e-07 243.78 0.00251403 243.699 0.0029783 243.619V45.6216C0.0029783 22.4618 18.7777 3.68565 41.9375 3.68565H213.479V40.2636Z" fill="#FFAFF3"/>
<path d="M213.479 87.5561H83.8719V201.926H129.614V186.677H99.1134V150.059H166.212V238.502H47.2746V50.9379H213.479V87.5561Z" fill="#FFAFF3"/>
</svg>
