<svg width="265" height="255" viewBox="0 0 265 255" fill="none" xmlns="http://www.w3.org/2000/svg">
<path d="M106.022 17.2763C109.558 7.24812 122.703 4.92852 129.453 13.1414L164.831 56.1881C169.208 61.5146 175.687 64.6707 182.578 64.8387L238.302 66.1956C248.941 66.4547 255.189 78.2281 249.465 87.1775L219.43 134.132C217.593 137.002 216.396 140.234 215.921 143.609C215.445 146.983 215.703 150.422 216.677 153.687L232.582 207.086C235.613 217.262 226.355 226.87 216.051 224.19L162.109 210.162C158.812 209.304 155.369 209.167 152.014 209.759C148.659 210.351 145.471 211.659 142.667 213.593L96.7719 245.238C88.0048 251.283 76.0212 245.425 75.392 234.826L72.0907 179.202C71.6821 172.319 68.2977 165.955 62.8207 161.768L18.5495 127.927C10.1116 121.477 11.9599 108.275 21.8684 104.39L73.7693 84.0401C80.1872 81.5237 85.1959 76.3404 87.489 69.8368L106.022 17.2763Z" fill="#FFAFF3"/>
<path d="M115.676 3.5656C109.389 4.67505 103.642 8.85256 101.263 15.5997L82.7298 68.1602C80.923 73.2845 76.9815 77.3644 71.9219 79.3483L20.0211 99.6977C6.70287 104.92 4.1284 123.253 15.4825 131.932L59.7535 165.773C61.8852 167.402 63.6409 169.471 64.9006 171.84C66.1604 174.21 66.8946 176.823 67.0532 179.501L70.3547 235.126C71.2018 249.396 87.8339 257.515 99.6184 249.389L145.513 217.744V217.743C147.723 216.218 150.235 215.187 152.878 214.721C155.521 214.255 158.234 214.363 160.832 215.04L214.774 229.068C228.624 232.67 241.478 219.348 237.397 205.647L221.492 152.248C220.725 149.677 220.521 146.97 220.896 144.312C221.27 141.655 222.213 139.11 223.66 136.851V136.849L253.695 89.8953V89.8951C261.398 77.8531 252.714 61.506 238.414 61.1579L182.69 59.801C177.258 59.6687 172.159 57.184 168.71 52.9874L133.332 9.94018C128.79 4.41461 121.962 2.45615 115.676 3.5656ZM117.368 13.1723C120.225 12.6681 123.345 13.6561 125.554 16.3434L160.931 59.3896C166.237 65.8461 174.095 69.674 182.444 69.8773L238.169 71.2341C245.148 71.4041 248.96 78.6038 245.214 84.4604L215.177 131.415C210.673 138.455 209.454 147.117 211.84 155.127L227.746 208.528C229.726 215.176 224.064 221.07 217.307 219.312L163.364 205.285C155.281 203.182 146.675 204.7 139.798 209.444L93.9045 241.089H93.9042C88.1544 245.054 80.8193 241.454 80.4082 234.527L77.1069 178.904C76.6116 170.56 72.5046 162.838 65.8666 157.764L21.5956 123.922C16.0738 119.701 17.196 111.631 23.6948 109.083L75.5959 88.7329C83.3718 85.684 89.4479 79.3971 92.2274 71.5145L92.2272 71.5142L110.761 18.9538C111.918 15.6729 114.512 13.6765 117.368 13.1724" fill="#221D18"/>
<path d="M130.378 142.734C129.132 143.216 128.128 144.173 127.588 145.395C127.046 146.617 127.012 148.005 127.493 149.251C128.115 150.861 129.047 152.332 130.237 153.582C131.426 154.832 132.85 155.834 134.427 156.532L134.429 156.533C136.004 157.231 137.702 157.611 139.424 157.653L139.425 157.654H139.428C141.15 157.695 142.862 157.396 144.47 156.775H144.471C146.079 156.154 147.549 155.221 148.798 154.031L148.799 154.03C150.047 152.839 151.048 151.415 151.745 149.838C152.444 148.259 152.825 146.558 152.865 144.832C152.897 143.495 152.396 142.201 151.474 141.234C150.553 140.267 149.284 139.707 147.949 139.675C147.288 139.66 146.63 139.775 146.013 140.013C145.396 140.252 144.834 140.61 144.355 141.067C143.877 141.524 143.493 142.07 143.225 142.676C142.958 143.281 142.812 143.934 142.797 144.595C142.788 144.995 142.7 145.389 142.537 145.754L142.536 145.756L142.535 145.758C142.372 146.125 142.139 146.457 141.85 146.733V146.735C141.559 147.011 141.218 147.227 140.844 147.371L140.843 147.372C140.468 147.517 140.069 147.586 139.667 147.577C139.267 147.567 138.871 147.478 138.505 147.315H138.503L138.501 147.314C138.135 147.153 137.804 146.92 137.528 146.63V146.629C137.251 146.338 137.033 145.995 136.889 145.621C136.408 144.374 135.452 143.369 134.231 142.828C133.01 142.287 131.624 142.253 130.378 142.734ZM86.5767 123.2C85.5816 123.239 84.6203 123.572 83.8146 124.158C83.0087 124.744 82.3946 125.556 82.0498 126.491C81.8208 127.111 81.7162 127.772 81.7422 128.433C81.7681 129.094 81.9238 129.745 82.2006 130.346C82.4774 130.947 82.8698 131.487 83.3553 131.936C83.8409 132.385 84.4102 132.734 85.0305 132.964L88.6515 134.3L85.7062 136.796C84.687 137.661 84.0522 138.894 83.9417 140.226C83.8312 141.558 84.2539 142.879 85.1169 143.9C85.9799 144.919 87.2125 145.554 88.5434 145.665C89.8743 145.776 91.1947 145.352 92.2139 144.489L101.748 136.411C102.419 135.841 102.93 135.106 103.229 134.278C103.528 133.449 103.605 132.557 103.453 131.689C103.3 130.822 102.922 130.009 102.358 129.334C101.794 128.657 101.063 128.141 100.237 127.836L88.5172 123.508C87.897 123.278 87.2375 123.174 86.5767 123.2ZM181.765 106.402C181.134 106.604 180.55 106.928 180.045 107.356L170.513 115.435C169.84 116.004 169.331 116.74 169.031 117.568C168.733 118.396 168.655 119.289 168.808 120.156C168.961 121.023 169.338 121.836 169.902 122.512C170.466 123.188 171.198 123.704 172.023 124.009L183.743 128.337C184.995 128.8 186.381 128.745 187.594 128.186C188.806 127.627 189.748 126.608 190.21 125.354C190.439 124.733 190.543 124.073 190.518 123.412C190.492 122.751 190.335 122.101 190.059 121.5C189.783 120.899 189.39 120.358 188.904 119.909C188.419 119.459 187.849 119.11 187.23 118.881L183.609 117.544L186.554 115.048C187.059 114.62 187.474 114.097 187.777 113.509C188.08 112.92 188.263 112.278 188.319 111.619C188.373 110.959 188.297 110.295 188.096 109.665C187.894 109.035 187.57 108.45 187.143 107.945C186.5 107.184 185.645 106.632 184.687 106.357C183.73 106.083 182.713 106.098 181.764 106.402" fill="#221D18"/>
<path fill-rule="evenodd" clip-rule="evenodd" d="M63.0169 165.022C60.8349 162.69 59.0382 161.091 55.0375 158.043L30.0375 139.043C34.423 137.718 36.3218 136.021 34.0373 130.619C38.5353 127.286 38.958 125.754 34.538 120.544C38.6801 118.119 38.1828 115.124 35.0373 111.044C39.677 108.404 40.1735 106.806 36.5373 103.544C44.5889 98.3341 38.284 95.3674 36.7465 94.6439C36.6609 94.6037 36.59 94.5703 36.5373 94.5439L63.9797 84.0434C57.9633 87.1266 56.0377 91.0435 59.0377 95.5434C50.8303 104.4 54.0377 108.044 57.5377 111.544C48.0377 115.044 50.5377 132.044 57.5377 132.044C57.3112 132.985 57.0681 133.927 56.8261 134.864C54.5553 143.655 52.386 152.053 65.0377 156.833C63.7414 160.066 63.1222 162.775 63.0169 165.022ZM145.037 179.544C154.7 177.969 157.414 172.019 160.038 165.043C164.313 170.052 167.23 171.968 175.538 169.912C181.422 171.57 183.608 170.329 186.038 165.043C193.381 165.642 196.215 164.456 198.038 158.544C205.206 157.861 207.721 156.68 208.276 152.487C212.568 152.576 215.28 151.696 216.038 147.043C216.685 146.638 217.296 146.028 217.851 145.474C218.207 145.118 218.54 144.785 218.846 144.544C218.569 147.413 219.012 150.349 220.038 154.043L234.038 201.043C214.542 212.421 195.89 211.481 166.038 213.043C155.538 209.543 149.038 211.043 141.538 217.043C100.735 229.121 86.0124 230.29 72.0375 224.043L69.5375 181.543C69.2935 175.196 68.5924 174.049 68.3092 173.847C69.9562 174.388 72.2684 173.082 74.3456 171.909C75.3269 171.355 76.2557 170.83 77.0371 170.544C80.1033 175.396 82.8676 176.03 88.5371 175.544C88.5371 184.544 99.4724 187.251 107.037 184.544C113.544 187.605 118.016 185.342 123.581 182.524C124.217 182.202 124.868 181.873 125.537 181.543C133.376 186.486 137.249 184.191 145.037 179.544ZM68.1883 173.806C68.2285 173.82 68.2688 173.834 68.3092 173.847C68.2341 173.793 68.1883 173.806 68.1883 173.806ZM225.004 130.355L226.038 128.544L243.537 101.044C242.057 101.414 238.037 101.044 238.374 95.5439C231.684 93.0436 229.158 87.75 233.537 82.5435C227.909 79.923 227.088 79.0565 229.072 75.0439C223.85 74.9277 222.35 73.944 224.537 69.0439C219.902 66.4776 223.037 63.0421 225.038 62.0434L196.114 61.3279C197.878 63.1879 198.162 66.495 196.598 71.0435C204.843 72.0937 206.184 74.8713 204.567 82.5435C211.332 81.1371 212.003 85.3802 212.538 94.0435C219.979 99.0055 220.352 102.517 217.038 109.543C222.089 113.793 222.736 116.642 220.038 122.544C220.301 122.897 220.57 123.254 220.84 123.612C222.583 125.923 224.371 128.294 225.004 130.355Z" fill="#B08544"/>
<path fill-rule="evenodd" clip-rule="evenodd" d="M71.3399 88.0434C73.5322 95.1737 71.6428 99.6424 65.0377 101.258C68.6273 108.041 69.1465 111.771 61.8032 118.043C68.4941 123.758 70.2327 129.933 63.9797 137.043C72.107 140.099 74.0841 145.357 69.0376 153.043C70.097 153.733 71.1449 154.399 72.1828 155.043C80.199 150.973 80.9254 152.887 79.5377 159.313C87.0792 156.494 90.0649 157.494 87.5377 163.202C93.5698 157.752 95.9645 158.814 99.0377 167.221C103.883 163.686 107.251 164.546 109.538 169.255C110.753 162.491 114.118 163.461 119.038 169.912C123.656 163.085 126.653 162.707 128.038 169.706C131.275 166.181 132.611 165.925 135.538 169.059C137.529 164.552 140.321 162.672 145.038 167.778C150.682 160.711 154.902 162.665 159.393 164.746C159.607 164.845 159.822 164.945 160.038 165.043C157.414 172.019 154.7 177.969 145.037 179.544C137.249 184.191 133.376 186.486 125.537 181.543C124.868 181.873 124.217 182.202 123.581 182.524C118.016 185.342 113.544 187.605 107.037 184.544C99.4724 187.251 88.5371 184.544 88.5371 175.544C82.8676 176.03 80.1033 175.396 77.0371 170.544C76.2557 170.83 75.3269 171.355 74.3456 171.909C72.2684 173.082 69.9562 174.388 68.3092 173.847C68.2341 173.793 68.1883 173.806 68.1883 173.806C65.1123 172.746 62.7817 170.041 63.0169 165.022C63.1222 162.775 63.7414 160.066 65.0377 156.833C52.386 152.053 54.5553 143.655 56.8261 134.864C57.0681 133.927 57.3112 132.985 57.5377 132.044C50.5377 132.044 48.0377 115.044 57.5377 111.544C54.0377 108.044 50.8303 104.4 59.0377 95.5434C56.0377 91.0435 57.9633 87.1266 63.9797 84.0434C65.5377 75.5434 73.9632 73.2467 78.038 78.0434C80.8553 83.9994 79.2315 87.6018 71.3399 88.0434Z" fill="#F0EEFF"/>
<path fill-rule="evenodd" clip-rule="evenodd" d="M175.538 169.912C167.23 171.968 164.313 170.052 160.038 165.043C161.937 161.482 164.591 160.798 167.924 163.202C170.078 158.211 172.945 156.603 177.038 160.192C178.783 155.811 179.932 153.876 184.038 156.833C184.545 153.464 185.246 150.319 190.538 152.487C189.376 146.539 189.236 143.756 196.598 147.043C195.81 140.489 197.689 137.866 203.038 139.614C200.981 131.029 204.885 130.223 209.089 129.356C209.571 129.256 210.057 129.156 210.538 129.043C207.724 126.152 207.008 123.472 209.967 121.043C204.418 116.837 203.943 112.99 208.276 109.543C202.308 105.143 203.37 101.104 204.351 97.3761C204.425 97.0968 204.498 96.8192 204.567 96.5434C197.306 95.7706 195.693 91.5785 198.538 84.579C193.291 83.6949 189.712 81.2246 190.538 74.5016C184.189 76.5777 181.09 74.249 182.038 66.7252C175.538 70.5435 170.251 64.1563 173.538 60.0439C176.124 56.808 182.538 57.0435 184.038 61.2315C189.762 58.9484 194 59.0987 196.114 61.3279C197.878 63.1879 198.162 66.495 196.598 71.0435C204.843 72.0937 206.184 74.8713 204.567 82.5435C211.332 81.1371 212.003 85.3802 212.538 94.0435C219.979 99.0055 220.352 102.517 217.038 109.543C222.089 113.793 222.736 116.642 220.038 122.544C220.301 122.897 220.57 123.254 220.84 123.612C222.583 125.923 224.371 128.294 225.004 130.355C225.651 132.463 225.09 134.248 222.038 135.313C223.048 139.902 222.278 141.831 218.846 144.544C218.54 144.785 218.207 145.118 217.851 145.474C217.296 146.028 216.685 146.638 216.038 147.043C215.28 151.696 212.568 152.576 208.276 152.487C207.721 156.68 205.206 157.861 198.038 158.544C196.215 164.456 193.381 165.642 186.038 165.043C183.608 170.329 181.422 171.57 175.538 169.912Z" fill="#F0EEFF"/>
<path fill-rule="evenodd" clip-rule="evenodd" d="M243.537 101.044C242.057 101.414 238.037 101.044 238.374 95.5439C231.684 93.0436 229.158 87.75 233.537 82.5435C227.909 79.923 227.088 79.0565 229.072 75.0439C223.85 74.9277 222.35 73.944 224.537 69.0439C219.902 66.4776 223.037 63.0421 225.038 62.0434C225.102 62.0115 225.172 61.9764 225.246 61.9388C227.505 60.8026 234.362 57.354 229.072 66.7252C235.597 65.9403 237.115 66.9998 233.537 73.1701C240.23 72.9225 242.074 76.0272 238.374 82.5435C244.538 84.1513 246.073 87.3714 242.057 92.5439C249.537 92.0439 247.537 100.044 243.537 101.044Z" fill="#F0EEFF"/>
<path fill-rule="evenodd" clip-rule="evenodd" d="M34.0373 130.619C36.3218 136.021 34.423 137.718 30.0375 139.043C23.538 140.044 22.5364 131.544 29.2552 130.619C22.9801 129.42 23.0373 122.544 29.2552 120.544C23.152 120.242 23.5373 112.044 30.2283 111.544C24.6856 108.944 25.5373 103.044 32.0834 103.044C27.5849 99.0128 30.5373 92.5439 36.5373 94.5439C36.59 94.5703 36.6609 94.6037 36.7465 94.6439C38.284 95.3674 44.5889 98.3341 36.5373 103.544C40.1735 106.806 39.677 108.404 35.0373 111.044C38.1828 115.124 38.6801 118.119 34.538 120.544C38.958 125.754 38.5353 127.286 34.0373 130.619Z" fill="#F0EEFF"/>
<path d="M63.0169 165.022C60.8349 162.69 59.0382 161.091 55.0375 158.043L30.0375 139.043M63.0169 165.022C63.1222 162.775 63.7414 160.066 65.0377 156.833C52.386 152.053 54.5553 143.655 56.8261 134.864C57.0681 133.927 57.3112 132.985 57.5377 132.044C50.5377 132.044 48.0377 115.044 57.5377 111.544C54.0377 108.044 50.8303 104.4 59.0377 95.5434C56.0377 91.0435 57.9633 87.1266 63.9797 84.0434M63.0169 165.022C62.7817 170.041 65.1123 172.746 68.1883 173.806M63.0169 165.022C63.0239 165.029 63.0308 165.036 63.0377 165.044M30.0375 139.043C34.423 137.718 36.3218 136.021 34.0373 130.619C38.5353 127.286 38.958 125.754 34.538 120.544C38.6801 118.119 38.1828 115.124 35.0373 111.044C39.677 108.404 40.1735 106.806 36.5373 103.544C44.5889 98.3341 38.284 95.3674 36.7465 94.6439C36.6609 94.6037 36.59 94.5703 36.5373 94.5439M30.0375 139.043C23.538 140.044 22.5364 131.544 29.2552 130.619C22.9801 129.42 23.0373 122.544 29.2552 120.544C23.152 120.242 23.5373 112.044 30.2283 111.544C24.6856 108.944 25.5373 103.044 32.0834 103.044C27.5849 99.0128 30.5373 92.5439 36.5373 94.5439M36.5373 94.5439L63.9797 84.0434M63.9797 84.0434C65.5377 75.5434 73.9632 73.2467 78.038 78.0434C80.8553 83.9994 79.2315 87.6018 71.3399 88.0434C73.5322 95.1737 71.6428 99.6424 65.0377 101.258C68.6273 108.041 69.1465 111.771 61.8032 118.043C68.4941 123.758 70.2327 129.933 63.9797 137.043C72.107 140.099 74.0841 145.357 69.0376 153.043C70.097 153.733 71.1449 154.399 72.1828 155.043C80.199 150.973 80.9254 152.887 79.5377 159.313C87.0792 156.494 90.0649 157.494 87.5377 163.202C93.5698 157.752 95.9645 158.814 99.0377 167.221C103.883 163.686 107.251 164.546 109.538 169.255C110.753 162.491 114.118 163.461 119.038 169.912C123.656 163.085 126.653 162.707 128.038 169.706C131.275 166.181 132.611 165.925 135.538 169.059C137.529 164.552 140.321 162.672 145.038 167.778C150.682 160.711 154.902 162.665 159.393 164.746C159.607 164.845 159.822 164.945 160.038 165.043M160.038 165.043C157.414 172.019 154.7 177.969 145.037 179.544C137.249 184.191 133.376 186.486 125.537 181.543C124.868 181.873 124.217 182.202 123.581 182.524C118.016 185.342 113.544 187.605 107.037 184.544C99.4724 187.251 88.5371 184.544 88.5371 175.544C82.8676 176.03 80.1033 175.396 77.0371 170.544C76.2557 170.83 75.3269 171.355 74.3456 171.909C72.2684 173.082 69.9562 174.388 68.3092 173.847M160.038 165.043C164.313 170.052 167.23 171.968 175.538 169.912C181.422 171.57 183.608 170.329 186.038 165.043C193.381 165.642 196.215 164.456 198.038 158.544C205.206 157.861 207.721 156.68 208.276 152.487C212.568 152.576 215.28 151.696 216.038 147.043C216.685 146.638 217.296 146.028 217.851 145.474C218.207 145.118 218.54 144.785 218.846 144.544M160.038 165.043C161.937 161.482 164.591 160.798 167.924 163.202C170.078 158.211 172.945 156.603 177.038 160.192C178.783 155.811 179.932 153.876 184.038 156.833C184.545 153.464 185.246 150.319 190.538 152.487C189.376 146.539 189.236 143.756 196.598 147.043C195.81 140.489 197.689 137.866 203.038 139.614C200.981 131.029 204.885 130.223 209.089 129.356C209.571 129.256 210.057 129.156 210.538 129.043C207.724 126.152 207.008 123.472 209.967 121.043C204.418 116.837 203.943 112.99 208.276 109.543C202.308 105.143 203.37 101.104 204.351 97.3761C204.425 97.0968 204.498 96.8192 204.567 96.5434C197.306 95.7706 195.693 91.5785 198.538 84.579C193.291 83.6949 189.712 81.2246 190.538 74.5016C184.189 76.5777 181.09 74.249 182.038 66.7252C175.538 70.5435 170.251 64.1563 173.538 60.0439C176.124 56.808 182.538 57.0435 184.038 61.2315C189.762 58.9484 194 59.0987 196.114 61.3279M160.038 165.043C170.287 182.488 170.605 194.504 166.038 213.043M218.846 144.544C218.569 147.413 219.012 150.349 220.038 154.043L234.038 201.043C214.542 212.421 195.89 211.481 166.038 213.043M218.846 144.544C222.278 141.831 223.048 139.902 222.038 135.313C225.09 134.248 225.651 132.463 225.004 130.355M166.038 213.043C155.538 209.543 149.038 211.043 141.538 217.043C100.735 229.121 86.0124 230.29 72.0375 224.043L69.5375 181.543C69.2935 175.196 68.5924 174.049 68.3092 173.847M68.3092 173.847C68.2688 173.834 68.2285 173.82 68.1883 173.806M68.3092 173.847C68.2341 173.793 68.1883 173.806 68.1883 173.806M225.004 130.355L226.038 128.544L243.537 101.044M225.004 130.355C224.371 128.294 222.583 125.923 220.84 123.612C220.57 123.254 220.301 122.897 220.038 122.544C222.736 116.642 222.089 113.793 217.038 109.543C220.352 102.517 219.979 99.0055 212.538 94.0435C212.003 85.3802 211.332 81.1371 204.567 82.5435C206.184 74.8713 204.843 72.0937 196.598 71.0435C198.162 66.495 197.878 63.1879 196.114 61.3279M243.537 101.044C242.057 101.414 238.037 101.044 238.374 95.5439C231.684 93.0436 229.158 87.75 233.537 82.5435C227.909 79.923 227.088 79.0565 229.072 75.0439C223.85 74.9277 222.35 73.944 224.537 69.0439C219.902 66.4776 223.037 63.0421 225.038 62.0434M243.537 101.044C247.537 100.044 249.537 92.0439 242.057 92.5439C246.073 87.3714 244.538 84.1513 238.374 82.5435C242.074 76.0272 240.23 72.9225 233.537 73.1701C237.115 66.9998 235.597 65.9403 229.072 66.7252C234.362 57.354 227.505 60.8026 225.246 61.9388C225.172 61.9764 225.102 62.0115 225.038 62.0434M225.038 62.0434L196.114 61.3279" stroke="#221D18" stroke-width="4" stroke-linejoin="round"/>
<path d="M144.542 186.721C144.974 184.273 147.307 182.639 149.755 183.07C152.202 183.502 153.837 185.836 153.405 188.283C152.974 190.731 150.64 192.365 148.192 191.934C145.745 191.502 144.11 189.168 144.542 186.721Z" stroke="#221D18" stroke-width="4"/>
<path d="M142.749 202.651C143.181 200.204 145.514 198.57 147.962 199.001C150.409 199.433 152.044 201.766 151.612 204.214C151.181 206.661 148.847 208.296 146.399 207.864C143.952 207.433 142.318 205.099 142.749 202.651Z" stroke="#221D18" stroke-width="4"/>
</svg>
