<svg width="270" height="259" viewBox="0 0 270 259" fill="none" xmlns="http://www.w3.org/2000/svg" xmlns:xlink="http://www.w3.org/1999/xlink">
<path d="M106.022 16.2763C109.558 6.24812 122.703 3.92852 129.453 12.1414L164.831 55.1881C169.208 60.5146 175.687 63.6707 182.578 63.8387L238.302 65.1956C248.941 65.4547 255.189 77.2281 249.465 86.1775L219.43 133.132C217.593 136.002 216.396 139.234 215.921 142.609C215.445 145.983 215.703 149.422 216.677 152.687L232.582 206.086C235.613 216.262 226.355 225.87 216.051 223.19L162.109 209.162C158.812 208.304 155.369 208.167 152.014 208.759C148.659 209.351 145.471 210.659 142.667 212.593L96.7719 244.238C88.0048 250.283 76.0212 244.425 75.392 233.826L72.0907 178.202C71.6821 171.319 68.2977 164.955 62.8207 160.768L18.5495 126.927C10.1116 120.477 11.9599 107.275 21.8684 103.39L73.7693 83.0401C80.1872 80.5237 85.1959 75.3404 87.489 68.8368L106.022 16.2763Z" fill="#FFAFF3"/>
<path d="M115.676 2.5656C109.389 3.67505 103.642 7.85256 101.263 14.5997L82.7298 67.1602C80.923 72.2845 76.9815 76.3644 71.9219 78.3483L20.0211 98.6977C6.70287 103.92 4.1284 122.253 15.4825 130.932L59.7535 164.773C61.8852 166.402 63.6409 168.471 64.9006 170.84C66.1604 173.21 66.8946 175.823 67.0532 178.501L70.3547 234.126C71.2018 248.396 87.8339 256.515 99.6184 248.389L145.513 216.744V216.743C147.723 215.218 150.235 214.187 152.878 213.721C155.521 213.255 158.234 213.363 160.832 214.04L214.774 228.068C228.624 231.67 241.478 218.348 237.397 204.647L221.492 151.248C220.725 148.677 220.521 145.97 220.896 143.312C221.27 140.655 222.213 138.11 223.66 135.851V135.849L253.695 88.8953V88.8951C261.398 76.8531 252.714 60.506 238.414 60.1579L182.69 58.801C177.258 58.6687 172.159 56.184 168.71 51.9874L133.332 8.94018C128.79 3.41461 121.962 1.45615 115.676 2.5656ZM117.368 12.1723C120.225 11.6681 123.345 12.6561 125.554 15.3434L160.931 58.3896C166.237 64.8461 174.095 68.674 182.444 68.8773L238.169 70.2341C245.148 70.4041 248.96 77.6038 245.214 83.4604L215.177 130.415C210.673 137.455 209.454 146.117 211.84 154.127L227.746 207.528C229.726 214.176 224.064 220.07 217.307 218.312L163.364 204.285C155.281 202.182 146.675 203.7 139.798 208.444L93.9045 240.089H93.9042C88.1544 244.054 80.8193 240.454 80.4082 233.527L77.1069 177.904C76.6116 169.56 72.5046 161.838 65.8666 156.764L21.5956 122.922C16.0738 118.701 17.196 110.631 23.6948 108.083L75.5959 87.7329C83.3718 84.684 89.4479 78.3971 92.2274 70.5145L92.2272 70.5142L110.761 17.9538C111.918 14.6729 114.512 12.6765 117.368 12.1724" fill="#221D18"/>
<path d="M130.378 141.734C129.132 142.216 128.128 143.173 127.588 144.395C127.046 145.617 127.012 147.005 127.493 148.251C128.115 149.861 129.047 151.332 130.237 152.582C131.426 153.832 132.85 154.834 134.427 155.532L134.429 155.533C136.004 156.231 137.702 156.611 139.424 156.653L139.425 156.654H139.428C141.15 156.695 142.862 156.396 144.47 155.775H144.471C146.079 155.154 147.549 154.221 148.798 153.031L148.799 153.03C150.047 151.839 151.048 150.415 151.745 148.838C152.444 147.259 152.825 145.558 152.865 143.832C152.897 142.495 152.396 141.201 151.474 140.234C150.553 139.267 149.284 138.707 147.949 138.675C147.288 138.66 146.63 138.775 146.013 139.013C145.396 139.252 144.834 139.61 144.355 140.067C143.877 140.524 143.493 141.07 143.225 141.676C142.958 142.281 142.812 142.934 142.797 143.595C142.788 143.995 142.7 144.389 142.537 144.754L142.536 144.756L142.535 144.758C142.372 145.125 142.139 145.457 141.85 145.733V145.735C141.559 146.011 141.218 146.227 140.844 146.371L140.843 146.372C140.468 146.517 140.069 146.586 139.667 146.577C139.267 146.567 138.871 146.478 138.505 146.315H138.503L138.501 146.314C138.135 146.153 137.804 145.92 137.528 145.63V145.629C137.251 145.338 137.033 144.995 136.889 144.621C136.408 143.374 135.452 142.369 134.231 141.828C133.01 141.287 131.624 141.253 130.378 141.734ZM86.5767 122.2C85.5816 122.239 84.6203 122.572 83.8146 123.158C83.0087 123.744 82.3946 124.556 82.0498 125.491C81.8208 126.111 81.7162 126.772 81.7422 127.433C81.7681 128.094 81.9238 128.745 82.2006 129.346C82.4774 129.947 82.8698 130.487 83.3553 130.936C83.8409 131.385 84.4102 131.734 85.0305 131.964L88.6515 133.3L85.7062 135.796C84.687 136.661 84.0522 137.894 83.9417 139.226C83.8312 140.558 84.2539 141.879 85.1169 142.9C85.9799 143.919 87.2125 144.554 88.5434 144.665C89.8743 144.776 91.1947 144.352 92.2139 143.489L101.748 135.411C102.419 134.841 102.93 134.106 103.229 133.278C103.528 132.449 103.605 131.557 103.453 130.689C103.3 129.822 102.922 129.009 102.358 128.334C101.794 127.657 101.063 127.141 100.237 126.836L88.5172 122.508C87.897 122.278 87.2375 122.174 86.5767 122.2ZM181.765 105.402C181.134 105.604 180.55 105.928 180.045 106.356L170.513 114.435C169.84 115.004 169.331 115.74 169.031 116.568C168.733 117.396 168.655 118.289 168.808 119.156C168.961 120.023 169.338 120.836 169.902 121.512C170.466 122.188 171.198 122.704 172.023 123.009L183.743 127.337C184.995 127.8 186.381 127.745 187.594 127.186C188.806 126.627 189.748 125.608 190.21 124.354C190.439 123.733 190.543 123.073 190.518 122.412C190.492 121.751 190.335 121.101 190.059 120.5C189.783 119.899 189.39 119.358 188.904 118.909C188.419 118.459 187.849 118.11 187.23 117.881L183.609 116.544L186.554 114.048C187.059 113.62 187.474 113.097 187.777 112.509C188.08 111.92 188.263 111.278 188.319 110.619C188.373 109.959 188.297 109.295 188.096 108.665C187.894 108.035 187.57 107.45 187.143 106.945C186.5 106.184 185.645 105.632 184.687 105.357C183.73 105.083 182.713 105.098 181.764 105.402" fill="#221D18"/>
<path fill-rule="evenodd" clip-rule="evenodd" d="M151.117 187.867C179.117 154.867 214.617 157.452 214.617 157.452C214.617 157.452 207.345 174.728 193.617 182.867C184.178 188.464 176.43 188.733 167.577 189.041C162.875 189.204 157.862 189.378 152.117 190.367C146.533 191.329 142.102 192.689 137.996 193.95C130.594 196.223 124.251 198.171 114.117 196.867C98.0418 194.799 80.6172 180.867 80.6172 180.867C80.6172 180.867 116.617 163.867 151.117 187.867Z" fill="#944BFA"/>
<path fill-rule="evenodd" clip-rule="evenodd" d="M151.117 187.867C179.117 154.867 214.617 157.452 214.617 157.452C214.617 157.452 207.345 174.728 193.617 182.867C184.178 188.464 176.43 188.733 167.577 189.041C162.875 189.204 157.862 189.378 152.117 190.367C146.533 191.329 142.102 192.689 137.996 193.95C130.594 196.223 124.251 198.171 114.117 196.867C98.0418 194.799 80.6172 180.867 80.6172 180.867C80.6172 180.867 116.617 163.867 151.117 187.867Z" fill="url(#pattern0_67_562)" fill-opacity="0.49"/>
<path fill-rule="evenodd" clip-rule="evenodd" d="M193.617 182.867C207.345 174.728 214.617 157.452 214.617 157.452C213.117 125.867 211.117 105.367 187.617 64.3672C215.117 97.3604 226.701 139.013 224.617 140.367C221.494 146.535 224.117 153.282 226.617 160.867C231.349 178.323 244.117 195.367 263.117 196.867C256.947 206.74 236.562 206.459 227.022 206.328C224.967 206.3 223.415 206.279 222.617 206.367C218.117 206.867 214.617 212.367 214.617 212.367C212.836 214.183 211.074 216.04 209.309 217.9C190.665 237.553 171.62 257.628 124.117 234.867C101.702 226.315 101.618 226.367 94.2014 230.9L94.1172 230.951C90.6674 234.157 87.9368 237.037 85.5553 239.548C76.4875 249.112 72.482 253.336 53.1172 249.867C72.3128 236.885 72.0581 209.46 70.1172 187.867C69.9433 179.859 70.437 174.066 66.1172 169.367C66.1172 169.367 56.1172 161.283 77.1172 83.3672C70.1172 129.367 70.1172 147.367 80.6172 180.867C80.6172 180.867 98.0418 194.799 114.117 196.867C124.251 198.171 130.594 196.223 137.996 193.95C142.102 192.689 146.533 191.329 152.117 190.367C157.862 189.378 162.875 189.204 167.577 189.041C176.43 188.733 184.178 188.464 193.617 182.867Z" fill="#944BFA"/>
<path fill-rule="evenodd" clip-rule="evenodd" d="M193.617 182.867C207.345 174.728 214.617 157.452 214.617 157.452C213.117 125.867 211.117 105.367 187.617 64.3672C215.117 97.3604 226.701 139.013 224.617 140.367C221.494 146.535 224.117 153.282 226.617 160.867C231.349 178.323 244.117 195.367 263.117 196.867C256.947 206.74 236.562 206.459 227.022 206.328C224.967 206.3 223.415 206.279 222.617 206.367C218.117 206.867 214.617 212.367 214.617 212.367C212.836 214.183 211.074 216.04 209.309 217.9C190.665 237.553 171.62 257.628 124.117 234.867C101.702 226.315 101.618 226.367 94.2014 230.9L94.1172 230.951C90.6674 234.157 87.9368 237.037 85.5553 239.548C76.4875 249.112 72.482 253.336 53.1172 249.867C72.3128 236.885 72.0581 209.46 70.1172 187.867C69.9433 179.859 70.437 174.066 66.1172 169.367C66.1172 169.367 56.1172 161.283 77.1172 83.3672C70.1172 129.367 70.1172 147.367 80.6172 180.867C80.6172 180.867 98.0418 194.799 114.117 196.867C124.251 198.171 130.594 196.223 137.996 193.95C142.102 192.689 146.533 191.329 152.117 190.367C157.862 189.378 162.875 189.204 167.577 189.041C176.43 188.733 184.178 188.464 193.617 182.867Z" fill="url(#pattern1_67_562)" fill-opacity="0.49"/>
<path d="M214.617 157.452C214.617 157.452 179.117 154.867 151.117 187.867C116.617 163.867 80.6172 180.867 80.6172 180.867M214.617 157.452C214.617 157.452 207.345 174.728 193.617 182.867C184.178 188.464 176.43 188.733 167.577 189.041C162.875 189.204 157.862 189.378 152.117 190.367C146.533 191.329 142.102 192.689 137.996 193.95C130.594 196.223 124.251 198.171 114.117 196.867C98.0418 194.799 80.6172 180.867 80.6172 180.867M214.617 157.452C213.117 125.867 211.117 105.367 187.617 64.3672C215.117 97.3604 226.701 139.013 224.617 140.367M214.617 157.452L224.617 140.367M80.6172 180.867C70.1172 147.367 70.1172 129.367 77.1172 83.3672C56.1172 161.283 66.1172 169.367 66.1172 169.367M80.6172 180.867L66.1172 169.367M224.617 140.367C221.494 146.535 224.117 153.282 226.617 160.867C231.349 178.323 244.117 195.367 263.117 196.867C256.947 206.74 236.562 206.459 227.022 206.328C224.967 206.3 223.415 206.279 222.617 206.367C218.117 206.867 214.617 212.367 214.617 212.367C212.836 214.183 211.074 216.04 209.309 217.9C190.665 237.553 171.62 257.628 124.117 234.867C101.702 226.315 101.618 226.367 94.2014 230.9M94.2014 230.9L94.1172 230.951M94.2014 230.9C94.1734 230.917 94.1454 230.934 94.1172 230.951M94.1172 230.951C90.6674 234.157 87.9368 237.037 85.5553 239.548C76.4875 249.112 72.482 253.336 53.1172 249.867C72.3128 236.885 72.0581 209.46 70.1172 187.867C69.9433 179.859 70.437 174.066 66.1172 169.367" stroke="#221D18" stroke-width="5" stroke-linejoin="round"/>
<defs>
<pattern id="pattern0_67_562" patternUnits="userSpaceOnUse" patternTransform="matrix(49.0853 0 0 20.2032 147.924 152.6)" preserveAspectRatio="none" viewBox="2.07812 1.70434 49.0853 20.2032" width="1" height="1">
<use xlink:href="#pattern0_67_562_inner" transform="translate(0 -20.2032)"/>
<use xlink:href="#pattern0_67_562_inner" transform="translate(24.5427 -10.1016)"/>
<g id="pattern0_67_562_inner">
<path fill-rule="evenodd" clip-rule="evenodd" d="M9.97016 7.68224C9.93688 7.58376 9.89805 7.49903 9.85337 7.42981C9.89317 7.51456 9.93209 7.5987 9.97016 7.68224ZM9.83523 7.40869L9.85337 7.42981C9.85079 7.41963 9.84468 7.41263 9.83523 7.40869Z" fill="#FE8FED"/>
<path fill-rule="evenodd" clip-rule="evenodd" d="M13.107 6.5956C13.1011 6.67777 13.1078 6.77074 13.126 6.87309C13.1192 6.78154 13.1129 6.68905 13.107 6.5956Z" fill="#FE8FED"/>
<path d="M2.37534 14.5065C1.6588 13.6798 9.39438 7.2249 9.83523 7.40869L9.85337 7.42981C9.89317 7.51456 9.93209 7.5987 9.97016 7.68224C10.5757 9.47413 9.34129 15.8196 7.96333 16.1721C7.12599 16.3866 6.38412 16.4821 5.73603 16.4826C3.76025 16.4839 2.65603 15.6009 2.37534 14.5065Z" fill="#FE8FED"/>
<path d="M13.1095 6.57331C13.3256 6.17851 23.2981 8.13235 23.0662 9.20626C23.3461 10.3009 22.8023 11.6059 21.0692 12.5546C20.5007 12.8657 19.8042 13.1385 18.9669 13.353C17.5891 13.7063 13.4564 8.73544 13.126 6.87309C13.1192 6.78154 13.1129 6.68905 13.107 6.5956C13.1049 6.58748 13.1058 6.58005 13.1095 6.57331Z" fill="#FE8FED"/>
<path fill-rule="evenodd" clip-rule="evenodd" d="M21.0692 12.5546C20.7387 14.4671 17.8139 15.8681 15.5921 13.783C14.3908 12.6555 13.395 10.509 13.126 6.87309C13.4564 8.73544 17.5891 13.7063 18.9669 13.353C19.8042 13.1385 20.5007 12.8657 21.0692 12.5546Z" fill="#FE8FED"/>
<path fill-rule="evenodd" clip-rule="evenodd" d="M11.1571 14.8388C11.6343 13.2727 11.4539 10.9382 9.97016 7.68224C9.93688 7.58376 9.89805 7.49903 9.85337 7.42981C9.85079 7.41963 9.84468 7.41263 9.83523 7.40869C9.12403 6.57337 9.28292 5.85331 9.80027 5.37948C9.96217 5.23119 10.1592 5.10702 10.3756 5.01097C10.6411 4.89315 10.9359 4.81766 11.2309 4.79192C11.4714 4.77093 11.7121 4.78299 11.9374 4.83213C12.6578 4.98933 13.2197 5.52591 13.1095 6.57331C13.1058 6.58005 13.1049 6.58748 13.107 6.5956C13.1011 6.67777 13.1078 6.77074 13.126 6.87309C13.395 10.509 14.3908 12.6555 15.5921 13.783C15.7096 18.3179 13.3033 18.9075 11.1571 14.8388Z" fill="#FE8FED"/>
<path fill-rule="evenodd" clip-rule="evenodd" d="M11.1571 14.8388C10.2486 17.8196 6.95736 18.016 5.73603 16.4826C6.38412 16.4821 7.12599 16.3866 7.96333 16.1721C9.34129 15.8196 10.5757 9.47413 9.97016 7.68224C11.4539 10.9382 11.6343 13.2727 11.1571 14.8388Z" fill="#FE8FED"/>
<path fill-rule="evenodd" clip-rule="evenodd" d="M10.3756 5.01097C10.1592 5.10702 9.96217 5.23119 9.80027 5.37948L7.28441 3.44315C8.9378 3.24577 9.57236 3.56172 10.3756 5.01097Z" fill="#FE8FED"/>
<path fill-rule="evenodd" clip-rule="evenodd" d="M11.9374 4.83213C11.7121 4.78299 11.4714 4.77093 11.2309 4.79192C11.1898 3.09391 11.677 2.53141 13.0968 1.95448L11.9374 4.83213Z" fill="#FE8FED"/>
<path d="M9.97016 7.68224C9.93688 7.58376 9.89805 7.49903 9.85337 7.42981M9.97016 7.68224C9.93209 7.5987 9.89317 7.51456 9.85337 7.42981M9.97016 7.68224C10.5757 9.47413 9.34129 15.8196 7.96333 16.1721C7.12599 16.3866 6.38412 16.4821 5.73603 16.4826M9.97016 7.68224C11.4539 10.9382 11.6343 13.2727 11.1571 14.8388M9.85337 7.42981L9.83523 7.40869M9.85337 7.42981C9.85079 7.41963 9.84468 7.41263 9.83523 7.40869M9.83523 7.40869C9.39438 7.2249 1.6588 13.6798 2.37534 14.5065C2.65603 15.6009 3.76025 16.4839 5.73603 16.4826M9.83523 7.40869C9.12403 6.57337 9.28292 5.85331 9.80027 5.37948M13.107 6.5956C13.1011 6.67777 13.1078 6.77074 13.126 6.87309M13.107 6.5956C13.1129 6.68905 13.1192 6.78154 13.126 6.87309M13.107 6.5956C13.1049 6.58748 13.1058 6.58005 13.1095 6.57331M13.107 6.5956C13.1079 6.58814 13.1087 6.58072 13.1095 6.57331M13.126 6.87309C13.4564 8.73544 17.5891 13.7063 18.9669 13.353C19.8042 13.1385 20.5007 12.8657 21.0692 12.5546M13.126 6.87309C13.395 10.509 14.3908 12.6555 15.5921 13.783M5.73603 16.4826C6.95736 18.016 10.2486 17.8196 11.1571 14.8388M13.1095 6.57331C13.3256 6.17851 23.2981 8.13235 23.0662 9.20626C23.3461 10.3009 22.8023 11.6059 21.0692 12.5546M13.1095 6.57331C13.2197 5.52591 12.6578 4.98933 11.9374 4.83213M21.0692 12.5546C20.7387 14.4671 17.8139 15.8681 15.5921 13.783M15.5921 13.783C15.7096 18.3179 13.3033 18.9075 11.1571 14.8388M15.5921 13.783C15.5914 13.7566 15.5907 13.7301 15.5898 13.7035M9.80027 5.37948C9.96217 5.23119 10.1592 5.10702 10.3756 5.01097M9.80027 5.37948L7.28441 3.44315C8.9378 3.24577 9.57236 3.56172 10.3756 5.01097M10.3756 5.01097C10.6411 4.89315 10.9359 4.81766 11.2309 4.79192M11.2309 4.79192C11.4714 4.77093 11.7121 4.78299 11.9374 4.83213M11.2309 4.79192C11.1898 3.09391 11.677 2.53141 13.0968 1.95448L11.9374 4.83213" stroke="#FFD596" stroke-width="0.5" stroke-linejoin="round"/>
</g>
<use xlink:href="#pattern0_67_562_inner" transform="translate(24.5427 10.1016)"/>
</pattern><pattern id="pattern1_67_562" patternUnits="userSpaceOnUse" patternTransform="matrix(49.0853 0 0 20.2032 147.924 152.6)" preserveAspectRatio="none" viewBox="2.07812 1.70434 49.0853 20.2032" width="1" height="1">
<use xlink:href="#pattern1_67_562_inner" transform="translate(0 -20.2032)"/>
<use xlink:href="#pattern1_67_562_inner" transform="translate(24.5427 -10.1016)"/>
<g id="pattern1_67_562_inner">
<path fill-rule="evenodd" clip-rule="evenodd" d="M9.97016 7.68224C9.93688 7.58376 9.89805 7.49903 9.85337 7.42981C9.89317 7.51456 9.93209 7.5987 9.97016 7.68224ZM9.83523 7.40869L9.85337 7.42981C9.85079 7.41963 9.84468 7.41263 9.83523 7.40869Z" fill="#FE8FED"/>
<path fill-rule="evenodd" clip-rule="evenodd" d="M13.107 6.5956C13.1011 6.67777 13.1078 6.77074 13.126 6.87309C13.1192 6.78154 13.1129 6.68905 13.107 6.5956Z" fill="#FE8FED"/>
<path d="M2.37534 14.5065C1.6588 13.6798 9.39438 7.2249 9.83523 7.40869L9.85337 7.42981C9.89317 7.51456 9.93209 7.5987 9.97016 7.68224C10.5757 9.47413 9.34129 15.8196 7.96333 16.1721C7.12599 16.3866 6.38412 16.4821 5.73603 16.4826C3.76025 16.4839 2.65603 15.6009 2.37534 14.5065Z" fill="#FE8FED"/>
<path d="M13.1095 6.57331C13.3256 6.17851 23.2981 8.13235 23.0662 9.20626C23.3461 10.3009 22.8023 11.6059 21.0692 12.5546C20.5007 12.8657 19.8042 13.1385 18.9669 13.353C17.5891 13.7063 13.4564 8.73544 13.126 6.87309C13.1192 6.78154 13.1129 6.68905 13.107 6.5956C13.1049 6.58748 13.1058 6.58005 13.1095 6.57331Z" fill="#FE8FED"/>
<path fill-rule="evenodd" clip-rule="evenodd" d="M21.0692 12.5546C20.7387 14.4671 17.8139 15.8681 15.5921 13.783C14.3908 12.6555 13.395 10.509 13.126 6.87309C13.4564 8.73544 17.5891 13.7063 18.9669 13.353C19.8042 13.1385 20.5007 12.8657 21.0692 12.5546Z" fill="#FE8FED"/>
<path fill-rule="evenodd" clip-rule="evenodd" d="M11.1571 14.8388C11.6343 13.2727 11.4539 10.9382 9.97016 7.68224C9.93688 7.58376 9.89805 7.49903 9.85337 7.42981C9.85079 7.41963 9.84468 7.41263 9.83523 7.40869C9.12403 6.57337 9.28292 5.85331 9.80027 5.37948C9.96217 5.23119 10.1592 5.10702 10.3756 5.01097C10.6411 4.89315 10.9359 4.81766 11.2309 4.79192C11.4714 4.77093 11.7121 4.78299 11.9374 4.83213C12.6578 4.98933 13.2197 5.52591 13.1095 6.57331C13.1058 6.58005 13.1049 6.58748 13.107 6.5956C13.1011 6.67777 13.1078 6.77074 13.126 6.87309C13.395 10.509 14.3908 12.6555 15.5921 13.783C15.7096 18.3179 13.3033 18.9075 11.1571 14.8388Z" fill="#FE8FED"/>
<path fill-rule="evenodd" clip-rule="evenodd" d="M11.1571 14.8388C10.2486 17.8196 6.95736 18.016 5.73603 16.4826C6.38412 16.4821 7.12599 16.3866 7.96333 16.1721C9.34129 15.8196 10.5757 9.47413 9.97016 7.68224C11.4539 10.9382 11.6343 13.2727 11.1571 14.8388Z" fill="#FE8FED"/>
<path fill-rule="evenodd" clip-rule="evenodd" d="M10.3756 5.01097C10.1592 5.10702 9.96217 5.23119 9.80027 5.37948L7.28441 3.44315C8.9378 3.24577 9.57236 3.56172 10.3756 5.01097Z" fill="#FE8FED"/>
<path fill-rule="evenodd" clip-rule="evenodd" d="M11.9374 4.83213C11.7121 4.78299 11.4714 4.77093 11.2309 4.79192C11.1898 3.09391 11.677 2.53141 13.0968 1.95448L11.9374 4.83213Z" fill="#FE8FED"/>
<path d="M9.97016 7.68224C9.93688 7.58376 9.89805 7.49903 9.85337 7.42981M9.97016 7.68224C9.93209 7.5987 9.89317 7.51456 9.85337 7.42981M9.97016 7.68224C10.5757 9.47413 9.34129 15.8196 7.96333 16.1721C7.12599 16.3866 6.38412 16.4821 5.73603 16.4826M9.97016 7.68224C11.4539 10.9382 11.6343 13.2727 11.1571 14.8388M9.85337 7.42981L9.83523 7.40869M9.85337 7.42981C9.85079 7.41963 9.84468 7.41263 9.83523 7.40869M9.83523 7.40869C9.39438 7.2249 1.6588 13.6798 2.37534 14.5065C2.65603 15.6009 3.76025 16.4839 5.73603 16.4826M9.83523 7.40869C9.12403 6.57337 9.28292 5.85331 9.80027 5.37948M13.107 6.5956C13.1011 6.67777 13.1078 6.77074 13.126 6.87309M13.107 6.5956C13.1129 6.68905 13.1192 6.78154 13.126 6.87309M13.107 6.5956C13.1049 6.58748 13.1058 6.58005 13.1095 6.57331M13.107 6.5956C13.1079 6.58814 13.1087 6.58072 13.1095 6.57331M13.126 6.87309C13.4564 8.73544 17.5891 13.7063 18.9669 13.353C19.8042 13.1385 20.5007 12.8657 21.0692 12.5546M13.126 6.87309C13.395 10.509 14.3908 12.6555 15.5921 13.783M5.73603 16.4826C6.95736 18.016 10.2486 17.8196 11.1571 14.8388M13.1095 6.57331C13.3256 6.17851 23.2981 8.13235 23.0662 9.20626C23.3461 10.3009 22.8023 11.6059 21.0692 12.5546M13.1095 6.57331C13.2197 5.52591 12.6578 4.98933 11.9374 4.83213M21.0692 12.5546C20.7387 14.4671 17.8139 15.8681 15.5921 13.783M15.5921 13.783C15.7096 18.3179 13.3033 18.9075 11.1571 14.8388M15.5921 13.783C15.5914 13.7566 15.5907 13.7301 15.5898 13.7035M9.80027 5.37948C9.96217 5.23119 10.1592 5.10702 10.3756 5.01097M9.80027 5.37948L7.28441 3.44315C8.9378 3.24577 9.57236 3.56172 10.3756 5.01097M10.3756 5.01097C10.6411 4.89315 10.9359 4.81766 11.2309 4.79192M11.2309 4.79192C11.4714 4.77093 11.7121 4.78299 11.9374 4.83213M11.2309 4.79192C11.1898 3.09391 11.677 2.53141 13.0968 1.95448L11.9374 4.83213" stroke="#FFD596" stroke-width="0.5" stroke-linejoin="round"/>
</g>
<use xlink:href="#pattern1_67_562_inner" transform="translate(24.5427 10.1016)"/>
</pattern></defs>
</svg>
