<svg width="270" height="262" viewBox="0 0 270 262" fill="none" xmlns="http://www.w3.org/2000/svg">
<path d="M106.022 24.2529C109.558 14.2247 122.703 11.9051 129.453 20.1179L164.831 63.1646C169.208 68.4912 175.687 71.6473 182.578 71.8152L238.302 73.1722C248.941 73.4312 255.189 85.2047 249.465 94.154L219.43 141.109C217.593 143.979 216.396 147.21 215.921 150.586C215.445 153.96 215.703 157.398 216.677 160.664L232.582 214.063C235.613 224.238 226.355 233.846 216.051 231.166L162.109 217.139C158.812 216.281 155.369 216.143 152.014 216.735C148.659 217.328 145.471 218.635 142.667 220.569L96.7719 252.215C88.0048 258.26 76.0212 252.401 75.392 241.803L72.0907 186.178C71.6821 179.296 68.2977 172.932 62.8207 168.745L18.5495 134.904C10.1116 128.453 11.9599 115.251 21.8684 111.366L73.7693 91.0167C80.1872 88.5003 85.1959 83.3169 87.489 76.8134L106.022 24.2529Z" fill="#FFAFF3"/>
<path d="M115.676 10.5422C109.389 11.6516 103.642 15.8291 101.263 22.5762L82.7298 75.1367C80.923 80.2611 76.9815 84.341 71.9219 86.3248L20.0211 106.674C6.70287 111.896 4.1284 130.23 15.4825 138.908L59.7535 172.75C61.8852 174.379 63.6409 176.448 64.9006 178.816C66.1604 181.186 66.8946 183.799 67.0532 186.478L70.3547 242.102C71.2018 256.372 87.8339 264.491 99.6184 256.366L145.513 224.72V224.719C147.723 223.195 150.235 222.164 152.878 221.698C155.521 221.232 158.234 221.34 160.832 222.017L214.774 236.045C228.624 239.647 241.478 226.324 237.397 212.624L221.492 159.225C220.725 156.653 220.521 153.947 220.896 151.288C221.27 148.631 222.213 146.086 223.66 143.827V143.826L253.695 96.8719V96.8716C261.398 84.8297 252.714 68.4826 238.414 68.1345L182.69 66.7775C177.258 66.6452 172.159 64.1606 168.71 59.964L133.332 16.9167C128.79 11.3912 121.962 9.43271 115.676 10.5422ZM117.368 20.1489C120.225 19.6447 123.345 20.6327 125.554 23.32L160.931 66.3662C166.237 72.8226 174.095 76.6505 182.444 76.8539L238.169 78.2107C245.148 78.3806 248.96 85.5803 245.214 91.437L215.177 138.392C210.673 145.431 209.454 154.093 211.84 162.104L227.746 215.504C229.726 222.153 224.064 228.047 217.307 226.289L163.364 212.261C155.281 210.158 146.675 211.676 139.798 216.42L93.9045 248.065H93.9042C88.1544 252.03 80.8193 248.431 80.4082 241.504L77.1069 185.881C76.6116 177.536 72.5046 169.814 65.8666 164.741L21.5956 130.899C16.0738 126.678 17.196 118.607 23.6948 116.059L75.5959 95.7095C83.3718 92.6606 89.4479 86.3737 92.2274 78.491L92.2272 78.4908L110.761 25.9304C111.918 22.6494 114.512 20.6531 117.368 20.149" fill="#221D18"/>
<path d="M130.378 149.711C129.132 150.192 128.128 151.15 127.588 152.372C127.046 153.594 127.012 154.981 127.493 156.227C128.115 157.837 129.047 159.309 130.237 160.559C131.426 161.809 132.85 162.81 134.427 163.508L134.429 163.51C136.004 164.208 137.702 164.588 139.424 164.63L139.425 164.631H139.428C141.15 164.671 142.862 164.373 144.47 163.751H144.471C146.079 163.13 147.549 162.198 148.798 161.007L148.799 161.006C150.047 159.815 151.048 158.392 151.745 156.814C152.444 155.236 152.825 153.535 152.865 151.809C152.897 150.472 152.396 149.178 151.474 148.21C150.553 147.244 149.284 146.683 147.949 146.652C147.288 146.637 146.63 146.751 146.013 146.989C145.396 147.229 144.834 147.587 144.355 148.044C143.877 148.5 143.493 149.047 143.225 149.653C142.958 150.258 142.812 150.91 142.797 151.572C142.788 151.971 142.7 152.366 142.537 152.731L142.536 152.732L142.535 152.735C142.372 153.101 142.139 153.434 141.85 153.71V153.711C141.559 153.987 141.218 154.204 140.844 154.347L140.843 154.349C140.468 154.494 140.069 154.563 139.667 154.554C139.267 154.544 138.871 154.455 138.505 154.292H138.503L138.501 154.291C138.135 154.129 137.804 153.896 137.528 153.607V153.605C137.251 153.314 137.033 152.972 136.889 152.597C136.408 151.35 135.452 150.346 134.231 149.804C133.01 149.264 131.624 149.23 130.378 149.711ZM86.5767 130.176C85.5816 130.215 84.6203 130.549 83.8146 131.135C83.0087 131.721 82.3946 132.532 82.0498 133.467C81.8208 134.088 81.7162 134.748 81.7422 135.41C81.7681 136.071 81.9238 136.721 82.2006 137.322C82.4774 137.923 82.8698 138.464 83.3553 138.912C83.8409 139.362 84.4102 139.711 85.0305 139.94L88.6515 141.277L85.7062 143.773C84.687 144.637 84.0522 145.871 83.9417 147.202C83.8312 148.534 84.2539 149.856 85.1169 150.876C85.9799 151.896 87.2125 152.531 88.5434 152.641C89.8743 152.752 91.1947 152.329 92.2139 151.466L101.748 143.387C102.419 142.818 102.93 142.082 103.229 141.254C103.528 140.425 103.605 139.533 103.453 138.665C103.3 137.798 102.922 136.986 102.358 136.31C101.794 135.634 101.063 135.117 100.237 134.812L88.5172 130.484C87.897 130.255 87.2375 130.15 86.5767 130.176ZM181.765 113.379C181.134 113.581 180.55 113.905 180.045 114.332L170.513 122.411C169.84 122.981 169.331 123.716 169.031 124.545C168.733 125.373 168.655 126.265 168.808 127.133C168.961 128 169.338 128.812 169.902 129.488C170.466 130.164 171.198 130.68 172.023 130.986L183.743 135.314C184.995 135.776 186.381 135.722 187.594 135.163C188.806 134.603 189.748 133.584 190.21 132.331C190.439 131.71 190.543 131.05 190.518 130.388C190.492 129.727 190.335 129.077 190.059 128.476C189.783 127.875 189.39 127.334 188.904 126.885C188.419 126.436 187.849 126.087 187.23 125.858L183.609 124.52L186.554 122.025C187.059 121.597 187.474 121.074 187.777 120.485C188.08 119.897 188.263 119.255 188.319 118.595C188.373 117.936 188.297 117.272 188.096 116.641C187.894 116.011 187.57 115.427 187.143 114.922C186.5 114.161 185.645 113.608 184.687 113.334C183.73 113.059 182.713 113.075 181.764 113.379" fill="#221D18"/>
<path fill-rule="evenodd" clip-rule="evenodd" d="M79.658 95.0911C76.4415 94.1351 66.2759 88.3119 59.96 98.5644C60.2076 103.09 68.098 107.284 79.658 95.0911Z" fill="#C8FFA7"/>
<path fill-rule="evenodd" clip-rule="evenodd" d="M79.658 95.0911C76.4415 94.1351 66.2759 88.3119 59.96 98.5644C60.2076 103.09 68.098 107.284 79.658 95.0911Z" fill="black" fill-opacity="0.5"/>
<path fill-rule="evenodd" clip-rule="evenodd" d="M168.5 86.4166C166.183 93.4255 140.423 105.701 131.067 107.35C121.831 110.875 101.855 103.268 89.2422 98.4659C84.9654 96.8375 81.5354 95.5314 79.658 95.0911C79.2388 94.9665 78.7016 94.7593 78.0703 94.5157C73.8573 92.8904 65.4528 89.648 59.96 98.5644C59.1897 84.4842 77.0235 77.2779 87.856 75.3679C98.3428 73.5188 111.803 77.0653 125.693 80.7251C140.501 84.6265 155.796 88.6566 168.5 86.4166Z" fill="#C8FFA7"/>
<path fill-rule="evenodd" clip-rule="evenodd" d="M125.693 80.7251C111.803 77.0653 98.3428 73.5188 87.856 75.3679C94.6345 55.3364 105.677 20.946 105.677 20.946C106.956 18.1975 108.832 15.9213 111.085 14.186C127.927 6.12495 135.14 24.1875 143.434 44.9555C149.665 60.5596 156.506 77.691 168.5 86.4166C155.796 88.6566 140.501 84.6265 125.693 80.7251Z" fill="#C8FFA7"/>
<path fill-rule="evenodd" clip-rule="evenodd" d="M143.434 44.9555C135.14 24.1875 127.927 6.12495 111.085 14.186C113.558 12.2808 116.486 11.0275 119.577 10.5172C125.162 9.59491 131.278 11.0982 136.206 15.5629L172.203 58.4644C177.57 64.6486 184.469 65.3051 188.191 65.6594C189.77 65.8096 190.777 65.9055 190.855 66.3453C193.726 77.9121 185.996 81.6193 180.349 84.3273C179.109 84.9219 169.874 86.3816 168.5 86.4166C156.506 77.691 149.665 60.5596 143.434 44.9555Z" fill="#C8FFA7"/>
<path fill-rule="evenodd" clip-rule="evenodd" d="M143.434 44.9555C135.14 24.1875 127.927 6.12495 111.085 14.186C113.558 12.2808 116.486 11.0275 119.577 10.5172C125.162 9.59491 131.278 11.0982 136.206 15.5629L172.203 58.4644C177.57 64.6486 184.469 65.3051 188.191 65.6594C189.77 65.8096 190.777 65.9055 190.855 66.3453C193.726 77.9121 185.996 81.6193 180.349 84.3273C179.109 84.9219 169.874 86.3816 168.5 86.4166C156.506 77.691 149.665 60.5596 143.434 44.9555Z" fill="black" fill-opacity="0.2"/>
<path d="M79.658 95.0911C76.4415 94.1351 66.2759 88.3119 59.96 98.5644M79.658 95.0911C68.098 107.284 60.2076 103.09 59.96 98.5644M79.658 95.0911C81.5354 95.5314 84.9654 96.8375 89.2422 98.4659C101.855 103.268 121.831 110.875 131.067 107.35C140.423 105.701 166.183 93.4255 168.5 86.4166M79.658 95.0911C79.2388 94.9665 78.7016 94.7593 78.0703 94.5157C73.8573 92.8904 65.4528 89.648 59.96 98.5644M59.96 98.5644C59.1897 84.4842 77.0235 77.2779 87.856 75.3679M168.5 86.4166C155.796 88.6566 140.501 84.6265 125.693 80.7251C111.803 77.0653 98.3428 73.5188 87.856 75.3679M168.5 86.4166C156.506 77.691 149.665 60.5596 143.434 44.9555C135.14 24.1875 127.927 6.12495 111.085 14.186M168.5 86.4166C169.874 86.3816 179.109 84.9219 180.349 84.3273C185.996 81.6193 193.726 77.9121 190.855 66.3453C190.777 65.9055 189.77 65.8096 188.191 65.6594C184.469 65.3051 177.57 64.6486 172.203 58.4644L136.206 15.5629C131.278 11.0982 125.162 9.59491 119.577 10.5172C116.486 11.0275 113.558 12.2808 111.085 14.186M87.856 75.3679C94.6345 55.3364 105.677 20.946 105.677 20.946C106.956 18.1975 108.832 15.9213 111.085 14.186" stroke="#221D18" stroke-width="5"/>
<path d="M106.707 52.351C106.754 51.7555 107.433 51.4389 107.918 51.786L112.122 54.7936C112.76 55.2504 113.566 55.406 114.328 55.2215L119.355 54.0051C119.935 53.8649 120.444 54.4126 120.264 54.9807L118.7 59.9089C118.583 60.2786 118.546 60.6694 118.594 61.0546C118.641 61.4397 118.77 61.8103 118.974 62.1407L121.681 66.5431C121.993 67.0502 121.631 67.7063 121.032 67.7107L115.862 67.7494C115.474 67.7522 115.092 67.8386 114.74 68.0025C114.433 68.1459 114.155 68.346 113.922 68.5917L113.825 68.6997L110.473 72.637C110.085 73.0926 109.35 72.9482 109.162 72.3835L107.531 67.4786C107.283 66.7335 106.723 66.1331 105.997 65.8341L101.218 63.8652C100.668 63.6383 100.575 62.8956 101.057 62.5406L105.218 59.4712C105.85 59.0055 106.248 58.2884 106.308 57.5059L106.707 52.351Z" fill="#FFAFF3" stroke="#221D18"/>
</svg>
