<svg width="265" height="254" viewBox="0 0 265 254" fill="none" xmlns="http://www.w3.org/2000/svg">
<path d="M106.022 16.2763C109.558 6.24812 122.703 3.92852 129.453 12.1414L164.831 55.1881C169.208 60.5146 175.687 63.6707 182.578 63.8387L238.302 65.1956C248.941 65.4547 255.189 77.2281 249.465 86.1775L219.43 133.132C217.593 136.002 216.396 139.234 215.921 142.609C215.445 145.983 215.703 149.422 216.677 152.687L232.582 206.086C235.613 216.262 226.355 225.87 216.051 223.19L162.109 209.162C158.812 208.304 155.369 208.167 152.014 208.759C148.659 209.351 145.471 210.659 142.667 212.593L96.7719 244.238C88.0048 250.283 76.0212 244.425 75.392 233.826L72.0907 178.202C71.6821 171.319 68.2977 164.955 62.8207 160.768L18.5495 126.927C10.1116 120.477 11.9599 107.275 21.8684 103.39L73.7693 83.0401C80.1872 80.5237 85.1959 75.3404 87.489 68.8368L106.022 16.2763Z" fill="#FFAFF3"/>
<path d="M115.676 2.5656C109.389 3.67505 103.642 7.85256 101.263 14.5997L82.7298 67.1602C80.923 72.2845 76.9815 76.3644 71.9219 78.3483L20.0211 98.6977C6.70287 103.92 4.1284 122.253 15.4825 130.932L59.7535 164.773C61.8852 166.402 63.6409 168.471 64.9006 170.84C66.1604 173.21 66.8946 175.823 67.0532 178.501L70.3547 234.126C71.2018 248.396 87.8339 256.515 99.6184 248.389L145.513 216.744V216.743C147.723 215.218 150.235 214.187 152.878 213.721C155.521 213.255 158.234 213.363 160.832 214.04L214.774 228.068C228.624 231.67 241.478 218.348 237.397 204.647L221.492 151.248C220.725 148.677 220.521 145.97 220.896 143.312C221.27 140.655 222.213 138.11 223.66 135.851V135.849L253.695 88.8953V88.8951C261.398 76.8531 252.714 60.506 238.414 60.1579L182.69 58.801C177.258 58.6687 172.159 56.184 168.71 51.9874L133.332 8.94018C128.79 3.41461 121.962 1.45615 115.676 2.5656ZM117.368 12.1723C120.225 11.6681 123.345 12.6561 125.554 15.3434L160.931 58.3896C166.237 64.8461 174.095 68.674 182.444 68.8773L238.169 70.2341C245.148 70.4041 248.96 77.6038 245.214 83.4604L215.177 130.415C210.673 137.455 209.454 146.117 211.84 154.127L227.746 207.528C229.726 214.176 224.064 220.07 217.307 218.312L163.364 204.285C155.281 202.182 146.675 203.7 139.798 208.444L93.9045 240.089H93.9042C88.1544 244.054 80.8193 240.454 80.4082 233.527L77.1069 177.904C76.6116 169.56 72.5046 161.838 65.8666 156.764L21.5956 122.922C16.0738 118.701 17.196 110.631 23.6948 108.083L75.5959 87.7329C83.3718 84.684 89.4479 78.3971 92.2274 70.5145L92.2272 70.5142L110.761 17.9538C111.918 14.6729 114.512 12.6765 117.368 12.1724" fill="#221D18"/>
<path d="M130.378 141.734C129.132 142.216 128.128 143.173 127.588 144.395C127.046 145.617 127.012 147.005 127.493 148.251C128.115 149.861 129.047 151.332 130.237 152.582C131.426 153.832 132.85 154.834 134.427 155.532L134.429 155.533C136.004 156.231 137.702 156.611 139.424 156.653L139.425 156.654H139.428C141.15 156.695 142.862 156.396 144.47 155.775H144.471C146.079 155.154 147.549 154.221 148.798 153.031L148.799 153.03C150.047 151.839 151.048 150.415 151.745 148.838C152.444 147.259 152.825 145.558 152.865 143.832C152.897 142.495 152.396 141.201 151.474 140.234C150.553 139.267 149.284 138.707 147.949 138.675C147.288 138.66 146.63 138.775 146.013 139.013C145.396 139.252 144.834 139.61 144.355 140.067C143.877 140.524 143.493 141.07 143.225 141.676C142.958 142.281 142.812 142.934 142.797 143.595C142.788 143.995 142.7 144.389 142.537 144.754L142.536 144.756L142.535 144.758C142.372 145.125 142.139 145.457 141.85 145.733V145.735C141.559 146.011 141.218 146.227 140.844 146.371L140.843 146.372C140.468 146.517 140.069 146.586 139.667 146.577C139.267 146.567 138.871 146.478 138.505 146.315H138.503L138.501 146.314C138.135 146.153 137.804 145.92 137.528 145.63V145.629C137.251 145.338 137.033 144.995 136.889 144.621C136.408 143.374 135.452 142.369 134.231 141.828C133.01 141.287 131.624 141.253 130.378 141.734ZM86.5767 122.2C85.5816 122.239 84.6203 122.572 83.8146 123.158C83.0087 123.744 82.3946 124.556 82.0498 125.491C81.8208 126.111 81.7162 126.772 81.7422 127.433C81.7681 128.094 81.9238 128.745 82.2006 129.346C82.4774 129.947 82.8698 130.487 83.3553 130.936C83.8409 131.385 84.4102 131.734 85.0305 131.964L88.6515 133.3L85.7062 135.796C84.687 136.661 84.0522 137.894 83.9417 139.226C83.8312 140.558 84.2539 141.879 85.1169 142.9C85.9799 143.919 87.2125 144.554 88.5434 144.665C89.8743 144.776 91.1947 144.352 92.2139 143.489L101.748 135.411C102.419 134.841 102.93 134.106 103.229 133.278C103.528 132.449 103.605 131.557 103.453 130.689C103.3 129.822 102.922 129.009 102.358 128.334C101.794 127.657 101.063 127.141 100.237 126.836L88.5172 122.508C87.897 122.278 87.2375 122.174 86.5767 122.2ZM181.765 105.402C181.134 105.604 180.55 105.928 180.045 106.356L170.513 114.435C169.84 115.004 169.331 115.74 169.031 116.568C168.733 117.396 168.655 118.289 168.808 119.156C168.961 120.023 169.338 120.836 169.902 121.512C170.466 122.188 171.198 122.704 172.023 123.009L183.743 127.337C184.995 127.8 186.381 127.745 187.594 127.186C188.806 126.627 189.748 125.608 190.21 124.354C190.439 123.733 190.543 123.073 190.518 122.412C190.492 121.751 190.335 121.101 190.059 120.5C189.783 119.899 189.39 119.358 188.904 118.909C188.419 118.459 187.849 118.11 187.23 117.881L183.609 116.544L186.554 114.048C187.059 113.62 187.474 113.097 187.777 112.509C188.08 111.92 188.263 111.278 188.319 110.619C188.373 109.959 188.297 109.295 188.096 108.665C187.894 108.035 187.57 107.45 187.143 106.945C186.5 106.184 185.645 105.632 184.687 105.357C183.73 105.083 182.713 105.098 181.764 105.402" fill="#221D18"/>
</svg>
