<svg width="266" height="256" viewBox="0 0 266 256" fill="none" xmlns="http://www.w3.org/2000/svg">
<path d="M107.022 18.2763C110.558 8.24812 123.703 5.92852 130.453 14.1414L165.831 57.1881C170.208 62.5146 176.687 65.6707 183.578 65.8387L239.302 67.1956C249.941 67.4547 256.189 79.2281 250.465 88.1775L220.43 135.132C218.593 138.002 217.396 141.234 216.921 144.609C216.445 147.983 216.703 151.422 217.677 154.687L233.582 208.086C236.613 218.262 227.355 227.87 217.051 225.19L163.109 211.162C159.812 210.304 156.369 210.167 153.014 210.759C149.659 211.351 146.471 212.659 143.667 214.593L97.7719 246.238C89.0048 252.283 77.0212 246.425 76.392 235.826L73.0907 180.202C72.6821 173.319 69.2977 166.955 63.8207 162.768L19.5495 128.927C11.1116 122.477 12.9599 109.275 22.8684 105.39L74.7693 85.0401C81.1872 82.5237 86.1959 77.3404 88.489 70.8368L107.022 18.2763Z" fill="#FFAFF3"/>
<path d="M116.676 4.5656C110.389 5.67505 104.642 9.85256 102.263 16.5997L83.7298 69.1602C81.923 74.2845 77.9815 78.3644 72.9219 80.3483L21.0211 100.698C7.70287 105.92 5.1284 124.253 16.4825 132.932L60.7535 166.773C62.8852 168.402 64.6409 170.471 65.9006 172.84C67.1604 175.21 67.8946 177.823 68.0532 180.501L71.3547 236.126C72.2018 250.396 88.8339 258.515 100.618 250.389L146.513 218.744V218.743C148.723 217.218 151.235 216.187 153.878 215.721C156.521 215.255 159.234 215.363 161.832 216.04L215.774 230.068C229.624 233.67 242.478 220.348 238.397 206.647L222.492 153.248C221.725 150.677 221.521 147.97 221.896 145.312C222.27 142.655 223.213 140.11 224.66 137.851V137.849L254.695 90.8953V90.8951C262.398 78.8531 253.714 62.506 239.414 62.1579L183.69 60.801C178.258 60.6687 173.159 58.184 169.71 53.9874L134.332 10.9402C129.79 5.41461 122.962 3.45615 116.676 4.5656ZM118.368 14.1723C121.225 13.6681 124.345 14.6561 126.554 17.3434L161.931 60.3896C167.237 66.8461 175.095 70.674 183.444 70.8773L239.169 72.2341C246.148 72.4041 249.96 79.6038 246.214 85.4604L216.177 132.415C211.673 139.455 210.454 148.117 212.84 156.127L228.746 209.528C230.726 216.176 225.064 222.07 218.307 220.312L164.364 206.285C156.281 204.182 147.675 205.7 140.798 210.444L94.9045 242.089H94.9042C89.1544 246.054 81.8193 242.454 81.4082 235.527L78.1069 179.904C77.6116 171.56 73.5046 163.838 66.8666 158.764L22.5956 124.922C17.0738 120.701 18.196 112.631 24.6948 110.083L76.5959 89.7329C84.3718 86.684 90.4479 80.3971 93.2274 72.5145L93.2272 72.5142L111.761 19.9538C112.918 16.6729 115.512 14.6765 118.368 14.1724" fill="#221D18"/>
<path d="M131.378 143.734C130.132 144.216 129.128 145.173 128.588 146.395C128.046 147.617 128.012 149.005 128.493 150.251C129.115 151.861 130.047 153.332 131.237 154.582C132.426 155.832 133.85 156.834 135.427 157.532L135.429 157.533C137.004 158.231 138.702 158.611 140.424 158.653L140.425 158.654H140.428C142.15 158.695 143.862 158.396 145.47 157.775H145.471C147.079 157.154 148.549 156.221 149.798 155.031L149.799 155.03C151.047 153.839 152.048 152.415 152.745 150.838C153.444 149.259 153.825 147.558 153.865 145.832C153.897 144.495 153.396 143.201 152.474 142.234C151.553 141.267 150.284 140.707 148.949 140.675C148.288 140.66 147.63 140.775 147.013 141.013C146.396 141.252 145.834 141.61 145.355 142.067C144.877 142.524 144.493 143.07 144.225 143.676C143.958 144.281 143.812 144.934 143.797 145.595C143.788 145.995 143.7 146.389 143.537 146.754L143.536 146.756L143.535 146.758C143.372 147.125 143.139 147.457 142.85 147.733V147.735C142.559 148.011 142.218 148.227 141.844 148.371L141.843 148.372C141.468 148.517 141.069 148.586 140.667 148.577C140.267 148.567 139.871 148.478 139.505 148.315H139.503L139.501 148.314C139.135 148.153 138.804 147.92 138.528 147.63V147.629C138.251 147.338 138.033 146.995 137.889 146.621C137.408 145.374 136.452 144.369 135.231 143.828C134.01 143.287 132.624 143.253 131.378 143.734ZM87.5767 124.2C86.5816 124.239 85.6203 124.572 84.8146 125.158C84.0087 125.744 83.3946 126.556 83.0498 127.491C82.8208 128.111 82.7162 128.772 82.7422 129.433C82.7681 130.094 82.9238 130.745 83.2006 131.346C83.4774 131.947 83.8698 132.487 84.3553 132.936C84.8409 133.385 85.4102 133.734 86.0305 133.964L89.6515 135.3L86.7062 137.796C85.687 138.661 85.0522 139.894 84.9417 141.226C84.8312 142.558 85.2539 143.879 86.1169 144.9C86.9799 145.919 88.2125 146.554 89.5434 146.665C90.8743 146.776 92.1947 146.352 93.2139 145.489L102.748 137.411C103.419 136.841 103.93 136.106 104.229 135.278C104.528 134.449 104.605 133.557 104.453 132.689C104.3 131.822 103.922 131.009 103.358 130.334C102.794 129.657 102.063 129.141 101.237 128.836L89.5172 124.508C88.897 124.278 88.2375 124.174 87.5767 124.2ZM182.765 107.402C182.134 107.604 181.55 107.928 181.045 108.356L171.513 116.435C170.84 117.004 170.331 117.74 170.031 118.568C169.733 119.396 169.655 120.289 169.808 121.156C169.961 122.023 170.338 122.836 170.902 123.512C171.466 124.188 172.198 124.704 173.023 125.009L184.743 129.337C185.995 129.8 187.381 129.745 188.594 129.186C189.806 128.627 190.748 127.608 191.21 126.354C191.439 125.733 191.543 125.073 191.518 124.412C191.492 123.751 191.335 123.101 191.059 122.5C190.783 121.899 190.39 121.358 189.904 120.909C189.419 120.459 188.849 120.11 188.23 119.881L184.609 118.544L187.554 116.048C188.059 115.62 188.474 115.097 188.777 114.509C189.08 113.92 189.263 113.278 189.319 112.619C189.373 111.959 189.297 111.295 189.096 110.665C188.894 110.035 188.57 109.45 188.143 108.945C187.5 108.184 186.645 107.632 185.687 107.357C184.73 107.083 183.713 107.098 182.764 107.402" fill="#221D18"/>
<path fill-rule="evenodd" clip-rule="evenodd" d="M235.219 203.376C240.219 221.376 226.219 230.376 212.719 225.876L172.719 215.376L172.248 215.244C156.688 210.867 155.12 210.425 145.219 215.376L102.719 244.876C94.7188 253.376 74.7188 252.876 73.2188 233.376L72.2188 216.876C87.8937 217.955 91.6515 213.292 90.7188 196.916L94.7188 196.208L121.719 191.427L132.719 189.479L148.719 186.646L151.219 200.376L156.219 199.376L153.219 185.849L166.719 183.459L177.219 181.6L201.719 177.261L206.719 176.376C212.968 193.207 217.219 196.916 230.719 188.126L235.219 203.376Z" fill="#9DE7FF"/>
<path fill-rule="evenodd" clip-rule="evenodd" d="M151.219 200.376L148.719 186.646L153.219 185.849L156.219 199.376L151.219 200.376Z" fill="#9DE7FF"/>
<path fill-rule="evenodd" clip-rule="evenodd" d="M151.219 200.376L148.719 186.646L153.219 185.849L156.219 199.376L151.219 200.376Z" fill="black" fill-opacity="0.3"/>
<path fill-rule="evenodd" clip-rule="evenodd" d="M230.719 188.126C217.219 196.916 212.968 193.207 206.719 176.376L212.29 175.376L226.219 172.876L230.719 188.126Z" fill="#9DE7FF"/>
<path fill-rule="evenodd" clip-rule="evenodd" d="M230.719 188.126C217.219 196.916 212.968 193.207 206.719 176.376L212.29 175.376L226.219 172.876L230.719 188.126Z" fill="black" fill-opacity="0.3"/>
<path fill-rule="evenodd" clip-rule="evenodd" d="M90.7188 196.916C91.6515 213.292 87.8937 217.955 72.2188 216.876L71.2188 200.376L84.7188 197.981L90.7188 196.916Z" fill="#9DE7FF"/>
<path fill-rule="evenodd" clip-rule="evenodd" d="M90.7188 196.916C91.6515 213.292 87.8937 217.955 72.2188 216.876L71.2188 200.376L84.7188 197.981L90.7188 196.916Z" fill="black" fill-opacity="0.3"/>
<path fill-rule="evenodd" clip-rule="evenodd" d="M71.2188 200.376L70.7188 187.876L84.2188 185.478L84.7188 197.981L71.2188 200.376Z" fill="#9DE7FF"/>
<path fill-rule="evenodd" clip-rule="evenodd" d="M71.2188 200.376L70.7188 187.876L84.2188 185.478L84.7188 197.981L71.2188 200.376Z" fill="black" fill-opacity="0.2"/>
<path fill-rule="evenodd" clip-rule="evenodd" d="M94.7188 196.208L90.7188 196.916L84.7188 197.981L84.2188 185.478L94.2188 183.876L94.7188 196.208Z" fill="#9DE7FF"/>
<path fill-rule="evenodd" clip-rule="evenodd" d="M121.719 191.427L94.7188 196.208L94.2188 183.876L119.719 179.172L121.719 191.427Z" fill="#9DE7FF"/>
<path fill-rule="evenodd" clip-rule="evenodd" d="M121.719 191.427L94.7188 196.208L94.2188 183.876L119.719 179.172L121.719 191.427Z" fill="black" fill-opacity="0.2"/>
<path fill-rule="evenodd" clip-rule="evenodd" d="M132.719 189.479L121.719 191.427L119.719 179.172L130.219 177.307L132.719 189.479Z" fill="#9DE7FF"/>
<path fill-rule="evenodd" clip-rule="evenodd" d="M148.719 186.646L132.719 189.479L130.219 177.307L163.608 171.376L166.719 183.459L153.219 185.849L148.719 186.646Z" fill="#9DE7FF"/>
<path fill-rule="evenodd" clip-rule="evenodd" d="M148.719 186.646L132.719 189.479L130.219 177.307L163.608 171.376L166.719 183.459L153.219 185.849L148.719 186.646Z" fill="black" fill-opacity="0.2"/>
<path fill-rule="evenodd" clip-rule="evenodd" d="M177.219 181.6L166.719 183.459L163.608 171.376L173.719 169.58L177.219 181.6Z" fill="#9DE7FF"/>
<path fill-rule="evenodd" clip-rule="evenodd" d="M201.719 177.261L177.219 181.6L173.719 169.58L198.219 165.228L201.719 177.261Z" fill="#9DE7FF"/>
<path fill-rule="evenodd" clip-rule="evenodd" d="M201.719 177.261L177.219 181.6L173.719 169.58L198.219 165.228L201.719 177.261Z" fill="black" fill-opacity="0.2"/>
<path fill-rule="evenodd" clip-rule="evenodd" d="M206.719 176.376L201.719 177.261L198.219 165.228L208.719 163.363L212.29 175.376L206.719 176.376Z" fill="#9DE7FF"/>
<path fill-rule="evenodd" clip-rule="evenodd" d="M226.219 172.876L212.29 175.376L208.719 163.363L222.719 160.876L226.219 172.876Z" fill="#9DE7FF"/>
<path fill-rule="evenodd" clip-rule="evenodd" d="M226.219 172.876L212.29 175.376L208.719 163.363L222.719 160.876L226.219 172.876Z" fill="black" fill-opacity="0.2"/>
<path d="M172.719 215.376L212.719 225.876C226.219 230.376 240.219 221.376 235.219 203.376L230.719 188.126M172.719 215.376L172.248 215.244M172.719 215.376C172.56 215.331 172.404 215.287 172.248 215.244M172.248 215.244C156.688 210.867 155.12 210.425 145.219 215.376L102.719 244.876C94.7188 253.376 74.7188 252.876 73.2188 233.376L72.2188 216.876M72.2188 216.876C87.8937 217.955 91.6515 213.292 90.7188 196.916M72.2188 216.876L71.2188 200.376M90.7188 196.916L94.7188 196.208M90.7188 196.916L84.7188 197.981M94.7188 196.208L121.719 191.427M94.7188 196.208L94.2188 183.876M121.719 191.427L132.719 189.479M121.719 191.427L119.719 179.172M132.719 189.479L148.719 186.646M132.719 189.479L130.219 177.307M148.719 186.646L151.219 200.376L156.219 199.376L153.219 185.849M148.719 186.646L153.219 185.849M153.219 185.849L166.719 183.459M166.719 183.459L177.219 181.6M166.719 183.459L163.608 171.376M177.219 181.6L201.719 177.261M177.219 181.6L173.719 169.58M201.719 177.261L206.719 176.376M201.719 177.261L198.219 165.228M206.719 176.376C212.968 193.207 217.219 196.916 230.719 188.126M206.719 176.376L212.29 175.376M230.719 188.126L226.219 172.876M212.29 175.376L226.219 172.876M212.29 175.376L208.719 163.363M226.219 172.876L222.719 160.876L208.719 163.363M71.2188 200.376L84.7188 197.981M71.2188 200.376L70.7188 187.876L84.2188 185.478M84.7188 197.981L84.2188 185.478M84.2188 185.478L94.2188 183.876M94.2188 183.876L119.719 179.172M119.719 179.172L130.219 177.307M130.219 177.307L163.608 171.376M163.608 171.376L173.719 169.58M173.719 169.58L198.219 165.228M198.219 165.228L208.719 163.363" stroke="#221D18" stroke-width="4"/>
</svg>
