<svg width="289" height="266" viewBox="0 0 289 266" fill="none" xmlns="http://www.w3.org/2000/svg">
<path d="M123.637 22.3648C139.453 -16.3425 228.753 27.69 248.857 77.4537C258.249 100.702 259.98 145.996 279.142 136.238C280.495 164.418 246.792 160.44 240.303 176.769L123.637 22.3648Z" fill="#292D3E" stroke="#151515" stroke-width="4" stroke-linejoin="round"/>
<path d="M123.428 23.6151C94.2351 10.7216 62.5996 47.4422 52.8221 100.215C48.2544 124.869 55.5897 169.599 34.8671 163.858C39.1598 191.742 83.6112 186.956 93.2263 201.663L123.428 23.6151Z" fill="#292D3E" stroke="#151515" stroke-width="4" stroke-linejoin="round"/>
<path d="M127.022 27.2763C130.558 17.2481 143.703 14.9285 150.453 23.1414L185.831 66.1881C190.208 71.5146 196.687 74.6707 203.578 74.8387L259.302 76.1956C269.941 76.4547 276.189 88.2281 270.465 97.1775L240.43 144.132C238.593 147.002 237.396 150.234 236.921 153.609C236.445 156.983 236.703 160.422 237.677 163.687L253.582 217.086C256.613 227.262 247.355 236.87 237.051 234.19L183.109 220.162C179.812 219.304 176.369 219.167 173.014 219.759C169.659 220.351 166.471 221.659 163.667 223.593L117.772 255.238C109.005 261.283 97.0212 255.425 96.392 244.826L93.0907 189.202C92.6821 182.319 89.2977 175.955 83.8207 171.768L39.5495 137.927C31.1116 131.477 32.9599 118.275 42.8684 114.39L94.7693 94.0401C101.187 91.5237 106.196 86.3404 108.489 79.8368L127.022 27.2763Z" fill="#FFAFF3"/>
<path d="M136.676 13.5656C130.389 14.675 124.642 18.8526 122.263 25.5997L103.73 78.1602C101.923 83.2845 97.9815 87.3644 92.9219 89.3483L41.0211 109.698C27.7029 114.92 25.1284 133.253 36.4825 141.932L80.7535 175.773C82.8852 177.402 84.6409 179.471 85.9006 181.84C87.1604 184.21 87.8946 186.823 88.0532 189.501L91.3547 245.126C92.2018 259.396 108.834 267.515 120.618 259.389L166.513 227.744V227.743C168.723 226.218 171.235 225.187 173.878 224.721C176.521 224.255 179.234 224.363 181.832 225.04L235.774 239.068C249.624 242.67 262.478 229.348 258.397 215.647L242.492 162.248C241.725 159.677 241.521 156.97 241.896 154.312C242.27 151.655 243.213 149.11 244.66 146.851V146.849L274.695 99.8953V99.8951C282.398 87.8531 273.714 71.506 259.414 71.1579L203.69 69.801C198.258 69.6687 193.159 67.184 189.71 62.9874L154.332 19.9402C149.79 14.4146 142.962 12.4561 136.676 13.5656ZM138.368 23.1723C141.225 22.6681 144.345 23.6561 146.554 26.3434L181.931 69.3896C187.237 75.8461 195.095 79.674 203.444 79.8773L259.169 81.2341C266.148 81.4041 269.96 88.6038 266.214 94.4604L236.177 141.415C231.673 148.455 230.454 157.117 232.84 165.127L248.746 218.528C250.726 225.176 245.064 231.07 238.307 229.312L184.364 215.285C176.281 213.182 167.675 214.7 160.798 219.444L114.904 251.089H114.904C109.154 255.054 101.819 251.454 101.408 244.527L98.1069 188.904C97.6116 180.56 93.5046 172.838 86.8666 167.764L42.5956 133.922C37.0738 129.701 38.196 121.631 44.6948 119.083L96.5959 98.7329C104.372 95.684 110.448 89.3971 113.227 81.5145L113.227 81.5142L131.761 28.9538C132.918 25.6729 135.512 23.6765 138.368 23.1724" fill="#221D18"/>
<path d="M151.378 152.734C150.132 153.216 149.128 154.173 148.588 155.395C148.046 156.617 148.012 158.005 148.493 159.251C149.115 160.861 150.047 162.332 151.237 163.582C152.426 164.832 153.85 165.834 155.427 166.532L155.429 166.533C157.004 167.231 158.702 167.611 160.424 167.653L160.425 167.654H160.428C162.15 167.695 163.862 167.396 165.47 166.775H165.471C167.079 166.154 168.549 165.221 169.798 164.031L169.799 164.03C171.047 162.839 172.048 161.415 172.745 159.838C173.444 158.259 173.825 156.558 173.865 154.832C173.897 153.495 173.396 152.201 172.474 151.234C171.553 150.267 170.284 149.707 168.949 149.675C168.288 149.66 167.63 149.775 167.013 150.013C166.396 150.252 165.834 150.61 165.355 151.067C164.877 151.524 164.493 152.07 164.225 152.676C163.958 153.281 163.812 153.934 163.797 154.595C163.788 154.995 163.7 155.389 163.537 155.754L163.536 155.756L163.535 155.758C163.372 156.125 163.139 156.457 162.85 156.733V156.735C162.559 157.011 162.218 157.227 161.844 157.371L161.843 157.372C161.468 157.517 161.069 157.586 160.667 157.577C160.267 157.567 159.871 157.478 159.505 157.315H159.503L159.501 157.314C159.135 157.153 158.804 156.92 158.528 156.63V156.629C158.251 156.338 158.033 155.995 157.889 155.621C157.408 154.374 156.452 153.369 155.231 152.828C154.01 152.287 152.624 152.253 151.378 152.734ZM107.577 133.2C106.582 133.239 105.62 133.572 104.815 134.158C104.009 134.744 103.395 135.556 103.05 136.491C102.821 137.111 102.716 137.772 102.742 138.433C102.768 139.094 102.924 139.745 103.201 140.346C103.477 140.947 103.87 141.487 104.355 141.936C104.841 142.385 105.41 142.734 106.031 142.964L109.652 144.3L106.706 146.796C105.687 147.661 105.052 148.894 104.942 150.226C104.831 151.558 105.254 152.879 106.117 153.9C106.98 154.919 108.212 155.554 109.543 155.665C110.874 155.776 112.195 155.352 113.214 154.489L122.748 146.411C123.419 145.841 123.93 145.106 124.229 144.278C124.528 143.449 124.605 142.557 124.453 141.689C124.3 140.822 123.922 140.009 123.358 139.334C122.794 138.657 122.063 138.141 121.237 137.836L109.517 133.508C108.897 133.278 108.238 133.174 107.577 133.2ZM202.765 116.402C202.134 116.604 201.55 116.928 201.045 117.356L191.513 125.435C190.84 126.004 190.331 126.74 190.031 127.568C189.733 128.396 189.655 129.289 189.808 130.156C189.961 131.023 190.338 131.836 190.902 132.512C191.466 133.188 192.198 133.704 193.023 134.009L204.743 138.337C205.995 138.8 207.381 138.745 208.594 138.186C209.806 137.627 210.748 136.608 211.21 135.354C211.439 134.733 211.543 134.073 211.518 133.412C211.492 132.751 211.335 132.101 211.059 131.5C210.783 130.899 210.39 130.358 209.904 129.909C209.419 129.459 208.849 129.11 208.23 128.881L204.609 127.544L207.554 125.048C208.059 124.62 208.474 124.097 208.777 123.509C209.08 122.92 209.263 122.278 209.319 121.619C209.373 120.959 209.297 120.295 209.096 119.665C208.894 119.035 208.57 118.45 208.143 117.945C207.5 117.184 206.645 116.632 205.687 116.357C204.73 116.083 203.713 116.098 202.764 116.402" fill="#221D18"/>
<path fill-rule="evenodd" clip-rule="evenodd" d="M191.019 90.4533C158.228 84.8093 130.832 55.9766 126.87 22.9402C135.654 14.5719 141.015 12.8983 151.439 17.0624C181.933 55.7482 198.795 76.2177 211.69 71.705C210.192 73.7432 209.055 75.4547 208.064 76.9466C204.266 82.6625 202.61 85.1549 191.019 90.4533Z" fill="#292D3E"/>
<path fill-rule="evenodd" clip-rule="evenodd" d="M191.019 90.4533C158.228 84.8093 130.832 55.9766 126.87 22.9402C135.654 14.5719 141.015 12.8983 151.439 17.0624C181.933 55.7482 198.795 76.2177 211.69 71.705C210.192 73.7432 209.055 75.4547 208.064 76.9466C204.266 82.6625 202.61 85.1549 191.019 90.4533Z" fill="#C3C1B9" fill-opacity="0.09"/>
<path fill-rule="evenodd" clip-rule="evenodd" d="M126.87 22.9402C130.832 55.9766 158.228 84.8093 191.019 90.4533C192.781 106.265 112.222 142.844 92.3542 113.399C77.6724 149.405 103.011 180.144 129.402 192.239C113.313 195.937 85.2382 193.996 71.7571 177.315C58.2754 160.633 57.2864 133.156 62.5745 105.303C71.1623 60.0709 99.9374 19.9936 126.87 22.9402Z" fill="#292D3E"/>
<path fill-rule="evenodd" clip-rule="evenodd" d="M126.87 22.9402C130.832 55.9766 158.228 84.8093 191.019 90.4533C192.781 106.265 112.222 142.844 92.3542 113.399C77.6724 149.405 103.011 180.144 129.402 192.239C113.313 195.937 85.2382 193.996 71.7571 177.315C58.2754 160.633 57.2864 133.156 62.5745 105.303C71.1623 60.0709 99.9374 19.9936 126.87 22.9402Z" fill="#C3C1B9" fill-opacity="0.16"/>
<path d="M191.019 90.4533C158.228 84.8093 130.832 55.9766 126.87 22.9402M191.019 90.4533C202.61 85.1549 204.266 82.6625 208.064 76.9466C209.055 75.4547 210.192 73.7432 211.69 71.705C198.795 76.2177 181.933 55.7482 151.439 17.0624C141.015 12.8983 135.654 14.5719 126.87 22.9402M191.019 90.4533C192.781 106.265 112.222 142.844 92.3542 113.399C77.6724 149.405 103.011 180.144 129.402 192.239C113.313 195.937 85.2382 193.996 71.7571 177.315C58.2754 160.633 57.2864 133.156 62.5745 105.303C71.1623 60.0709 99.9374 19.9936 126.87 22.9402" stroke="#151515" stroke-width="4" stroke-linejoin="round"/>
</svg>
