<svg width="266" height="258" viewBox="0 0 266 258" fill="none" xmlns="http://www.w3.org/2000/svg">
<path d="M106.022 19.6591C109.558 9.63093 122.703 7.31133 129.453 15.5242L164.831 58.5709C169.208 63.8975 175.687 67.0536 182.578 67.2215L238.302 68.5784C248.941 68.8375 255.189 80.6109 249.465 89.5603L219.43 136.515C217.593 139.385 216.396 142.617 215.921 145.992C215.445 149.366 215.703 152.804 216.677 156.07L232.582 209.469C235.613 219.644 226.355 229.253 216.051 226.573L162.109 212.545C158.812 211.687 155.369 211.549 152.014 212.142C148.659 212.734 145.471 214.042 142.667 215.976L96.7719 247.621C88.0048 253.666 76.0212 247.807 75.392 237.209L72.0907 181.585C71.6821 174.702 68.2977 168.338 62.8207 164.151L18.5495 130.31C10.1116 123.86 11.9599 110.657 21.8684 106.772L73.7693 86.423C80.1872 83.9065 85.1959 78.7232 87.489 72.2196L106.022 19.6591Z" fill="#FFAFF3"/>
<path d="M115.676 5.94841C109.389 7.05786 103.642 11.2354 101.263 17.9825L82.7298 70.543C80.923 75.6673 76.9815 79.7472 71.9219 81.7311L20.0211 102.081C6.70287 107.302 4.1284 125.636 15.4825 134.315L59.7535 168.156C61.8852 169.785 63.6409 171.854 64.9006 174.223C66.1604 176.593 66.8946 179.206 67.0532 181.884L70.3547 237.509C71.2018 251.778 87.8339 259.897 99.6184 251.772L145.513 220.127V220.125C147.723 218.601 150.235 217.57 152.878 217.104C155.521 216.638 158.234 216.746 160.832 217.423L214.774 231.451C228.624 235.053 241.478 221.731 237.397 208.03L221.492 154.631C220.725 152.059 220.521 149.353 220.896 146.695C221.27 144.038 222.213 141.493 223.66 139.233V139.232L253.695 92.2781V92.2779C261.398 80.2359 252.714 63.8888 238.414 63.5407L182.69 62.1838C177.258 62.0515 172.159 59.5668 168.71 55.3703L133.332 12.323C128.79 6.79742 121.962 4.83896 115.676 5.94841ZM117.368 15.5551C120.225 15.0509 123.345 16.0389 125.554 18.7262L160.931 61.7724C166.237 68.2289 174.095 72.0568 182.444 72.2601L238.169 73.6169C245.148 73.7869 248.96 80.9866 245.214 86.8432L215.177 133.798C210.673 140.837 209.454 149.499 211.84 157.51L227.746 210.91C229.726 217.559 224.064 223.453 217.307 221.695L163.364 207.667C155.281 205.565 146.675 207.083 139.798 211.826L93.9045 243.472H93.9042C88.1544 247.437 80.8193 243.837 80.4082 236.91L77.1069 181.287C76.6116 172.943 72.5046 165.221 65.8666 160.147L21.5956 126.305C16.0738 122.084 17.196 114.014 23.6948 111.466L75.5959 91.1157C83.3718 88.0668 89.4479 81.78 92.2274 73.8973L92.2272 73.897L110.761 21.3367C111.918 18.0557 114.512 16.0593 117.368 15.5552" fill="#221D18"/>
<path d="M130.378 145.117C129.132 145.598 128.128 146.556 127.588 147.778C127.046 149 127.012 150.387 127.493 151.633C128.115 153.244 129.047 154.715 130.237 155.965C131.426 157.215 132.85 158.217 134.427 158.915L134.429 158.916C136.004 159.614 137.702 159.994 139.424 160.036L139.425 160.037H139.428C141.15 160.077 142.862 159.779 144.47 159.158H144.471C146.079 158.537 147.549 157.604 148.798 156.414L148.799 156.412C150.047 155.222 151.048 153.798 151.745 152.221C152.444 150.642 152.825 148.941 152.865 147.215C152.897 145.878 152.396 144.584 151.474 143.617C150.553 142.65 149.284 142.09 147.949 142.058C147.288 142.043 146.63 142.158 146.013 142.396C145.396 142.635 144.834 142.993 144.355 143.45C143.877 143.906 143.493 144.453 143.225 145.059C142.958 145.664 142.812 146.317 142.797 146.978C142.788 147.377 142.7 147.772 142.537 148.137L142.536 148.138L142.535 148.141C142.372 148.508 142.139 148.84 141.85 149.116V149.117C141.559 149.393 141.218 149.61 140.844 149.754L140.843 149.755C140.468 149.9 140.069 149.969 139.667 149.96C139.267 149.95 138.871 149.861 138.505 149.698H138.503L138.501 149.697C138.135 149.536 137.804 149.303 137.528 149.013V149.012C137.251 148.721 137.033 148.378 136.889 148.004C136.408 146.756 135.452 145.752 134.231 145.21C133.01 144.67 131.624 144.636 130.378 145.117ZM86.5767 125.583C85.5816 125.622 84.6203 125.955 83.8146 126.541C83.0087 127.127 82.3946 127.939 82.0498 128.874C81.8208 129.494 81.7162 130.154 81.7422 130.816C81.7681 131.477 81.9238 132.127 82.2006 132.728C82.4774 133.329 82.8698 133.87 83.3553 134.318C83.8409 134.768 84.4102 135.117 85.0305 135.346L88.6515 136.683L85.7062 139.179C84.687 140.043 84.0522 141.277 83.9417 142.609C83.8312 143.94 84.2539 145.262 85.1169 146.283C85.9799 147.302 87.2125 147.937 88.5434 148.048C89.8743 148.159 91.1947 147.735 92.2139 146.872L101.748 138.794C102.419 138.224 102.93 137.488 103.229 136.661C103.528 135.832 103.605 134.94 103.453 134.071C103.3 133.205 102.922 132.392 102.358 131.717C101.794 131.04 101.063 130.524 100.237 130.219L88.5172 125.89C87.897 125.661 87.2375 125.557 86.5767 125.583ZM181.765 108.785C181.134 108.987 180.55 109.311 180.045 109.739L170.513 117.818C169.84 118.387 169.331 119.122 169.031 119.951C168.733 120.779 168.655 121.672 168.808 122.539C168.961 123.406 169.338 124.218 169.902 124.894C170.466 125.571 171.198 126.087 172.023 126.392L183.743 130.72C184.995 131.182 186.381 131.128 187.594 130.569C188.806 130.009 189.748 128.991 190.21 127.737C190.439 127.116 190.543 126.456 190.518 125.795C190.492 125.133 190.335 124.483 190.059 123.882C189.783 123.281 189.39 122.741 188.904 122.291C188.419 121.842 187.849 121.493 187.23 121.264L183.609 119.927L186.554 117.431C187.059 117.003 187.474 116.48 187.777 115.892C188.08 115.303 188.263 114.661 188.319 114.001C188.373 113.342 188.297 112.678 188.096 112.048C187.894 111.417 187.57 110.833 187.143 110.328C186.5 109.567 185.645 109.015 184.687 108.74C183.73 108.465 182.713 108.481 181.764 108.785" fill="#221D18"/>
<path d="M120 117.328C108.822 115.149 85.7502 110.651 64.9446 128.925C67.8531 138.555 70.2313 143.674 75.6871 152.417C82.2608 160.904 111.718 155.202 115.253 146.456C119.267 136.213 120.718 129.908 122.382 117.782C121.664 117.652 120.868 117.497 120 117.328Z" fill="#9DE7FF" fill-opacity="0.25"/>
<path d="M150.574 111.998C149.816 112.454 149.121 112.872 148.49 113.239C154.202 124.065 157.721 129.493 164.997 137.745C171.31 144.755 200.941 140.038 204.215 129.815C206.352 119.733 206.836 114.109 206.275 104.066C180.475 94.0099 160.332 106.127 150.574 111.998Z" fill="#9DE7FF" fill-opacity="0.25"/>
<path fill-rule="evenodd" clip-rule="evenodd" d="M145.264 120.855C139.443 113.758 129.102 115.582 126.813 125.632L121.278 148.947C115.253 160.854 85.1304 168.854 71.545 157.716C63.7417 145.398 60.2395 138.276 58.0812 124.551C61.6264 108.116 67.1309 94.8545 77.0643 81.5221L86.1309 75.354C75.6871 92.8545 68.4753 104.304 65.12 121.279C76.0992 108.681 105.99 105.441 124.208 110.86C129.017 106.458 134.926 105.416 141.935 107.734C165.658 95.4276 188.28 88.3925 204.47 96.7074C198.966 84.5366 190.021 77.3479 178.696 68.246C176.397 66.3984 174 64.472 171.514 62.4091L182.143 65.1043C196.425 73.7819 202.993 80.7588 212.203 97.3747C214.113 108.208 212.72 126.223 208.926 133.493C196.352 151.449 165.418 148.78 160.67 142.001L145.264 120.855ZM120 117.328C108.822 115.149 85.7502 110.651 64.9446 128.925C67.8531 138.555 70.2313 143.674 75.6871 152.417C82.2608 160.904 111.718 155.202 115.253 146.456C119.267 136.213 120.718 129.908 122.382 117.782C121.664 117.652 120.868 117.497 120 117.328ZM150.574 111.998C149.816 112.454 149.121 112.872 148.49 113.239C154.202 124.065 157.721 129.493 164.997 137.745C171.31 144.755 200.941 140.038 204.215 129.815C206.352 119.733 206.836 114.109 206.275 104.066C180.475 94.0099 160.332 106.127 150.574 111.998Z" fill="#FF5454"/>
<path d="M120 117.328C108.822 115.149 85.7502 110.651 64.9446 128.925C67.8531 138.555 70.2313 143.674 75.6871 152.417C82.2608 160.904 111.718 155.202 115.253 146.456C119.267 136.213 120.718 129.908 122.382 117.782C121.664 117.652 120.868 117.497 120 117.328Z" stroke="#221D18" stroke-width="4" stroke-linejoin="round"/>
<path d="M150.574 111.998C149.816 112.454 149.121 112.872 148.49 113.239C154.202 124.065 157.721 129.493 164.997 137.745C171.31 144.755 200.941 140.038 204.215 129.815C206.352 119.733 206.836 114.109 206.275 104.066C180.475 94.0099 160.332 106.127 150.574 111.998Z" stroke="#221D18" stroke-width="4" stroke-linejoin="round"/>
<path fill-rule="evenodd" clip-rule="evenodd" d="M120 117.328C108.822 115.149 85.7502 110.651 64.9446 128.925C67.8531 138.555 70.2313 143.674 75.6871 152.417C82.2608 160.904 111.718 155.202 115.253 146.456C119.267 136.213 120.718 129.908 122.382 117.782C121.664 117.652 120.868 117.497 120 117.328ZM148.49 113.239C149.121 112.872 149.816 112.454 150.574 111.998C160.332 106.127 180.475 94.0099 206.275 104.066C206.836 114.109 206.352 119.733 204.215 129.815C200.941 140.038 171.31 144.755 164.997 137.745C157.721 129.493 154.202 124.065 148.49 113.239Z" stroke="#221D18" stroke-width="4" stroke-linejoin="round"/>
<path fill-rule="evenodd" clip-rule="evenodd" d="M145.264 120.855C139.443 113.758 129.102 115.582 126.813 125.632L121.278 148.947C115.253 160.854 85.1304 168.854 71.545 157.716C63.7417 145.398 60.2395 138.276 58.0812 124.551C61.6264 108.116 67.1309 94.8545 77.0643 81.5221L86.1309 75.354C75.6871 92.8545 68.4753 104.304 65.12 121.279C76.0992 108.681 105.99 105.441 124.208 110.86C129.017 106.458 134.926 105.416 141.935 107.734C165.658 95.4276 188.28 88.3925 204.47 96.7074C198.966 84.5366 190.021 77.3479 178.696 68.246C176.397 66.3984 174 64.472 171.514 62.4091L182.143 65.1043C196.425 73.7819 202.993 80.7588 212.203 97.3747C214.113 108.208 212.72 126.223 208.926 133.493C196.352 151.449 165.418 148.78 160.67 142.001L145.264 120.855ZM120 117.328C108.822 115.149 85.7502 110.651 64.9446 128.925C67.8531 138.555 70.2313 143.674 75.6871 152.417C82.2608 160.904 111.718 155.202 115.253 146.456C119.267 136.213 120.718 129.908 122.382 117.782C121.664 117.652 120.868 117.497 120 117.328ZM150.574 111.998C149.816 112.454 149.121 112.872 148.49 113.239C154.202 124.065 157.721 129.493 164.997 137.745C171.31 144.755 200.941 140.038 204.215 129.815C206.352 119.733 206.836 114.109 206.275 104.066C180.475 94.0099 160.332 106.127 150.574 111.998Z" stroke="#221D18" stroke-width="4" stroke-linejoin="round"/>
</svg>
