<svg width="265" height="255" viewBox="0 0 265 255" fill="none" xmlns="http://www.w3.org/2000/svg">
<path d="M106.022 17.2763C109.558 7.24812 122.703 4.92852 129.453 13.1414L164.831 56.1881C169.208 61.5146 175.687 64.6707 182.578 64.8387L238.302 66.1956C248.941 66.4547 255.189 78.2281 249.465 87.1775L219.43 134.132C217.593 137.002 216.396 140.234 215.921 143.609C215.445 146.983 215.703 150.422 216.677 153.687L232.582 207.086C235.613 217.262 226.355 226.87 216.051 224.19L162.109 210.162C158.812 209.304 155.369 209.167 152.014 209.759C148.659 210.351 145.471 211.659 142.667 213.593L96.7719 245.238C88.0048 251.283 76.0212 245.425 75.392 234.826L72.0907 179.202C71.6821 172.319 68.2977 165.955 62.8207 161.768L18.5495 127.927C10.1116 121.477 11.9599 108.275 21.8684 104.39L73.7693 84.0401C80.1872 81.5237 85.1959 76.3404 87.489 69.8368L106.022 17.2763Z" fill="#FFAFF3"/>
<path d="M115.676 3.5656C109.389 4.67505 103.642 8.85256 101.263 15.5997L82.7298 68.1602C80.923 73.2845 76.9815 77.3644 71.9219 79.3483L20.0211 99.6977C6.70287 104.92 4.1284 123.253 15.4825 131.932L59.7535 165.773C61.8852 167.402 63.6409 169.471 64.9006 171.84C66.1604 174.21 66.8946 176.823 67.0532 179.501L70.3547 235.126C71.2018 249.396 87.8339 257.515 99.6184 249.389L145.513 217.744V217.743C147.723 216.218 150.235 215.187 152.878 214.721C155.521 214.255 158.234 214.363 160.832 215.04L214.774 229.068C228.624 232.67 241.478 219.348 237.397 205.647L221.492 152.248C220.725 149.677 220.521 146.97 220.896 144.312C221.27 141.655 222.213 139.11 223.66 136.851V136.849L253.695 89.8953V89.8951C261.398 77.8531 252.714 61.506 238.414 61.1579L182.69 59.801C177.258 59.6687 172.159 57.184 168.71 52.9874L133.332 9.94018C128.79 4.41461 121.962 2.45615 115.676 3.5656ZM117.368 13.1723C120.225 12.6681 123.345 13.6561 125.554 16.3434L160.931 59.3896C166.237 65.8461 174.095 69.674 182.444 69.8773L238.169 71.2341C245.148 71.4041 248.96 78.6038 245.214 84.4604L215.177 131.415C210.673 138.455 209.454 147.117 211.84 155.127L227.746 208.528C229.726 215.176 224.064 221.07 217.307 219.312L163.364 205.285C155.281 203.182 146.675 204.7 139.798 209.444L93.9045 241.089H93.9042C88.1544 245.054 80.8193 241.454 80.4082 234.527L77.1069 178.904C76.6116 170.56 72.5046 162.838 65.8666 157.764L21.5956 123.922C16.0738 119.701 17.196 111.631 23.6948 109.083L75.5959 88.7329C83.3718 85.684 89.4479 79.3971 92.2274 71.5145L92.2272 71.5142L110.761 18.9538C111.918 15.6729 114.512 13.6765 117.368 13.1724" fill="#221D18"/>
<path d="M130.378 142.734C129.132 143.216 128.128 144.173 127.588 145.395C127.046 146.617 127.012 148.005 127.493 149.251C128.115 150.861 129.047 152.332 130.237 153.582C131.426 154.832 132.85 155.834 134.427 156.532L134.429 156.533C136.004 157.231 137.702 157.611 139.424 157.653L139.425 157.654H139.428C141.15 157.695 142.862 157.396 144.47 156.775H144.471C146.079 156.154 147.549 155.221 148.798 154.031L148.799 154.03C150.047 152.839 151.048 151.415 151.745 149.838C152.444 148.259 152.825 146.558 152.865 144.832C152.897 143.495 152.396 142.201 151.474 141.234C150.553 140.267 149.284 139.707 147.949 139.675C147.288 139.66 146.63 139.775 146.013 140.013C145.396 140.252 144.834 140.61 144.355 141.067C143.877 141.524 143.493 142.07 143.225 142.676C142.958 143.281 142.812 143.934 142.797 144.595C142.788 144.995 142.7 145.389 142.537 145.754L142.536 145.756L142.535 145.758C142.372 146.125 142.139 146.457 141.85 146.733V146.735C141.559 147.011 141.218 147.227 140.844 147.371L140.843 147.372C140.468 147.517 140.069 147.586 139.667 147.577C139.267 147.567 138.871 147.478 138.505 147.315H138.503L138.501 147.314C138.135 147.153 137.804 146.92 137.528 146.63V146.629C137.251 146.338 137.033 145.995 136.889 145.621C136.408 144.374 135.452 143.369 134.231 142.828C133.01 142.287 131.624 142.253 130.378 142.734ZM86.5767 123.2C85.5816 123.239 84.6203 123.572 83.8146 124.158C83.0087 124.744 82.3946 125.556 82.0498 126.491C81.8208 127.111 81.7162 127.772 81.7422 128.433C81.7681 129.094 81.9238 129.745 82.2006 130.346C82.4774 130.947 82.8698 131.487 83.3553 131.936C83.8409 132.385 84.4102 132.734 85.0305 132.964L88.6515 134.3L85.7062 136.796C84.687 137.661 84.0522 138.894 83.9417 140.226C83.8312 141.558 84.2539 142.879 85.1169 143.9C85.9799 144.919 87.2125 145.554 88.5434 145.665C89.8743 145.776 91.1947 145.352 92.2139 144.489L101.748 136.411C102.419 135.841 102.93 135.106 103.229 134.278C103.528 133.449 103.605 132.557 103.453 131.689C103.3 130.822 102.922 130.009 102.358 129.334C101.794 128.657 101.063 128.141 100.237 127.836L88.5172 123.508C87.897 123.278 87.2375 123.174 86.5767 123.2ZM181.765 106.402C181.134 106.604 180.55 106.928 180.045 107.356L170.513 115.435C169.84 116.004 169.331 116.74 169.031 117.568C168.733 118.396 168.655 119.289 168.808 120.156C168.961 121.023 169.338 121.836 169.902 122.512C170.466 123.188 171.198 123.704 172.023 124.009L183.743 128.337C184.995 128.8 186.381 128.745 187.594 128.186C188.806 127.627 189.748 126.608 190.21 125.354C190.439 124.733 190.543 124.073 190.518 123.412C190.492 122.751 190.335 122.101 190.059 121.5C189.783 120.899 189.39 120.358 188.904 119.909C188.419 119.459 187.849 119.11 187.23 118.881L183.609 117.544L186.554 115.048C187.059 114.62 187.474 114.097 187.777 113.509C188.08 112.92 188.263 112.278 188.319 111.619C188.373 110.959 188.297 110.295 188.096 109.665C187.894 109.035 187.57 108.45 187.143 107.945C186.5 107.184 185.645 106.632 184.687 106.357C183.73 106.083 182.713 106.098 181.764 106.402" fill="#221D18"/>
<path d="M91.4085 167.294C95.42 159.462 125.471 153.974 128.426 167.294C126.403 166.215 124.041 166.972 123.083 169.182C164.499 169.718 187.485 158.904 227.763 120.722L221.063 135.368C221.063 135.368 217.391 143.223 219.125 151.894C219.802 155.28 221.063 159.647 221.063 159.647C191.006 182.324 166.93 188.38 122.105 192.177C123.173 206.083 126.109 221.075 126.109 221.075C114.298 226.356 105.209 227.43 93.1535 216.417C93.1535 216.417 91.994 206.224 91.4085 194.206C82.1199 194.484 73.7252 190.567 69.6503 186.368C69.6503 186.368 68.8978 174.277 67.9702 172.612C63.4264 164.458 53.0939 157.487 53.0939 157.487C59.871 160.968 77.1325 166.035 91.4085 167.294Z" fill="#FF54AF"/>
<path d="M91.4085 167.294C95.42 159.462 125.471 153.974 128.426 167.294C126.403 166.215 124.041 166.972 123.083 169.182M91.4085 167.294C77.1324 166.035 59.871 160.968 53.0939 157.487C53.0939 157.487 63.4264 164.458 67.9702 172.612C68.8978 174.277 69.6503 186.368 69.6503 186.368C73.7252 190.567 82.1199 194.484 91.4085 194.206M91.4085 167.294C89.8982 170.242 90.7955 181.625 91.4085 194.206M91.4085 194.206C91.994 206.224 93.1535 216.417 93.1535 216.417C105.209 227.43 114.297 226.356 126.109 221.075C126.109 221.075 123.173 206.083 122.105 192.177M123.083 169.182C164.499 169.718 187.485 158.904 227.763 120.722L221.063 135.368C221.063 135.368 217.391 143.223 219.125 151.894C219.802 155.28 221.063 159.647 221.063 159.647C191.006 182.324 166.93 188.38 122.105 192.177M123.083 169.182C121.318 173.255 121.461 183.794 122.105 192.177" stroke="#151515" stroke-width="4"/>
</svg>
